<svg xmlns="http://www.w3.org/2000/svg" xmlns:xlink="http://www.w3.org/1999/xlink" fill="none" version="1.1" width="16"
  height="16" viewBox="0 0 16 16">
  <g>
    <g>
      <path
        d="M8.0000528125,8.91922177734375C8.0000528125,8.91922177734375,11.075952812499999,11.995131777343751,11.075952812499999,11.995131777343751C11.075952812499999,11.995131777343751,11.995192812500001,11.075891777343749,11.995192812500001,11.075891777343749C11.995192812500001,11.075891777343749,8.9192828125,7.99999177734375,8.9192828125,7.99999177734375C8.9192828125,7.99999177734375,11.995192812500001,4.92408677734375,11.995192812500001,4.92408677734375C11.995192812500001,4.92408677734375,11.075952812499999,4.00484841414375,11.075952812499999,4.00484841414375C11.075952812499999,4.00484841414375,8.0000528125,7.08075177734375,8.0000528125,7.08075177734375C8.0000528125,7.08075177734375,4.9241218125,4.00482177734375,4.9241218125,4.00482177734375C4.9241218125,4.00482177734375,4.0048828125,4.92406077734375,4.0048828125,4.92406077734375C4.0048828125,4.92406077734375,7.0808128125,7.99999177734375,7.0808128125,7.99999177734375C7.0808128125,7.99999177734375,4.0048828125,11.07591177734375,4.0048828125,11.07591177734375C4.0048828125,11.07591177734375,4.9241218125,11.99515177734375,4.9241218125,11.99515177734375C4.9241218125,11.99515177734375,8.0000528125,8.91922177734375,8.0000528125,8.91922177734375Z"
        fill="black" fill-opacity="1" />
    </g>
  </g>
</svg>