<svg xmlns="http://www.w3.org/2000/svg" xmlns:xlink="http://www.w3.org/1999/xlink" fill="none" version="1.1" width="16"
  height="16" viewBox="0 0 16 16">
  <defs>
    <clipPath id="master_svg0_562_65620">
      <rect x="0" y="0" width="16" height="16" rx="4" />
    </clipPath>
  </defs>
  <g clip-path="url(#master_svg0_562_65620)">
    <g transform="matrix(0,-1,1,0,-6,20)">
      <path
        d="M9,14Q9,14.09849,8.98079,14.19509Q8.96157,14.29169,8.92388,14.38268Q8.88619,14.47368,8.83147,14.55557Q8.77675,14.63746,8.70711,14.70711Q8.63746,14.77675,8.55557,14.83147Q8.47368,14.88619,8.38268,14.92388Q8.29169,14.96157,8.19509,14.98079Q8.09849,15,8,15Q7.901509,15,7.80491,14.98079Q7.708311,14.96157,7.617316,14.92388Q7.526322,14.88619,7.44443,14.83147Q7.362537,14.77675,7.292893,14.70711Q7.223249,14.63746,7.16853,14.55557Q7.113811,14.47368,7.0761205,14.38268Q7.0384294,14.29169,7.0192147,14.19509Q7,14.09849,7,14Q7,13.901509,7.0192147,13.80491Q7.0384294,13.708311,7.0761205,13.617316Q7.113811,13.526322,7.16853,13.44443Q7.223249,13.362537,7.292893,13.292893Q7.362537,13.223249,7.44443,13.16853Q7.526322,13.113811,7.617316,13.0761205Q7.708311,13.0384294,7.80491,13.0192147Q7.901509,13,8,13Q8.09849,13,8.19509,13.0192147Q8.29169,13.0384294,8.38268,13.0761205Q8.47368,13.113811,8.55557,13.16853Q8.63746,13.223249,8.70711,13.292893Q8.77675,13.362537,8.83147,13.44443Q8.88619,13.526322,8.92388,13.617316Q8.96157,13.708311,8.98079,13.80491Q9,13.901509,9,14Z"
        fill="black" fill-opacity="1" />
    </g>
    <g transform="matrix(0,-1,1,0,-1.66650390625,15.66650390625)">
      <path
        d="M9,9.66650390625Q9,9.76499390625,8.98079,9.86159390625Q8.96157,9.95819390625,8.92388,10.04918390625Q8.88619,10.14018390625,8.83147,10.22207390625Q8.77675,10.30396390625,8.70711,10.37361390625Q8.63746,10.44325390625,8.55557,10.49797390625Q8.47368,10.55269390625,8.38268,10.59038390625Q8.29169,10.62807390625,8.19509,10.64729390625Q8.09849,10.66650390625,8,10.66650390625Q7.901509,10.66650390625,7.80491,10.64729390625Q7.708311,10.62807390625,7.617316,10.59038390625Q7.526322,10.55269390625,7.44443,10.49797390625Q7.362537,10.44325390625,7.292893,10.37361390625Q7.223249,10.30396390625,7.16853,10.22207390625Q7.113811,10.14018390625,7.0761205,10.04918390625Q7.0384294,9.95819390625,7.0192147,9.86159390625Q7,9.76499390625,7,9.66650390625Q7,9.56801290625,7.0192147,9.47141390625Q7.0384294,9.37481490625,7.0761205,9.28381990625Q7.113811,9.19282590625,7.16853,9.11093390625Q7.223249,9.02904090625,7.292893,8.95939690625Q7.362537,8.88975290625,7.44443,8.83503390625Q7.526322,8.78031490625,7.617316,8.74262440625Q7.708311,8.70493330625,7.80491,8.68571860625Q7.901509,8.66650390625,8,8.66650390625Q8.09849,8.66650390625,8.19509,8.68571860625Q8.29169,8.70493330625,8.38268,8.74262440625Q8.47368,8.78031490625,8.55557,8.83503390625Q8.63746,8.88975290625,8.70711,8.95939690625Q8.77675,9.02904090625,8.83147,9.11093390625Q8.88619,9.19282590625,8.92388,9.28381990625Q8.96157,9.37481490625,8.98079,9.47141390625Q9,9.56801290625,9,9.66650390625Z"
        fill="black" fill-opacity="1" />
    </g>
    <g transform="matrix(0,-1,1,0,2.66650390625,11.33349609375)">
      <path
        d="M9,5.33349609375Q9,5.43198609375,8.98079,5.52858609375Q8.96157,5.62518609375,8.92388,5.71617609375Q8.88619,5.80717609375,8.83147,5.8890660937499995Q8.77675,5.97095609375,8.70711,6.04060609375Q8.63746,6.11024609375,8.55557,6.1649660937499995Q8.47368,6.21968609375,8.38268,6.2573760937500005Q8.29169,6.29506609375,8.19509,6.31428609375Q8.09849,6.33349609375,8,6.33349609375Q7.901509,6.33349609375,7.80491,6.31428609375Q7.708311,6.29506609375,7.617316,6.2573760937500005Q7.526322,6.21968609375,7.44443,6.1649660937499995Q7.362537,6.11024609375,7.292893,6.04060609375Q7.223249,5.97095609375,7.16853,5.8890660937499995Q7.113811,5.80717609375,7.0761205,5.71617609375Q7.0384294,5.62518609375,7.0192147,5.52858609375Q7,5.43198609375,7,5.33349609375Q7,5.23500509375,7.0192147,5.13840609375Q7.0384294,5.04180709375,7.0761205,4.95081209375Q7.113811,4.85981809375,7.16853,4.77792609375Q7.223249,4.69603309375,7.292893,4.62638909375Q7.362537,4.55674509375,7.44443,4.50202609375Q7.526322,4.44730709375,7.617316,4.40961659375Q7.708311,4.37192549375,7.80491,4.35271079375Q7.901509,4.33349609375,8,4.33349609375Q8.09849,4.33349609375,8.19509,4.35271079375Q8.29169,4.37192549375,8.38268,4.40961659375Q8.47368,4.44730709375,8.55557,4.50202609375Q8.63746,4.55674509375,8.70711,4.62638909375Q8.77675,4.69603309375,8.83147,4.77792609375Q8.88619,4.85981809375,8.92388,4.95081209375Q8.96157,5.04180709375,8.98079,5.13840609375Q9,5.23500509375,9,5.33349609375Z"
        fill="black" fill-opacity="1" />
    </g>
  </g>
</svg>