<svg xmlns="http://www.w3.org/2000/svg" xmlns:xlink="http://www.w3.org/1999/xlink" fill="none" version="1.1" width="16"
  height="16" viewBox="0 0 16 16">
  <defs>
    <clipPath id="master_svg0_164_023289">
      <rect x="16" y="0" width="16" height="16" rx="0" />
    </clipPath>
  </defs>
  <g transform="matrix(0,1,-1,0,16,-16)" clip-path="url(#master_svg0_164_023289)">
    <g>
      <path
        d="M24.9999966015625,8.5602294921875L24.9999966015625,2.3602294921875L22.9999966015625,2.3602294921875L22.9999966015625,8.5602294921875L20.4002636015625,7.7803094921875C19.9437936015625,7.6433694921875,19.5727226015625,8.1620394921875,19.8497229015625,8.5498394921875L23.5931366015625,13.7906294921875C23.7925466015625,14.0698294921875,24.207456601562498,14.0698294921875,24.4068666015625,13.7906294921875L28.1502766015625,8.5498394921875C28.4272766015625,8.1620394921875,28.0562066015625,7.6433694921875,27.5997366015625,7.7803094921875L24.9999966015625,8.5602294921875Z"
        fill-rule="evenodd" fill="black" fill-opacity="1" />
      <path
        d="M21.9999966015625,1.3602294921875L21.9999966015625,7.2161994921875L20.6876116015625,6.8224794921875Q19.6605538015625,6.5143594921875,19.0366456015625,7.3864494921875Q18.4127366015625,8.258529492187499,19.0359896015625,9.1310794921875L22.7793966015625,14.3718294921875Q23.2280766015625,15.0000294921875,23.9999966015625,15.0000294921875Q24.771926601562498,15.0000294921875,25.220596601562498,14.3718294921875L28.964006601562502,9.1310794921875Q29.5872666015625,8.258529492187499,28.963356601562502,7.3864494921875Q28.3394466015625,6.5143594921875,27.3123866015625,6.8224794921875L25.9999966015625,7.2161994921875L25.9999966015625,1.3602294921875L21.9999966015625,1.3602294921875ZM22.9999966015625,8.5602294921875L22.9999966015625,2.3602294921875L24.9999966015625,2.3602294921875L24.9999966015625,8.5602294921875L25.9999966015625,8.2602294921875L27.5997366015625,7.7803094921875C28.0562066015625,7.6433694921875,28.4272766015625,8.1620394921875,28.1502766015625,8.5498394921875L24.4068666015625,13.7906294921875C24.207456601562498,14.0698294921875,23.7925466015625,14.0698294921875,23.5931366015625,13.7906294921875L19.8497229015625,8.5498394921875C19.5727226015625,8.1620394921875,19.9437936015625,7.6433694921875,20.4002636015625,7.7803094921875L21.9999966015625,8.2602294921875L22.9999966015625,8.5602294921875Z"
        fill-rule="evenodd" fill="#FFFFFF" fill-opacity="1" />
    </g>
  </g>
</svg>