<svg xmlns="http://www.w3.org/2000/svg" xmlns:xlink="http://www.w3.org/1999/xlink" fill="none" version="1.1" width="20"
  height="20" viewBox="0 0 20 20">
  <defs>
    <clipPath id="master_svg0_235_034742">
      <rect x="0" y="0" width="20" height="20" rx="0" />
    </clipPath>
  </defs>
  <g clip-path="url(#master_svg0_235_034742)">
    <g>
      <g transform="matrix(0,1,1,0,-0.13720703125,0.13720703125)">
        <path
          d="M6.5973096875,4.04694079875L7.4092996875,4.80021371875L5.7332696875,6.60529671875L16.2803796875,6.60518671875L16.2803796875,7.71293671875L4.4643326875,7.71305671875C4.0018450875,7.71305671875,3.7514926875,7.18576671875,4.0184616875,6.83017671875L4.0583406875,6.78253671875L6.5973096875,4.04638671875L6.5973096875,4.04694079875Z"
          fill="black" fill-opacity="1" />
      </g>
      <g>
        <path
          d="M10.576171875,16.513758046875L12.213541875,11.666748046875L13.541661874999999,11.666748046875L15.179031875,16.513758046875L13.925781875,16.513758046875L13.623041875,15.524168046875L12.099611875,15.524168046875L11.796871875,16.513758046875L10.576171875,16.513758046875ZM13.356121875,14.645268046875L12.861331875,13.046958046875L12.366531875,14.645268046875L13.356121875,14.645268046875Z"
          fill="black" fill-opacity="1" />
      </g>
      <g>
        <path
          d="M14.75455625,9.013758046875001L10.91015625,9.013758046875001L10.91015625,8.105548046875L13.13997625,5.091227046875L11.02734425,5.091227046875L11.02734425,4.166748046875L14.62434625,4.166748046875L14.62434625,5.091227046875L12.39778625,8.089278046875L14.75455625,8.089278046875L14.75455625,9.013758046875001Z"
          fill="black" fill-opacity="1" />
      </g>
    </g>
  </g>
</svg>