<svg xmlns="http://www.w3.org/2000/svg" xmlns:xlink="http://www.w3.org/1999/xlink" fill="none" version="1.1" width="20"
  height="20" viewBox="0 0 20 20">
  <defs>
    <clipPath id="master_svg0_235_034792">
      <rect x="0" y="0" width="20" height="20" rx="0" />
    </clipPath>
  </defs>
  <g clip-path="url(#master_svg0_235_034792)">
    <g>
      <g transform="matrix(0,-1,1,0,-12.50732421875,20.32763671875)">
        <path
          d="M6.59828625,16.41803454875L7.41027625,17.17130746875L5.73424625,18.97639046875L16.28135625,18.97628046875L16.28135625,20.08403046875L4.46530925,20.08415046875C4.00282165,20.08415046875,3.75246925,19.55686046875,4.01943825,19.20127046875L4.05931725,19.15363046875L6.59828625,16.41748046875L6.59828625,16.41803454875Z"
          fill="black" fill-opacity="1" />
      </g>
      <g>
        <path
          d="M10.576171875,8.893152578125001L12.213541875,4.046142578125L13.541661874999999,4.046142578125L15.179031875,8.893152578125001L13.925781875,8.893152578125001L13.623041875,7.903562578124999L12.099611875,7.903562578124999L11.796871875,8.893152578125001L10.576171875,8.893152578125001ZM13.356121875,7.024662578125L12.861331875,5.426352578125L12.366531875,7.024662578125L13.356121875,7.024662578125Z"
          fill="black" fill-opacity="1" />
      </g>
      <g>
        <path
          d="M14.75455625,16.226648671875L10.91015625,16.226648671875L10.91015625,15.318438671875L13.13997625,12.304117671875L11.02734425,12.304117671875L11.02734425,11.379638671875L14.62434625,11.379638671875L14.62434625,12.304117671875L12.39778625,15.302168671875L14.75455625,15.302168671875L14.75455625,16.226648671875Z"
          fill="black" fill-opacity="1" />
      </g>
    </g>
  </g>
</svg>