<svg xmlns="http://www.w3.org/2000/svg" xmlns:xlink="http://www.w3.org/1999/xlink" fill="none" version="1.1" width="16"
  height="16" viewBox="0 0 16 16">
  <defs>
    <clipPath id="master_svg0_1034_065465">
      <rect x="0" y="0" width="16" height="16" rx="0" />
    </clipPath>
  </defs>
  <g clip-path="url(#master_svg0_1034_065465)">
    <g>
      <path
        d="M12.8562,3.97227L11.02773,2.143845Q10.258880000000001,1.375,9.17157,1.375L5,1.375Q3.91269,1.375,3.143845,2.143845Q2.375,2.91269,2.375,4L2.375,12Q2.375,13.0873,3.143845,13.8562Q3.91269,14.625,5,14.625L11,14.625Q12.08731,14.625,12.8562,13.8562Q13.625,13.0873,13.625,12L13.625,5.82843Q13.625,4.7411200000000004,12.8562,3.97227ZM9.375,2.63856Q9.2761,2.625,9.17157,2.625L5,2.625Q4.43046,2.625,4.02773,3.02773Q3.625,3.43046,3.625,4L3.625,12Q3.625,12.5695,4.02773,12.9723Q4.43046,13.375,5,13.375L11,13.375Q11.56954,13.375,11.97227,12.9723Q12.375,12.5695,12.375,12L12.375,5.82843Q12.375,5.72391,12.36144,5.625L10,5.625C9.65482,5.625,9.375,5.34518,9.375,5L9.375,2.63856ZM11.49112,4.375L10.625,4.375L10.625,3.50888L11.49112,4.375ZM9.625,7C9.625,6.65482,9.34518,6.375,9,6.375L6,6.375C5.65482,6.375,5.375,6.65482,5.375,7C5.375,7.34518,5.65482,7.625,6,7.625L9,7.625C9.34518,7.625,9.625,7.34518,9.625,7ZM8.625,10C8.625,9.65482,8.34518,9.375,8,9.375L6,9.375C5.65482,9.375,5.375,9.65482,5.375,10C5.375,10.34518,5.65482,10.625,6,10.625L8,10.625C8.34518,10.625,8.625,10.34518,8.625,10Z"
        fill-rule="evenodd" fill="black" fill-opacity="1" />
    </g>
  </g>
</svg>