<svg xmlns="http://www.w3.org/2000/svg" xmlns:xlink="http://www.w3.org/1999/xlink" fill="none" version="1.1" width="16"
  height="16" viewBox="0 0 16 16">
  <defs>
    <clipPath id="master_svg0_105_23003">
      <rect x="0" y="0" width="16" height="16" rx="0" />
    </clipPath>
  </defs>
  <g clip-path="url(#master_svg0_105_23003)">
    <g>
      <path
        d="M3.5625,0.9999997615814209L9.786999999999999,0.9999997615814209C10.2016,0.9997900725814209,10.59929,1.1643697615814208,10.8925,1.457499761581421L13.5425,4.107499761581421C13.835,4.400999761581421,14,4.7984997615814216,14,5.212499761581421L14,13.437499761581421C14,14.299999761581422,13.3005,14.999999761581421,12.4375,14.999999761581421L3.5625,14.999999761581421C2.7,14.999999761581421,2,14.30049976158142,2,13.437499761581421L2,2.562499761581421C2,1.699554761581421,2.699555,0.9999997615814209,3.5625,0.9999997615814209ZM9.5,1.999999761581421L3.5625,1.999999761581421C3.252,1.999999761581421,3,2.2519997615814207,3,2.562499761581421L3,13.437499761581421C3,13.748199761581422,3.25184,13.999999761581421,3.5625,13.999999761581421L12.4375,13.999999761581421C12.748,13.999999761581421,13,13.74799976158142,13,13.437499761581421L13,5.499999761581421L10,5.499999761581421C9.74651,5.499969761581421,9.533159999999999,5.310249761581421,9.503499999999999,5.058499761581421L9.5,4.999999761581421L9.5,1.999999761581421ZM10.5,2.479999761581421L10.5,4.499999761581421L12.52,4.499999761581421L10.5,2.479999761581421ZM8,7.500999761581421L8,6.500999761581421L5,6.500999761581421L5,7.500999761581421L8,7.500999761581421ZM9.5,9.999999761581421L9.5,8.999999761581421L5,8.999999761581421L5,9.999999761581421L9.5,9.999999761581421Z"
        fill-rule="evenodd" fill="black" fill-opacity="1" />
    </g>
  </g>
</svg>