<svg xmlns="http://www.w3.org/2000/svg" xmlns:xlink="http://www.w3.org/1999/xlink" fill="none" version="1.1" width="16"
  height="16" viewBox="0 0 16 16">
  <defs>
    <clipPath id="master_svg0_1034_065501">
      <rect x="0" y="0" width="16" height="16" rx="0" />
    </clipPath>
  </defs>
  <g clip-path="url(#master_svg0_1034_065501)">
    <g transform="matrix(0,1,-1,0,17,-10.25)">
      <path
        d="M13.625,4C13.625,3.6548220000000002,13.904822,3.375,14.25,3.375C14.595178,3.375,14.875,3.6548220000000002,14.875,4L14.875,14C14.875,14.3452,14.595178,14.625,14.25,14.625C13.904822,14.625,13.625,14.3452,13.625,14L13.625,4Z"
        fill-rule="evenodd" fill="black" fill-opacity="1" />
    </g>
    <g transform="matrix(0,1,-1,0,21,-6.25)">
      <path
        d="M13.625,8C13.625,7.654822,13.904822,7.375,14.25,7.375C14.595178,7.375,14.875,7.654822,14.875,8L14.875,18C14.875,18.3452,14.595178,18.625,14.25,18.625C13.904822,18.625,13.625,18.3452,13.625,18L13.625,8Z"
        fill-rule="evenodd" fill="black" fill-opacity="1" />
    </g>
    <g transform="matrix(0,1,-1,0,25,-2.25)">
      <path
        d="M13.625,12C13.625,11.654822,13.904822,11.375,14.25,11.375C14.595178,11.375,14.875,11.654822,14.875,12L14.875,22C14.875,22.3452,14.595178,22.625,14.25,22.625C13.904822,22.625,13.625,22.3452,13.625,22L13.625,12Z"
        fill-rule="evenodd" fill="black" fill-opacity="1" />
    </g>
  </g>
</svg>