<svg xmlns="http://www.w3.org/2000/svg" xmlns:xlink="http://www.w3.org/1999/xlink" fill="none" version="1.1" width="24" height="24" viewBox="0 0 24 24"><defs><linearGradient x1="0.5" y1="0" x2="0.5" y2="1" id="master_svg0_484_83545"><stop offset="0%" stop-color="#16D8D1" stop-opacity="1"/><stop offset="100%" stop-color="#00C8CE" stop-opacity="1"/></linearGradient><filter id="master_svg1_484_83063" filterUnits="objectBoundingBox" color-interpolation-filters="sRGB" x="0" y="0" width="1" height="1"><feFlood flood-opacity="0" result="BackgroundImageFix"/><feBlend mode="normal" in="SourceGraphic" in2="BackgroundImageFix" result="shape"/><feColorMatrix in="SourceAlpha" type="matrix" result="hardAlpha" values="0 0 0 0 0 0 0 0 0 0 0 0 0 0 0 0 0 0 127 0"/><feOffset dy="1" dx="-1"/><feGaussianBlur stdDeviation="5"/><feComposite in2="hardAlpha" operator="arithmetic" k2="-1" k3="1"/><feColorMatrix type="matrix" values="0 0 0 0 0.8451327681541443 0 0 0 0 1 0 0 0 0 0.9741887450218201 0 0 0 0.7300000190734863 0"/><feBlend mode="normal" in2="shape" result="effect1_innerShadow"/><feGaussianBlur in="BackgroundImageFix" stdDeviation="1"/><feComposite in2="SourceAlpha" operator="in" result="effect2_foregroundBlur"/><feBlend mode="normal" in="SourceGraphic" in2="effect2_foregroundBlur" result="shape"/></filter><linearGradient x1="0.11491842567920685" y1="0" x2="0.4627915611991675" y2="1.0127804757139727" id="master_svg2_484_83340"><stop offset="0%" stop-color="#33FFCC" stop-opacity="0.49000000953674316"/><stop offset="100%" stop-color="#33F7A6" stop-opacity="0.4099999964237213"/></linearGradient><linearGradient x1="0.6979549527168274" y1="0" x2="0.13442989049836723" y2="1.0279841031909942" id="master_svg3_484_83278"><stop offset="2.142857201397419%" stop-color="#EBFFF6" stop-opacity="1"/><stop offset="49.28571283817291%" stop-color="#3FF7D9" stop-opacity="0.8886361718177795"/><stop offset="100%" stop-color="#BFFFD2" stop-opacity="0.7874696254730225"/></linearGradient><filter id="master_svg4_484_83072" filterUnits="objectBoundingBox" color-interpolation-filters="sRGB" x="-0.6666666666666666" y="-0.2916666666666667" width="2.3333333333333335" height="1.6666666666666667"><feFlood flood-opacity="0" result="BackgroundImageFix"/><feColorMatrix in="SourceAlpha" type="matrix" values="0 0 0 0 0 0 0 0 0 0 0 0 0 0 0 0 0 0 127 0"/><feOffset dy="0.5" dx="0"/><feGaussianBlur stdDeviation="1"/><feColorMatrix type="matrix" values="0 0 0 0 0 0 0 0 0 0.613095223903656 0 0 0 0 0.5313491821289062 0 0 0 0.6499999761581421 0"/><feBlend mode="normal" in2="BackgroundImageFix" result="effect1_dropShadow"/><feBlend mode="normal" in="SourceGraphic" in2="effect1_dropShadow" result="shape"/></filter><filter id="master_svg5_484_83066" filterUnits="objectBoundingBox" color-interpolation-filters="sRGB" x="-0.7272727272727273" y="-0.6363636363636364" width="2.4545454545454546" height="2.4545454545454546"><feFlood flood-opacity="0" result="BackgroundImageFix"/><feColorMatrix in="SourceAlpha" type="matrix" values="0 0 0 0 0 0 0 0 0 0 0 0 0 0 0 0 0 0 127 0"/><feOffset dy="0.5" dx="0"/><feGaussianBlur stdDeviation="1"/><feColorMatrix type="matrix" values="0 0 0 0 0 0 0 0 0 0.613095223903656 0 0 0 0 0.5313491821289062 0 0 0 0.6499999761581421 0"/><feBlend mode="normal" in2="BackgroundImageFix" result="effect1_dropShadow"/><feBlend mode="normal" in="SourceGraphic" in2="effect1_dropShadow" result="shape"/></filter><filter id="master_svg6_484_83067" filterUnits="objectBoundingBox" color-interpolation-filters="sRGB" x="0" y="0" width="1" height="1"><feFlood flood-opacity="0" result="BackgroundImageFix"/><feBlend mode="normal" in="SourceGraphic" in2="BackgroundImageFix" result="shape"/><feColorMatrix in="SourceAlpha" type="matrix" result="hardAlpha" values="0 0 0 0 0 0 0 0 0 0 0 0 0 0 0 0 0 0 127 0"/><feOffset dy="0" dx="-1"/><feGaussianBlur stdDeviation="0.5"/><feComposite in2="hardAlpha" operator="arithmetic" k2="-1" k3="1"/><feColorMatrix type="matrix" values="0 0 0 0 0.8893805146217346 0 0 0 0 1 0 0 0 0 0.9539085626602173 0 0 0 1 0"/><feBlend mode="normal" in2="shape" result="effect1_innerShadow"/><feGaussianBlur in="BackgroundImageFix" stdDeviation="1"/><feComposite in2="SourceAlpha" operator="in" result="effect2_foregroundBlur"/><feBlend mode="normal" in="SourceGraphic" in2="effect2_foregroundBlur" result="shape"/></filter><radialGradient cx="0" cy="0" r="1" gradientUnits="userSpaceOnUse" id="master_svg7_484_83366" gradientTransform="translate(15.427246116101742 8.929565519094467) rotate(134.06104717343305) scale(4.050611832430764 4.050611832430764)"><stop offset="0%" stop-color="#A6FFEC" stop-opacity="0.7400000095367432"/><stop offset="100%" stop-color="#FFFFFF" stop-opacity="0.3799999952316284"/></radialGradient></defs><g><g><g style="opacity:0;"><rect x="0" y="0" width="24" height="24" rx="0" fill="#FFFFFF" fill-opacity="1"/></g><g transform="matrix(0.9877220392227173,0.1562213897705078,-0.1562213897705078,0.9877220392227173,0.37757708312710747,-1.1677196510572685)"><path d="M7.61767578125,3.9123773046875L7.61767578125,17.9120373046875C7.61767578125,19.0220373046875,8.52171878125,19.9197373046875,9.63176578125,19.9119373046875L21.014575781250002,19.8317373046875C22.11357578125,19.8240373046875,23.00047578125,18.9308373046875,23.00047578125,17.8317373046875L23.00007578125,3.8322973046875C22.99997578125,2.7222503046875,22.09597578125,1.8245933346875,20.985975781249998,1.8323979046875L9.60361578125,1.9124283046875C8.50455878125,1.9201563046875,7.61767578125,2.8132973046875,7.61767578125,3.9123773046875Z" fill="url(#master_svg0_484_83545)" fill-opacity="1"/></g><g filter="url(#master_svg1_484_83063)"><path d="M3,6L3,20C3,21.1046,3.895431,22,5,22L18,22C19.1046,22,20,21.1046,20,20L20,13L20,9.5L14.5,4L11.5,4L5,4C3.895431,4,3,4.895431,3,6Z" fill="url(#master_svg2_484_83340)" fill-opacity="1"/><path d="M3,6L3,20C3,21.1046,3.895431,22,5,22L18,22C19.1046,22,20,21.1046,20,20L20,9.5L14.5,4L5,4C3.895431,4,3,4.895431,3,6ZM14.2929,4.5L19.5,9.70711L19.5,20Q19.5,20.6213,19.0607,21.0607Q18.621299999999998,21.5,18,21.5L5,21.5Q4.37868,21.5,3.93934,21.0607Q3.5,20.6213,3.5,20L3.5,6Q3.5,5.37868,3.93934,4.93934Q4.37868,4.5,5,4.5L14.2929,4.5Z" fill-rule="evenodd" fill="url(#master_svg3_484_83278)" fill-opacity="1"/></g><g filter="url(#master_svg4_484_83072)"><path d="M10.725,13.41L8.5750001,17L10.065,17L11.475,14.45L12.865,17L14.425,17L12.245000000000001,13.36L14.195,10.1L12.705,10.1L11.504999999999999,12.34L10.285,10.1L8.735,10.1L10.725,13.41Z" fill="#FEFEFF" fill-opacity="1"/></g><g filter="url(#master_svg5_484_83066)"><path d="M14.5,7.5C14.5,8.604569999999999,15.395431,9.5,16.5,9.5L20,9.5L14.5,4L14.5,7.5Z" fill="#83FBFF" fill-opacity="1"/></g><g filter="url(#master_svg6_484_83067)"><path d="M14.5,7.5C14.5,8.604569999999999,15.395431,9.5,16.5,9.5L20,9.5L14.5,4L14.5,7.5Z" fill="url(#master_svg7_484_83366)" fill-opacity="1"/></g></g></g></svg>