<svg xmlns="http://www.w3.org/2000/svg" xmlns:xlink="http://www.w3.org/1999/xlink" fill="none" version="1.1" width="16"
  height="16" viewBox="0 0 16 16">
  <defs>
    <clipPath id="master_svg0_993_086047">
      <rect x="0" y="0" width="16" height="16" rx="0" />
    </clipPath>
  </defs>
  <g clip-path="url(#master_svg0_993_086047)">
    <g>
      <g>
        <path
          d="M10,11.125C12.55432,11.125,14.625,9.05432,14.625,6.5C14.625,3.94568,12.55432,1.875,10,1.875C7.445679999999999,1.875,5.375,3.94568,5.375,6.5C5.375,9.05432,7.445679999999999,11.125,10,11.125ZM10,3.125C11.863959999999999,3.125,13.375,4.6360399999999995,13.375,6.5C13.375,8.363959999999999,11.863959999999999,9.875,10,9.875C8.13604,9.875,6.625,8.363959999999999,6.625,6.5C6.625,4.6360399999999995,8.13604,3.125,10,3.125Z"
          fill-rule="evenodd" fill="black" fill-opacity="1" />
      </g>
      <g
        transform="matrix(0.7350741028785706,0.677986741065979,-0.677986741065979,0.7350741028785706,7.983730706668254,0.8030343635218458)">
        <path
          d="M3.6143574212188723,10.617826521101563L5.7335004212188725,10.702787429101562C6.068670421218872,10.716225129101563,6.333460421218872,10.991847829101562,6.333460421218872,11.327285829101562C6.333460421218872,11.672464829101562,6.053640421218872,11.952284829101563,5.708460421218872,11.952284829101563C5.708460421218872,11.952284829101563,5.683420421218872,11.951784829101562,5.683420421218872,11.951784829101562L3.564283421218872,11.866824829101562C3.2291144212188723,11.853384829101563,2.964320421218872,11.577762829101562,2.964320421218872,11.242324829101562C2.964320421218872,10.897146829101562,3.2441424212188723,10.617324829101562,3.589320421218872,10.617324829101562C3.589320421218872,10.617324829101562,3.6143574212188723,10.617826521101563,3.6143574212188723,10.617826521101563Z"
          fill-rule="evenodd" fill="black" fill-opacity="1" />
      </g>
      <g
        transform="matrix(0.7350741028785706,0.677986741065979,-0.677986741065979,0.7350741028785706,7.363943854973456,-0.6116523117094061)">
        <path
          d="M7.234099173278809,9.203366502819824L5.114954173278809,9.117428958819824C5.114954173278809,9.117428958819824,5.089629173278809,9.116915702819824,5.089629173278809,9.116915702819824C4.744451173278809,9.116915702819824,4.464629173278809,9.396737702819824,4.464629173278809,9.741915702819824C4.464629173278809,10.077241702819824,4.729253173278809,10.352815702819825,5.064304173278808,10.366405702819824L7.183449173278809,10.452335702819823C7.183449173278809,10.452335702819823,7.208769173278808,10.452855702819825,7.208769173278808,10.452855702819825C7.553949173278808,10.452855702819825,7.833769173278808,10.173035702819824,7.833769173278808,9.827853702819825C7.833769173278808,9.492526702819823,7.5691491732788085,9.216953702819824,7.234099173278809,9.203366502819824Z"
          fill-rule="evenodd" fill="black" fill-opacity="1" />
      </g>
      <g
        transform="matrix(0.44721364974975586,0.8944271802902222,-0.8944271802902222,0.44721364974975586,12.494422450937293,-1.8938888240621168)">
        <path
          d="M10.995359394989013,14.468546313323975L8.982889394989014,9.549673313323975C8.886759394989014,9.314710313323975,8.658177394989014,9.161256313323975,8.404399394989014,9.161256313323975C8.059221394989013,9.161256313323975,7.779399394989014,9.441078313323974,7.779399394989014,9.786256313323975C7.779399394989014,9.867418313323974,7.795207494989014,9.947803313323975,7.825940794989013,10.022922313323974L9.838559394989014,14.942166313323975C9.934729394989013,15.177236313323974,10.163319394989013,15.330686313323975,10.417099394989014,15.330686313323975C10.762269394989014,15.330686313323975,11.042099394989014,15.050866313323976,11.042099394989014,14.705686313323975C11.042099394989014,14.624526313323974,11.026289394989014,14.544146313323974,10.995359394989013,14.468546313323975L10.995359394989013,14.468546313323975Z"
          fill-rule="evenodd" fill="black" fill-opacity="1" />
      </g>
    </g>
  </g>
</svg>