<svg xmlns="http://www.w3.org/2000/svg" xmlns:xlink="http://www.w3.org/1999/xlink" fill="none" version="1.1" width="16"
  height="16" viewBox="0 0 16 16">
  <defs>
    <clipPath id="master_svg0_674_159834">
      <rect x="0" y="0" width="16" height="16" rx="0" />
    </clipPath>
  </defs>
  <g clip-path="url(#master_svg0_674_159834)">
    <g>
      <path
        d="M14.999983821868897,6.5C14.999983821868897,9.53757,12.537583821868896,12,9.500003821868896,12C8.290893821868895,12,7.172903821868896,11.6098,6.265083821868896,10.94855L3.2181938218688964,14.1957L3.2071338218688963,14.2071C3.0118738218688965,14.4024,2.6952838218688964,14.4024,2.500023821868896,14.2071C2.309143821868896,14.0162,2.3042438218688965,13.7083,2.4889638218688965,13.5114L2.4997638218688962,13.4999L1.3296958218688966,12.3299L1.0389838218688965,12.0391L1.7460938218688966,11.332L2.0368028218688963,11.6227L3.1843738218688964,12.7703L3.7517438218688963,12.1657L2.348073821868897,10.76198L3.0553438218688966,10.05504L3.3308738218688965,10.33057L4.436033821868897,11.4364L5.512983821868897,10.28865C4.575383821868897,9.30227,4.000003821868896,7.96833,4.000003821868896,6.5C4.000003821868896,3.46243,6.462433821868896,1,9.500003821868896,1C12.537583821868896,1,14.999983821868897,3.46243,14.999983821868897,6.5ZM13.999983821868897,6.5C13.999983821868897,4.0147200000000005,11.985283821868897,2,9.500003821868896,2C7.014713821868897,2,5.000003821868896,4.0147200000000005,5.000003821868896,6.5C5.000003821868896,8.98528,7.014713821868897,11,9.500003821868896,11C11.985283821868897,11,13.999983821868897,8.98528,13.999983821868897,6.5Z"
        fill-rule="evenodd" fill="black" fill-opacity="1" />
    </g>
  </g>
</svg>