<svg xmlns="http://www.w3.org/2000/svg" xmlns:xlink="http://www.w3.org/1999/xlink" fill="none" version="1.1" width="16"
  height="16" viewBox="0 0 16 16">
  <defs>
    <clipPath id="master_svg0_105_22971">
      <rect x="0" y="0" width="16" height="16" rx="0" />
    </clipPath>
  </defs>
  <g clip-path="url(#master_svg0_105_22971)">
    <g>
      <path
        d="M13.2815,2L2.7190000000000003,2C1.907694,1.999999847412,1.2500000762939,2.6576940000000002,1.25,3.4690000000000003L1.25,11.463L1.2525,11.5495C1.2982678,12.3259,1.9412449999999999,12.932,2.7190000000000003,12.932L6.2295,12.9315L8,14.7085L9.77,12.9315L13.2815,12.9315C14.0924,12.9312,14.7497,12.2739,14.75,11.463L14.75,3.4690000000000003C14.7503,2.657579,14.0924,1.999723969,13.2815,2L13.2815,2ZM2.7190000000000003,3L13.2815,3C13.54,3,13.75,3.21,13.75,3.4690000000000003L13.75,11.463C13.75,11.722,13.54,11.932,13.281,11.932L9.355,11.932L8,13.2915L6.645,11.9315L2.7190000000000003,11.9315C2.4601699999999997,11.9315,2.25028,11.72183,2.25,11.463L2.25,3.4690000000000003C2.25,3.21,2.46,3,2.7190000000000003,3Z"
        fill="black" fill-opacity="1" />
    </g>
    <g>
      <path d="M10.5,6.75L10.5,7.75L5.5,7.75L5.5,6.75L10.5,6.75Z" fill="black" fill-opacity="1" />
    </g>
  </g>
</svg>