<svg xmlns="http://www.w3.org/2000/svg" xmlns:xlink="http://www.w3.org/1999/xlink" fill="none" version="1.1" width="16"
  height="16" viewBox="0 0 16 16">
  <g>
    <g style="opacity:0;">
      <path d="M0,0L16,0L16,16L0,16L0,0Z" fill="black" fill-opacity="1" />
    </g>
    <g>
      <g>
        <path
          d="M8,2.5C4.41015,2.5,1.5,5.41015,1.5,9C1.5,12.5899,4.41015,15.5,8,15.5C11.5899,15.5,14.5,12.5899,14.5,9C14.5,5.41015,11.5899,2.5,8,2.5ZM8,3.5C11.03757,3.5,13.5,5.9624299999999995,13.5,9C13.5,12.03757,11.03757,14.5,8,14.5C4.9624299999999995,14.5,2.5,12.03757,2.5,9C2.5,5.9624299999999995,4.9624299999999995,3.5,8,3.5Z"
          fill="black" fill-opacity="1" />
      </g>
      <g>
        <path
          d="M8,5.5C8.256418,5.5,8.467754,5.69302,8.496636,5.941689L8.5,6L8.5,9C8.5,9.27614,8.276142,9.5,8,9.5C7.743582,9.5,7.5322466,9.30698,7.50336409,9.05831L7.5,9L7.5,6C7.5,5.723858,7.723858,5.5,8,5.5Z"
          fill="black" fill-opacity="1" />
      </g>
      <g>
        <path
          d="M8,0.5C8.256418,0.5,8.467753,0.69302,8.496636,0.941689L8.5,1L8.5,2.5C8.5,2.77614,8.276142,3,8,3C7.743582,3,7.5322466,2.80698,7.50336409,2.55831L7.5,2.5L7.5,1C7.5,0.723858,7.723858,0.5,8,0.5Z"
          fill="black" fill-opacity="1" />
      </g>
      <g>
        <path
          d="M9.5,0.5C9.77614,0.5,10,0.723858,10,1C10,1.256418,9.80698,1.467754,9.55831,1.496636L9.5,1.5L6.5,1.5C6.223858,1.5,6,1.276142,6,1C6,0.743582,6.19302,0.5322464,6.441689,0.50336386L6.5,0.5L9.5,0.5Z"
          fill="black" fill-opacity="1" />
      </g>
      <g>
        <path
          d="M11.942855852844238,2.3562604669876097C12.110567852844238,2.1643043669876096,12.392608852844239,2.13139696698761,12.598567852844239,2.27037276698761L12.64836185284424,2.3087054669876097L13.522688852844238,3.07261046698761C13.730648852844238,3.25429846698761,13.751938852844239,3.57016846698761,13.570248852844237,3.7781184669876096C13.402538852844238,3.97006846698761,13.12049885284424,4.00297846698761,12.914538852844238,3.86399846698761L12.864738852844239,3.8256684669876098L11.990410852844239,3.0617654669876098C11.782458352844237,2.88007746698761,11.761167352844238,2.56421246698761,11.942855852844238,2.3562604669876097Z"
          fill="black" fill-opacity="1" />
      </g>
    </g>
  </g>
</svg>