<svg xmlns="http://www.w3.org/2000/svg" xmlns:xlink="http://www.w3.org/1999/xlink" fill="none" version="1.1" width="16"
  height="16" viewBox="0 0 16 16">
  <defs>
    <clipPath id="master_svg0_105_22860">
      <rect x="0" y="0" width="16" height="16" rx="0" />
    </clipPath>
  </defs>
  <g clip-path="url(#master_svg0_105_22860)">
    <g>
      <path
        d="M10.937746875,1.40625L5.061716875,1.40625C4.525656875,1.4060849,4.030256875,1.692005,3.762216875,2.15625L0.823719875,7.25025C0.556155775,7.7141,0.556155775,8.2854,0.823719875,8.74925L3.762216875,13.84325C4.030256875,14.30745,4.525656875,14.59345,5.061716875,14.59325L10.937746875,14.59325C11.473746875,14.59345,11.969146875,14.30745,12.237246875,13.84325L15.175746875,8.74925C15.443246875,8.2854,15.443246875,7.7141,15.175746875,7.25025L12.237246875,2.15625C11.969146875,1.692005,11.473746875,1.406084747,10.937746875,1.40625ZM5.061716875,2.40625L10.937746875,2.40625C11.116346875,2.40625,11.281446875,2.50155,11.370746875,2.65625L14.309746875,7.74975C14.399046875,7.90445,14.399046875,8.09505,14.309746875,8.249749999999999L11.370746875,13.34325C11.281446875,13.49795,11.116346875,13.59325,10.937746875,13.59325L5.061716875,13.59325C4.883096875,13.59325,4.718036875,13.49795,4.628716875,13.34325L1.689716875,8.249749999999999C1.600403875,8.09505,1.600403875,7.90445,1.689716875,7.74975L4.628716875,2.65625C4.718046875,2.50155,4.883096875,2.40625,5.061716875,2.40625Z"
        fill="black" fill-opacity="1" />
    </g>
    <g>
      <path
        d="M9.187176875,5.9433204375C8.051146875,5.2865254375,6.597749875,5.6754943375,5.941634875,6.8119234375C5.285518875,7.9483434375,5.675357675,9.4015034375,6.8121768750000005,10.0569434375C7.948026875,10.7118234375,9.399696875,10.322383437500001,10.055256875000001,9.186923437499999C10.710816874999999,8.051453437500001,10.322246875000001,6.5995604375,9.187176875,5.9433204375ZM8.687176875,6.8093434375C9.344826874999999,7.1890434375000005,9.570156875,8.0299734375,9.190456875,8.6876334375C8.810766875,9.345283437500001,7.969826875,9.5706134375,7.3121768750000005,9.1909134375C6.654526875,8.8112234375,6.429193875,7.9702834375,6.808886875,7.3126334375C7.188586875,6.6549734375,8.029526875,6.4296494375,8.687176875,6.8093434375Z"
        fill="black" fill-opacity="1" />
    </g>
  </g>
</svg>