<svg xmlns="http://www.w3.org/2000/svg" xmlns:xlink="http://www.w3.org/1999/xlink" fill="none" version="1.1" width="16"
  height="16" viewBox="0 0 16 16">
  <defs>
    <clipPath id="master_svg0_105_22923">
      <rect x="0" y="0" width="16" height="16" rx="0" />
    </clipPath>
  </defs>
  <g clip-path="url(#master_svg0_105_22923)">
    <g>
      <path
        d="M8.83085375,3.31988796875L8.00035375,4.15688796875L7.14885375,3.29738796875C5.73626375,1.89668896875,3.45551375,1.90676396875,2.05535375,3.31988796875C0.6430067500000001,4.74430796875,0.6430067500000001,7.04096796875,2.05535375,8.46538796875L5.46435375,11.90338796875L5.57285375,12.00688796875L5.55435375,11.98688796875C5.60135375,12.03888796875,5.64935375,12.09038796875,5.69935375,12.14038796875L8.00035375,14.45991796875L13.94539375,8.46488796875C15.32109375,7.07721796875,15.36169375,4.85274796875,14.03739375,3.41588796875L13.92339375,3.29788796875C12.51119375,1.89758196875,10.23117375,1.9072079687499999,8.83085375,3.31988796875L8.83085375,3.31988796875ZM13.23639375,4.02488796875L13.32139375,4.11488796875C14.26459375,5.16061796875,14.22659375,6.76106796875,13.23489375,7.76088796875L8.00035375,13.03941796875L6.41035375,11.43538796875C6.37286375,11.39783796875,6.33635375,11.35931796875,6.30085375,11.31988796875L6.26485375,11.28338796875L6.21585375,11.23738796875L6.15385375,11.17738796875L2.76635375,7.76088796875C1.74040675,6.72626796875,1.74040675,5.05799796875,2.76635375,4.02338796875C3.74331375,3.03829096875,5.32148375,2.99340796875,6.35285375,3.92138796875L6.46035375,4.02338796875L8.00035375,5.57738796875L9.54135375,4.02338796875C10.51838375,3.03797596875,12.09689375,2.9930879687500003,13.12839375,3.92138796875L13.23639375,4.02488796875L13.23639375,4.02488796875Z"
        fill="black" fill-opacity="1" />
    </g>
  </g>
</svg>