<svg xmlns="http://www.w3.org/2000/svg" xmlns:xlink="http://www.w3.org/1999/xlink" fill="none" version="1.1" width="16"
  height="16" viewBox="0 0 16 16">
  <g>
    <g style="opacity:0;">
      <path d="M0,0L16,0L16,16L0,16L0,0Z" fill="black" fill-opacity="1" />
    </g>
    <g>
      <path
        d="M4.354366101226807,1.5999879837036133L11.645706101226807,1.5999879837036133C12.170806101226807,1.5999879837036133,12.663506101226806,1.8537499837036133,12.968506101226806,2.2812389837036133L15.050506101226807,5.199547983703614C15.481106101226807,5.803207983703613,15.448506101226807,6.621857983703613,14.971206101226807,7.189337983703613L9.243566101226806,13.998387983703614C8.665846101226807,14.685187983703614,7.640766101226807,14.773587983703614,6.953966101226807,14.195887983703614C6.882586101226806,14.135887983703613,6.816506101226807,14.069787983703613,6.756466101226807,13.998387983703614L1.0288601012268066,7.189337983703613C0.5515132012268067,6.621857983703613,0.5188821012268067,5.803207983703613,0.9495481012268067,5.199547983703614L3.0315061012268067,2.2812389837036133C3.3364861012268068,1.8537499837036133,3.8292461012268064,1.5999879837036133,4.354366101226807,1.5999879837036133ZM11.645706101226807,2.5999879837036133L4.354366101226807,2.5999879837036133C4.152396101226806,2.5999879837036133,3.9628761012268066,2.697587983703613,3.845576101226807,2.862007983703613L1.7636161012268066,5.780307983703613C1.5979761012268066,6.012487983703613,1.6105261012268066,6.327357983703613,1.7941261012268066,6.545617983703614L7.521726101226807,13.354687983703613C7.544826101226807,13.382087983703613,7.570236101226807,13.407487983703612,7.597686101226807,13.430587983703614C7.861846101226806,13.652787983703613,8.256106101226806,13.618787983703614,8.478306101226806,13.354687983703613L14.205906101226807,6.545617983703614C14.389506101226807,6.327357983703613,14.402006101226807,6.012487983703613,14.236406101226807,5.780307983703613L12.154406101226806,2.862007983703613C12.037106101226806,2.697587983703613,11.847606101226807,2.5999879837036133,11.645706101226807,2.5999879837036133ZM9.849996101226807,6.424997983703613L9.849996101226807,5.424997983703613L6.149996101226806,5.424997983703613L6.149996101226806,6.424997983703613L9.849996101226807,6.424997983703613Z"
        fill-rule="evenodd" fill="black" fill-opacity="1" />
    </g>
  </g>
</svg>