<svg xmlns="http://www.w3.org/2000/svg" xmlns:xlink="http://www.w3.org/1999/xlink" fill="none" version="1.1" width="16"
  height="16" viewBox="0 0 16 16">
  <defs>
    <clipPath id="master_svg0_105_22919">
      <rect x="0" y="0" width="16" height="16" rx="0" />
    </clipPath>
  </defs>
  <g clip-path="url(#master_svg0_105_22919)">
    <g>
      <path
        d="M8.000250000000001,0.594250259C5.08325,0.594250259,2.71875,2.95825,2.71875,5.87525L2.72125,6.03025C2.7730539,7.8171,3.72553,9.45638,5.25225,10.38625L5.374750000000001,10.45875L5.375249999999999,12.25025C5.375249999999999,12.82025,5.83675,13.28175,6.406750000000001,13.28175L9.59375,13.28175L9.67075,13.27875C10.20907,13.23835,10.625250000000001,12.78995,10.625250000000001,12.25025L10.625250000000001,10.45875L10.74825,10.38625C12.32222,9.42785,13.28245,7.71805,13.28175,5.87525C13.28175,2.95825,10.91675,0.59375,8.000250000000001,0.594250259L8.000250000000001,0.594250259ZM8.000250000000001,1.59425C9.989460000000001,1.592638,11.7177,2.96144,12.17172,4.89814C12.62574,6.83484,11.68592,8.82911,9.90325,9.71175C9.73334,9.79618,9.62585,9.96951,9.62575,10.15925L9.625250000000001,12.25025C9.625250000000001,12.26765,9.61115,12.28175,9.59375,12.28175L6.40625,12.28175C6.38893,12.28175,6.374969999999999,12.26755,6.375249999999999,12.25025L6.375249999999999,10.15925C6.3750599999999995,9.9694,6.26736,9.79604,6.09725,9.71175C4.31458,8.82911,3.374757,6.83484,3.82878,4.89814C4.28281,2.96143,6.0110399999999995,1.5926369999999999,8.000250000000001,1.59425ZM10.656749999999999,14.40675L10.656749999999999,15.40675L5.344250000000001,15.40675L5.344250000000001,14.40675L10.656749999999999,14.40675Z"
        fill="black" fill-opacity="1" />
    </g>
  </g>
</svg>