<svg xmlns="http://www.w3.org/2000/svg" xmlns:xlink="http://www.w3.org/1999/xlink" fill="none" version="1.1" width="16"
  height="16" viewBox="0 0 16 16">
  <defs>
    <clipPath id="master_svg0_105_22961">
      <rect x="0" y="0" width="16" height="16" rx="0" />
    </clipPath>
  </defs>
  <g clip-path="url(#master_svg0_105_22961)">
    <g>
      <path
        d="M4.313609062499999,1.8263797025C3.4256090625,1.7848797125,2.1776120624999997,2.8428753125,1.7151120625,3.6093753125C1.1831120625,4.332875312500001,1.1986110625,5.3053853125,1.7101110625,6.4293753125C2.8731090625,9.2773753125,7.2331090625,13.6088953125,10.0851090625,14.7953953125L10.2161090625,14.8538953125C11.2131090625,15.2848953125,12.1080890625,15.2913953125,12.8310890625,14.8253953125L12.8995890625,14.7788953125L12.8815890625,14.7893953125C13.6000890625,14.3778953125,14.7065890625,13.1013953125,14.6740890625,12.1913953125C14.6440890625,11.8153853125,14.4685890625,11.5088853125,14.1965890625,11.2308853125L14.1415890625,11.1758853125C14.0918890625,11.1282153125,14.0413890625,11.0813753125,13.9900890625,11.0353853125L13.8160890625,10.8823753125L13.6245890625,10.7208753125L13.4195890625,10.5553753125L13.2055890625,10.3888753125L12.9885890625,10.2253753125C12.9160890625,10.1713753125,12.8435890625,10.1193753125,12.7725890625,10.0683753125L12.5625890625,9.9223753125C12.2200890625,9.690375312499999,11.9225890625,9.5183753125,11.7700890625,9.4868753125C11.3430890625,9.3983753125,11.0561090625,9.4793753125,10.5966090625,9.7333753125L10.4471090625,9.818375312499999C10.1321090625,9.9983753125,10.0221090625,10.0288753125,9.8756090625,9.9758753125C8.2896090625,9.3283753125,7.1711090625,8.2103753125,6.5156090625,6.6058753125C6.4726090625,6.4858753125,6.5001090625,6.3733753125,6.6541090625,6.1008753125L6.7516090625,5.9308753125C7.0041090625,5.4838753125,7.1016090625,5.1573753125,7.0131090625,4.7303753125L6.9986090625,4.6783753125C6.9511090625,4.5348753125000005,6.8196090625,4.3048753125,6.6451090625,4.0408753125L6.4861090625,3.8068753125L6.4011090625,3.6858753125L6.2211090625,3.4403753125C6.1597290625,3.3581253125,6.0975590625,3.2764553125,6.0346090625,3.1953753125L5.8476090625,2.9593753124999997L5.6656090625,2.7393793125C5.5471090625,2.5993793125,5.4356090625,2.4743793125,5.3396090625,2.3743793125L5.2686090624999995,2.3038793125C4.9911090625,2.0323793125,4.6851090625000005,1.8578796125,4.3336090625,1.8273794525L4.313609062499999,1.8263797025ZM4.2556090625,2.8248793125000002L4.2856090625,2.8298753125C4.3506090625,2.8468753125,4.4291090625,2.8923753125,4.518109062500001,2.9703753125L4.5701090625,3.0178753125C4.5991090625,3.0463753125,4.6316090625,3.0803753125,4.6671090625,3.1188753125L4.781109062500001,3.2468753125000003L4.9086090625,3.3968753124999997L5.0456090625000005,3.5638753125L5.2596090625,3.8328753125L5.4716090625,4.1088753125L5.6051090625,4.2873753125L5.7831090625,4.5333753125000005L5.8816090625,4.6753753125C5.8966090625,4.6968753125,5.9101090625,4.7178753125,5.9231090625,4.7373753125L5.9881090625,4.8403753125C6.0073590625,4.8691053125,6.0228190625,4.9001953125,6.0341090625,4.9328753125C6.0611090625,5.0628753125,6.0246090625,5.1838753125,5.8821090625,5.4358753125L5.7851090625,5.6058753125C5.4996090625,6.1103753125,5.4081090625,6.4823853125,5.5826090625,6.9648753125C6.3476090625,8.8368753125,7.6631090625,10.1523753125,9.5161090625,10.9083753125C10.0031090625,11.0853753125,10.3466090625,11.0118753125,10.8371090625,10.7453753125L11.1311090625,10.5803753125C11.3480890625,10.4643753125,11.4490890625,10.4403753125,11.5660890625,10.4653753125L11.5835890625,10.4708753125L11.6385890625,10.4993753125L11.7180890625,10.5478753125L11.8755890625,10.6528753125L12.0010890625,10.7413753125L12.2125890625,10.8948753125L12.5200890625,11.1263753125L12.6980890625,11.2643753125L12.9155890625,11.4368753125C12.9505890625,11.4653753125,12.9855890625,11.4933753125,13.0190890625,11.5213753125L13.2110890625,11.6823753125C13.3005890625,11.7588753125,13.3790890625,11.8298953125,13.4420890625,11.8903953125L13.4870890625,11.9348953125C13.6055890625,12.0563953125,13.6695890625,12.1683953125,13.6760890625,12.2498953125C13.6825890625,12.4433953125,13.4840890625,12.8138953125,13.1335890625,13.2183953125C13.0945890625,13.2633953125,13.0535890625,13.3083953125,13.0120890625,13.3533953125L12.8855890625,13.4838953125L12.8220890625,13.5468953125L12.6990890625,13.6633953125L12.5860890625,13.7648953125L12.4885890625,13.8463953125L12.4125890625,13.9033953125L12.3420890625,13.9483953125C11.9255890625,14.2468953125,11.3640890625,14.2573953125,10.6146090625,13.9363953125L10.4881090625,13.8798953125C9.2436090625,13.3618953125,7.6546090625,12.1608953125,6.2131090625,10.7623753125L5.8951090625,10.4488753125C4.4776090625,9.0238753125,3.2446090625,7.4363753125,2.6876090625,6.1723753125L2.6286090625,6.0328753125C2.2446100625,5.1888753125000004,2.2351100625,4.5883753125,2.5471090624999997,4.162875312500001C2.8496090625,3.6638753125,3.7691090625,2.8743753125,4.2121090625,2.8268753125L4.2556090625,2.8248793125000002ZM9.7226090625,1.9903793125C12.3609890625,2.2833513125,14.4446890625,4.3643953125,14.7410890625,7.0023753125C14.7787890625,7.2804653125,14.5802890625,7.5351053125,14.3013890625,7.5664053125C14.0224890625,7.5977053125,13.7724890625,7.3934053125,13.7475890625,7.1138753125C13.5034890625,4.9401953125,11.7865890625,3.2253553125,9.6126090625,2.9838753125C9.3509990625,2.9529653125,9.158249062500001,2.7243593125,9.1719690625,2.4612793125C9.1856990625,2.1981993125,9.4011990625,1.9909003125,9.6646090625,1.9873803125L9.7226090625,1.9903793125Z"
        fill="black" fill-opacity="1" />
    </g>
    <g>
      <path
        d="M9.1767218,4.69487534375C9.22960145,4.42384034375,9.49218775,4.24699154375,9.76322175,4.29987548375C11.11337875,4.56270034375,12.16914875,5.61826734375,12.43221875,6.968377343749999C12.48509875,7.23940734375,12.30825875,7.50199734375,12.037218750000001,7.55487734375C11.76618875,7.60775734375,11.50359875,7.43090734375,11.45071875,7.15987734375C11.26585875,6.2093173437499996,10.52272875,5.46598734375,9.57222275,5.28087534375C9.30142175,5.22798734375,9.12464845,4.96573634375,9.1767218,4.69487534375L9.1767218,4.69487534375Z"
        fill="black" fill-opacity="1" />
    </g>
  </g>
</svg>