<svg xmlns="http://www.w3.org/2000/svg" xmlns:xlink="http://www.w3.org/1999/xlink" fill="none" version="1.1" width="16"
  height="16" viewBox="0 0 16 16">
  <defs>
    <clipPath id="master_svg0_1181_122416">
      <rect x="0" y="0" width="16" height="16" rx="0" />
    </clipPath>
  </defs>
  <g clip-path="url(#master_svg0_1181_122416)">
    <g>
      <path
        d="M5.5,6.125C4.54391,6.125,3.73529,5.49358,3.4684,4.625L2.5,4.625C2.1548220000000002,4.625,1.875,4.34518,1.875,4C1.875,3.65482,2.1548220000000002,3.375,2.5,3.375L3.4684,3.375C3.73529,2.5064159999999998,4.54391,1.875,5.5,1.875C6.45609,1.875,7.26471,2.5064159999999998,7.5316,3.375L13.5,3.375C13.8452,3.375,14.125,3.65482,14.125,4C14.125,4.34518,13.8452,4.625,13.5,4.625L7.5316,4.625C7.26471,5.49358,6.45609,6.125,5.5,6.125ZM5.5,3.125C5.98325,3.125,6.375,3.51675,6.375,4C6.375,4.48325,5.98325,4.875,5.5,4.875C5.01675,4.875,4.625,4.48325,4.625,4C4.625,3.51675,5.01675,3.125,5.5,3.125ZM8.468399999999999,7.375L2.5,7.375C2.1548220000000002,7.375,1.875,7.65482,1.875,8C1.875,8.34518,2.1548220000000002,8.625,2.5,8.625L8.468399999999999,8.625C8.735289999999999,9.49358,9.54391,10.125,10.5,10.125C11.45609,10.125,12.2647,9.49358,12.5316,8.625L13.5,8.625C13.8452,8.625,14.125,8.34518,14.125,8C14.125,7.65482,13.8452,7.375,13.5,7.375L12.5316,7.375C12.2647,6.50642,11.45609,5.875,10.5,5.875C9.54391,5.875,8.735289999999999,6.50642,8.468399999999999,7.375ZM11.375,8C11.375,7.51675,10.98325,7.125,10.5,7.125C10.01675,7.125,9.625,7.51675,9.625,8C9.625,8.48325,10.01675,8.875,10.5,8.875C10.98325,8.875,11.375,8.48325,11.375,8ZM3.4684,11.375L2.5,11.375C2.1548220000000002,11.375,1.875,11.65482,1.875,12C1.875,12.3452,2.1548220000000002,12.625,2.5,12.625L3.4684,12.625C3.73529,13.4936,4.54391,14.125,5.5,14.125C6.45609,14.125,7.26471,13.4936,7.5316,12.625L13.5,12.625C13.8452,12.625,14.125,12.3452,14.125,12C14.125,11.65482,13.8452,11.375,13.5,11.375L7.5316,11.375C7.26471,10.50642,6.45609,9.875,5.5,9.875C4.54391,9.875,3.73529,10.50642,3.4684,11.375ZM6.375,12C6.375,11.51675,5.98325,11.125,5.5,11.125C5.01675,11.125,4.625,11.51675,4.625,12C4.625,12.4832,5.01675,12.875,5.5,12.875C5.98325,12.875,6.375,12.4832,6.375,12Z"
        fill-rule="evenodd" fill="black" fill-opacity="1" />
    </g>
  </g>
</svg>