<svg xmlns="http://www.w3.org/2000/svg" xmlns:xlink="http://www.w3.org/1999/xlink" fill="none" version="1.1" width="16"
  height="16" viewBox="0 0 16 16">
  <defs>
    <clipPath id="master_svg0_105_23008">
      <rect x="0" y="0" width="16" height="16" rx="0" />
    </clipPath>
  </defs>
  <g clip-path="url(#master_svg0_105_23008)">
    <g>
      <path
        d="M6.99999828125,0.75L8.99999828125,0.75C9.82842828125,0.75,10.49999828125,1.421573,10.49999828125,2.25L10.49999828125,2.75L13.99998828125,2.75C14.26448828125,2.7503,14.48298828125,2.95661,14.49848828125,3.2207C14.51398828125,3.48479,14.32118828125,3.71525,14.05848828125,3.7465L13.99998828125,3.75L1.9999472812499999,3.75C1.73540028125,3.74971,1.5168641812499999,3.54339,1.50136062625,3.2793C1.48585678125,3.01521,1.67875128125,2.78475,1.9414472812499999,2.7535L1.9999472812499999,2.75L5.49999828125,2.75L5.49999828125,2.25C5.49999828125,1.421573,6.17156828125,0.75,6.99999828125,0.75ZM6.49999828125,2.75L9.49999828125,2.75L9.49999828125,2.25C9.49999828125,1.99655,9.31027828125,1.7832,9.05849828125,1.7535L8.99999828125,1.75L6.99999828125,1.75C6.72385828125,1.75,6.49999828125,1.97386,6.49999828125,2.25L6.49999828125,2.75ZM13.49918828125,4.96823C13.48298828125,4.71511,13.27988828125,4.51416,13.02668828125,4.50073C12.75078828125,4.48598,12.51518828125,4.6978100000000005,12.50068828125,4.97373L12.05068828125,13.5267L12.04468828125,13.5827C12.00428828125,13.8238,11.79558828125,14.0004,11.55118828125,14.0002L4.44915828125,14.0002L4.39265828125,13.9967C4.15003828125,13.9692,3.96275828125,13.7705,3.94965828125,13.5267L3.49965828125,4.97373L3.49315828125,4.91573C3.4479982812500003,4.655139999999999,3.20772828125,4.4747900000000005,2.94489828125,4.5042C2.6820682812500003,4.5336099999999995,2.48760128125,4.76261,2.50115828125,5.02673L2.9511582812499997,13.5792L2.9581582812500002,13.6667C3.0429682812500003,14.4261,3.68505828125,15.0004,4.44915828125,15.0002L11.55118828125,15.0002L11.63918828125,14.9977C12.40178828125,14.9529,13.00898828125,14.3421,13.04918828125,13.5792L13.49918828125,5.02673L13.49918828125,4.96823ZM6.99999828125,11L6.99999828125,7L5.99999828125,7L5.99999828125,11L6.99999828125,11ZM9.99999828125,11L9.99999828125,7L8.99999828125,7L8.99999828125,11L9.99999828125,11Z"
        fill-rule="evenodd" fill="black" fill-opacity="1" />
    </g>
  </g>
</svg>