<svg xmlns="http://www.w3.org/2000/svg" xmlns:xlink="http://www.w3.org/1999/xlink" fill="none" version="1.1" width="16"
  height="16" viewBox="0 0 16 16">
  <g>
    <g>
      <g>
        <path
          d="M13,9.5C13.2564,9.5,13.4678,9.69302,13.4966,9.94169L13.5,10L13.5,13.5C13.5,13.7761,13.2761,14,13,14C12.7436,14,12.5322,13.807,12.5034,13.5583L12.5,13.5L12.5,10C12.5,9.72386,12.7239,9.5,13,9.5ZM3,5.5C3.256418,5.5,3.4677540000000002,5.69302,3.496636,5.94169L3.5,6L3.5,13.5C3.5,13.7761,3.276142,14,3,14C2.743582,14,2.5322464,13.807,2.50336385,13.5583L2.5,13.5L2.5,6C2.5,5.72386,2.723858,5.5,3,5.5ZM8,1.5C8.25642,1.5,8.467749999999999,1.69302,8.49664,1.941689L8.5,2L8.5,13.5C8.5,13.7761,8.27614,14,8,14C7.74358,14,7.53225,13.807,7.50336,13.5583L7.5,13.5L7.5,2C7.5,1.723858,7.72386,1.5,8,1.5Z"
          fill="black" fill-opacity="1" />
      </g>
    </g>
  </g>
</svg>