<svg xmlns="http://www.w3.org/2000/svg" xmlns:xlink="http://www.w3.org/1999/xlink" fill="none" version="1.1" width="16"
  height="16" viewBox="0 0 16 16">
  <g>
    <g style="opacity:0;">
      <path d="M0,0L16,0L16,16L0,16L0,0Z" fill="black" fill-opacity="1" />
    </g>
    <g>
      <g transform="matrix(-1,-1.2246468525851679e-16,1.2246468525851679e-16,-1,25.5,30)">
        <path
          d="M21.23535,15L13.76465,15C13.204274,15,12.75,15.454274,12.75,16.01465L12.75,17.66056L12.7537795,17.799599999999998C12.781437,18.30792,12.96024,18.797629999999998,13.268832,19.20515L15.385,21.99952L13.268832,24.79485C12.932186,25.2394,12.75,25.7818,12.75,26.339399999999998L12.75,27.9854C12.75,28.5457,13.204274,29,13.76465,29L21.23535,29C21.79573,29,22.25,28.5457,22.25,27.9854L22.25,26.3407L22.246769999999998,26.2121C22.220950000000002,25.6991,22.04119,25.2046,21.729419999999998,24.79384L19.6015,21.99052L21.72534,19.2085C22.06566,18.76258,22.25,18.21719,22.25,17.65624L22.25,16.01465C22.25,15.454274,21.79573,15,21.23535,15ZM13.76465,16L21.23535,16C21.24344,16,21.25,16.00656,21.25,16.01465L21.25,17.65624C21.25,17.99795,21.13771,18.33018,20.9304,18.60182L18.6949,21.531019999999998C18.48829,21.80174,18.48779,22.17708,18.69369,22.448349999999998L20.93288,25.398400000000002C21.13863,25.6695,21.25,26.0004,21.25,26.3407L21.25,27.9854C21.25,27.9934,21.24344,28,21.23535,28L13.76465,28C13.75656,28,13.75,27.9934,13.75,27.9854L13.75,26.339399999999998C13.75,25.9997,13.86098,25.6694,14.06605,25.3985L16.29337,22.45719C16.49813,22.186790000000002,16.49813,21.813209999999998,16.29337,21.54281L14.06605,18.60146C13.86098,18.33065,13.75,18.00025,13.75,17.66056L13.75,16.01465C13.75,16.00656,13.75656,16,13.76465,16Z"
          fill="black" fill-opacity="1" />
      </g>
      <g>
        <path d="M10,12L10,13L6,13L6,12L10,12Z" fill="black" fill-opacity="1" />
      </g>
    </g>
  </g>
</svg>