<svg xmlns="http://www.w3.org/2000/svg" xmlns:xlink="http://www.w3.org/1999/xlink" fill="none" version="1.1" width="16"
  height="16" viewBox="0 0 16 16">
  <defs>
    <clipPath id="master_svg0_484_67408">
      <rect x="0" y="0" width="16" height="16" rx="0" />
    </clipPath>
  </defs>
  <g clip-path="url(#master_svg0_484_67408)">
    <g>
      <path
        d="M10,6.5C10.82843,6.5,11.5,5.82843,11.5,5C11.5,4.171573,10.82843,3.5,10,3.5C9.171573,3.5,8.5,4.171573,8.5,5C8.5,5.82843,9.171573,6.5,10,6.5ZM10,4.5C10.27614,4.5,10.5,4.72386,10.5,5C10.5,5.27614,10.27614,5.5,10,5.5C9.72386,5.5,9.5,5.27614,9.5,5C9.5,4.72386,9.72386,4.5,10,4.5Z"
        fill-rule="evenodd" fill="black" fill-opacity="1" />
    </g>
    <g>
      <path
        d="M6,12.5C6.82843,12.5,7.5,11.82843,7.5,11C7.5,10.171573,6.82843,9.5,6,9.5C5.171573,9.5,4.5,10.171573,4.5,11C4.5,11.82843,5.171573,12.5,6,12.5ZM6,10.5C6.27614,10.5,6.5,10.72386,6.5,11C6.5,11.27614,6.27614,11.5,6,11.5C5.72386,11.5,5.5,11.27614,5.5,11C5.5,10.72386,5.72386,10.5,6,10.5Z"
        fill-rule="evenodd" fill="black" fill-opacity="1" />
    </g>
    <g>
      <path
        d="M7,10.5L9.5,10.5Q9.91421,10.5,10.20711,10.20711Q10.5,9.91421,10.5,9.5Q10.5,9.08579,10.20711,8.79289Q9.91421,8.5,9.5,8.5L6.35211,8.5Q5.58494,8.5,5.042471,7.95753Q4.5000000596046,7.41506,4.5,6.64789L4.500000119209,6.5Q4.500000119209,5.67157,5.085787,5.085787Q5.67157,4.5000000596046,6.5,4.5L9.5,4.500000178814L9.5,5.5L6.5,5.5Q6.08579,5.5,5.79289,5.79289Q5.5,6.08579,5.5,6.5L5.5,6.64789Q5.5,7.00084,5.74958,7.25042Q5.99916,7.5,6.35211,7.5L9.5,7.5Q10.32843,7.5,10.91421,8.08579Q11.5,8.67157,11.5,9.5Q11.5,10.32843,10.91421,10.91421Q10.32843,11.5,9.5,11.5L7,11.5L7,10.5Z"
        fill-rule="evenodd" fill="black" fill-opacity="1" />
    </g>
    <g>
      <path
        d="M1.5,12.5L1.5,3.5C1.5,2.39543,2.39543,1.5,3.5,1.5L12.5,1.5C13.6046,1.5,14.5,2.39543,14.5,3.5L14.5,12.5C14.5,13.6046,13.6046,14.5,12.5,14.5L3.5,14.5C2.39543,14.5,1.5,13.6046,1.5,12.5ZM2.5,12.5Q2.5,12.9142,2.79289,13.2071Q3.0857900000000003,13.5,3.5,13.5L12.5,13.5Q12.9142,13.5,13.2071,13.2071Q13.5,12.9142,13.5,12.5L13.5,3.5Q13.5,3.0857900000000003,13.2071,2.79289Q12.9142,2.5,12.5,2.5L3.5,2.5Q3.0857900000000003,2.5,2.79289,2.79289Q2.5,3.0857900000000003,2.5,3.5L2.5,12.5Z"
        fill-rule="evenodd" fill="black" fill-opacity="1" />
    </g>
  </g>
</svg>