<svg xmlns="http://www.w3.org/2000/svg" xmlns:xlink="http://www.w3.org/1999/xlink" fill="none" version="1.1" width="16"
  height="16" viewBox="0 0 16 16">
  <defs>
    <clipPath id="master_svg0_105_22913">
      <rect x="0" y="0" width="16" height="16" rx="0" />
    </clipPath>
  </defs>
  <g clip-path="url(#master_svg0_105_22913)">
    <g>
      <path
        d="M8,0.5C9.026,0.5,9.981,0.9450000000000001,10.6415,1.7035C10.88812,1.98692,11.0875,2.3082000000000003,11.232,2.655L11.2905,2.805L10.3505,3.1465C10.24563,2.85809,10.0885,2.59147,9.887,2.3600000000000003C9.21584,1.58738,8.141539999999999,1.3018610000000002,7.17535,1.63931C6.20916,1.97676,5.54621,2.86903,5.502,3.8915L5.5,4L5.5,5.5L4.5,5.5L4.5,4C4.499999389648,2.067,6.067,0.499999885559,8,0.5Z"
        fill="black" fill-opacity="1" />
    </g>
    <g>
      <path
        d="M12.5,5L3.5,5C2.671573,5.000000305176,2.000000152588,5.671573,2,6.5L2,14C2.000000152588,14.82843,2.671573,15.5,3.5,15.5L12.5,15.5C13.3284,15.5,14,14.82843,14,14L14,6.5C14,5.671573,13.3284,5.000000305176,12.5,5ZM3.5,6L12.5,6C12.7761,6,13,6.22386,13,6.5L13,14C13,14.27614,12.7761,14.5,12.5,14.5L3.5,14.5C3.22386,14.5,3,14.27614,3,14L3,6.5C3,6.22386,3.22386,6,3.5,6Z"
        fill="black" fill-opacity="1" />
    </g>
    <g>
      <path d="M8.5,9L8.5,11.5L7.5,11.5L7.5,9L8.5,9Z" fill="black" fill-opacity="1" />
    </g>
  </g>
</svg>