<svg xmlns="http://www.w3.org/2000/svg" xmlns:xlink="http://www.w3.org/1999/xlink" fill="none" version="1.1" width="16"
  height="16" viewBox="0 0 16 16">
  <defs>
    <clipPath id="master_svg0_1181_122315">
      <rect x="0" y="0" width="16" height="16" rx="0" />
    </clipPath>
  </defs>
  <g clip-path="url(#master_svg0_1181_122315)">
    <g>
      <path
        d="M1.375,4L1.375,6C1.375,6.34518,1.654822,6.625,2,6.625C2.3451779999999998,6.625,2.625,6.34518,2.625,6L2.625,4Q2.625,3.43046,3.02773,3.02773Q3.43046,2.625,4,2.625L12,2.625Q12.5695,2.625,12.9723,3.02773Q13.375,3.43046,13.375,4L13.375,12Q13.375,12.5695,12.9723,12.9723Q12.5695,13.375,12,13.375L4,13.375Q3.43046,13.375,3.02773,12.9723Q2.625,12.5695,2.625,12L2.625,11L2.625,10C2.625,9.65482,2.3451779999999998,9.375,2,9.375C1.654822,9.375,1.375,9.65482,1.375,10L1.375,12Q1.375,13.0873,2.143845,13.8562Q2.91269,14.625,4,14.625L12,14.625Q13.0873,14.625,13.8562,13.8562Q14.625,13.0873,14.625,12L14.625,4Q14.625,2.91269,13.8562,2.143845Q13.0873,1.375,12,1.375L4,1.375Q2.91269,1.375,2.143845,2.143845Q1.375,2.91269,1.375,4ZM10.44194,7.55806L8.441939999999999,5.55806C8.324729999999999,5.44085,8.165759999999999,5.375,8,5.375C7.65482,5.375,7.375,5.65482,7.375,6C7.375,6.16576,7.44085,6.32473,7.55806,6.44194L8.491119999999999,7.375L4,7.375C3.65482,7.375,3.375,7.65482,3.375,8C3.375,8.34518,3.65482,8.625,4,8.625L8.491119999999999,8.625L7.55806,9.55806C7.44085,9.67527,7.375,9.83424,7.375,10C7.375,10.34518,7.65482,10.625,8,10.625C8.165759999999999,10.625,8.324729999999999,10.55915,8.441939999999999,10.44194L10.44194,8.441939999999999Q10.44537,8.43851,10.44875,8.435030000000001C10.55785,8.322510000000001,10.625,8.1691,10.625,8C10.625,7.8309,10.55785,7.67749,10.44875,7.56497C10.4465,7.56265,10.44423,7.56035,10.44194,7.55806Z"
        fill-rule="evenodd" fill="black" fill-opacity="1" />
    </g>
  </g>
</svg>