<svg xmlns="http://www.w3.org/2000/svg" xmlns:xlink="http://www.w3.org/1999/xlink" fill="none" version="1.1" width="16"
  height="16" viewBox="0 0 16 16">
  <defs>
    <clipPath id="master_svg0_674_139915">
      <rect x="0" y="0" width="16" height="16" rx="0" />
    </clipPath>
  </defs>
  <g clip-path="url(#master_svg0_674_139915)">
    <g>
      <path
        d="M7.5,2Q7.41743,2,7.33598,2.013543Q7.25453,2.027086,7.1764,2.0538051Q7.09828,2.0805243,7.02559,2.119696Q6.9529,2.158868,6.88763,2.209431Q6.82235,2.259994,6.76625,2.320579Q6.71015,2.381164,6.66475,2.450129Q6.61935,2.519095,6.58587,2.594574Q6.5524,2.6700530000000002,6.53175,2.75L2.5,2.75L2.5,4L13.5,4L13.5,2.75L9.468250000000001,2.75Q9.447600000000001,2.6700530000000002,9.41413,2.594574Q9.38065,2.519095,9.33525,2.450129Q9.289850000000001,2.381164,9.23375,2.320579Q9.17765,2.259994,9.11237,2.209431Q9.0471,2.158868,8.974409999999999,2.119696Q8.901720000000001,2.0805243,8.823599999999999,2.0538051Q8.745470000000001,2.027086,8.66402,2.013543Q8.58257,2,8.5,2L7.5,2ZM2.879771,5.07747L2.870087,5L4.1298200000000005,5L4.90113,11.17049Q4.9656400000000005,11.68656,5.35553,12.0308Q5.74543,12.3749,6.26551,12.3749L9.73438,12.3749Q10.25446,12.3749,10.64436,12.0308Q11.03425,11.68656,11.09876,11.17049L11.87007,5L13.1298,5L13.1201,5.07747L12.33911,11.32554Q12.21596,12.3108,11.47161,12.9678Q10.72727,13.6249,9.73438,13.6249L6.26551,13.6249Q5.27262,13.6249,4.5282800000000005,12.9679Q3.78393,12.3108,3.66078,11.32554L2.879771,5.07747ZM8.600100000000001,6L8.600100000000001,10L7.3501,10L7.3501,6L8.600100000000001,6Z"
        fill-rule="evenodd" fill="black" fill-opacity="1" />
    </g>
  </g>
</svg>