<svg xmlns="http://www.w3.org/2000/svg" xmlns:xlink="http://www.w3.org/1999/xlink" fill="none" version="1.1" width="16"
  height="16" viewBox="0 0 16 16">
  <defs>
    <clipPath id="master_svg0_105_22815">
      <rect x="0" y="0" width="16" height="16" rx="0" />
    </clipPath>
  </defs>
  <g clip-path="url(#master_svg0_105_22815)">
    <g>
      <path
        d="M14.4975,2.912C14.4509,2.119089,13.7943,1.4999562073,13,1.5L3,1.5L2.912,1.5025C2.11909,1.549097,1.4999559021,2.205721,1.5,3L1.5,5.75L2.5,5.75L2.5,3L2.5035,2.9415C2.53316,2.68975,2.74651,2.5000299999999998,3,2.5L13,2.5L13.0585,2.5035C13.3102,2.53316,13.5,2.74651,13.5,3L13.5,13L13.4965,13.0585C13.4668,13.3102,13.2535,13.5,13,13.5L3,13.5L2.9415,13.4965C2.68975,13.4668,2.5000299999999998,13.2535,2.5,13L2.5,10.25L1.5,10.25L1.5,13L1.5025,13.088C1.5490973,13.8809,2.205721,14.5,3,14.5L13,14.5L13.088,14.4975C13.8809,14.4509,14.5,13.7943,14.5,13L14.5,3L14.4975,2.912ZM10.06138,7.5785C10.24077,7.75777,10.25753,8.042950000000001,10.10038,8.242L10.06138,8.285499999999999L7.73288,10.614L7.02588,9.907L8.49929,8.433589999999999L1.5,8.433589999999999L1.5,7.43359L8.502469999999999,7.43359L7.02588,5.957L7.73288,5.25L10.06138,7.5785Z"
        fill-rule="evenodd" fill="black" fill-opacity="1" />
    </g>
  </g>
</svg>