<svg xmlns="http://www.w3.org/2000/svg" xmlns:xlink="http://www.w3.org/1999/xlink" fill="none" version="1.1" width="16"
  height="16" viewBox="0 0 16 16">
  <g>
    <g>
      <g>
        <path
          d="M9.876470000000001,4.5C12.15003,4.5,14,6.28691,14,8.5C14,10.67211,12.21791,12.43367,10.00233,12.49817L9.876470000000001,12.5L4.7,12.5L4.7,11.5L9.876470000000001,11.5C11.60535,11.5,13,10.152899999999999,13,8.5C13,6.88383,11.66665,5.56002,9.99122,5.50198L9.876470000000001,5.5L2.5,5.5L2.5,4.5L9.876470000000001,4.5Z"
          fill="black" fill-opacity="1" />
      </g>
      <g
        transform="matrix(-0.7071067690849304,-0.7071067690849304,0.7071067690849304,-0.7071067690849304,2.382800949337991,16.354910134911904)">
        <path
          d="M7.87150328125,7.683960914611816C8.12792328125,7.683960914611816,8.33926328125,7.876980914611816,8.36814328125,8.125649914611817L8.37150328125,8.183960914611816L8.37150328125,11.476850914611816L7.37150328125,11.476850914611816L7.37113328125,8.683480914611817L4.57861328125,8.683960914611816L4.57861328125,7.683960914611816L7.87150328125,7.683960914611816Z"
          fill="black" fill-opacity="1" />
      </g>
    </g>
  </g>
</svg>