<svg xmlns="http://www.w3.org/2000/svg" xmlns:xlink="http://www.w3.org/1999/xlink" fill="none" version="1.1" width="16"
  height="16" viewBox="0 0 16 16">
  <defs>
    <clipPath id="master_svg0_105_22882">
      <rect x="0" y="0" width="16" height="16" rx="0" />
    </clipPath>
  </defs>
  <g clip-path="url(#master_svg0_105_22882)">
    <g>
      <path
        d="M8.4683828125,0.77062053125C8.1783228125,0.60315243125,7.8209428125,0.60315243125,7.5308828125,0.77062053125L1.5048828125,4.25011953125L1.5048828125,11.20861953125C1.5048828125,11.54361953125,1.6833828125,11.85361953125,1.9733828125000001,12.02061953125L7.9998828125,15.50011953125L14.0263828125,12.02061953125C14.3163828125,11.85311953125,14.4948828125,11.54361953125,14.4948828125,11.20861953125L14.4948828125,4.25011953125L8.4683828125,0.77062053125ZM3.0038828125,4.53861953125L7.9998828125,1.65411953125L12.9948828125,4.53861953125L7.9988828125,7.42211953125L3.0038828125,4.53861953125ZM13.4948828125,5.40511953125L13.4948828125,11.17211953125L8.499882812500001,14.05561953125L8.499882812500001,8.28861953125L13.4948828125,5.40511953125ZM7.4998828125,14.05511953125L2.5038828125,11.17211953125L2.5038828125,5.40411953125L7.4998828125,8.28911953125L7.4998828125,14.05511953125Z"
        fill="black" fill-opacity="1" />
    </g>
  </g>
</svg>