<svg xmlns="http://www.w3.org/2000/svg" xmlns:xlink="http://www.w3.org/1999/xlink" fill="none" version="1.1" width="16"
  height="16" viewBox="0 0 16 16">
  <defs>
    <clipPath id="master_svg0_993_099898">
      <rect x="0" y="0" width="16" height="16" rx="0" />
    </clipPath>
  </defs>
  <g clip-path="url(#master_svg0_993_099898)">
    <g>
      <path
        d="M0.9999837875366211,3.0000061988830566L0.9999837875366211,13.000006198883057C0.9999837875366211,14.104606198883056,1.895414787536621,15.000006198883057,2.999983787536621,15.000006198883057L12.999983787536621,15.000006198883057C14.10458378753662,15.000006198883057,14.999983787536621,14.104606198883056,14.999983787536621,13.000006198883057L14.999983787536621,3.0000061988830566C14.999983787536621,1.8954371988830565,14.10458378753662,1.0000061988830566,12.999983787536621,1.0000061988830566L2.999983787536621,1.0000061988830566C1.895414787536621,1.0000061988830566,0.9999837875366211,1.8954371988830565,0.9999837875366211,3.0000061988830566ZM2.292873787536621,13.707106198883057Q1.999983787536621,13.414206198883056,1.999983787536621,13.000006198883057L1.999983787536621,3.0000061988830566Q1.999983787536621,2.585796198883057,2.292873787536621,2.2928961988830565Q2.5857737875366213,2.0000061988830566,2.999983787536621,2.0000061988830566L12.999983787536621,2.0000061988830566Q13.41418378753662,2.0000061988830566,13.707083787536622,2.2928961988830565Q13.999983787536621,2.585796198883057,13.999983787536621,3.0000061988830566L13.999983787536621,13.000006198883057Q13.999983787536621,13.414206198883056,13.707083787536622,13.707106198883057Q13.41418378753662,14.000006198883057,12.999983787536621,14.000006198883057L2.999983787536621,14.000006198883057Q2.5857737875366213,14.000006198883057,2.292873787536621,13.707106198883057ZM4.060873787536622,8.353836198883057L5.8535537875366215,10.146516198883056L5.146453787536621,10.853626198883056L3.353763787536621,9.060936198883057Q2.914423787536621,8.621596198883058,2.914423787536621,8.000276198883057Q2.914423787536621,7.378956198883056,3.353763787536621,6.939616198883057L5.1471437875366215,5.146246198883056L5.854243787536621,5.8533561988830565L4.060873787536622,7.646726198883057Q3.914423787536621,7.793176198883057,3.914423787536621,8.000276198883057Q3.914423787536621,8.207386198883057,4.060873787536622,8.353836198883057ZM11.93928378753662,8.353776198883057L10.146943787536621,10.146106198883057L10.854043787536622,10.853216198883057L12.646383787536621,9.060876198883056Q13.08568378753662,8.621536198883057,13.08568378753662,8.000216198883056Q13.08568378753662,7.378896198883057,12.646383787536621,6.939556198883056L10.85350378753662,5.146676198883057L10.14639378753662,5.853776198883057L11.93928378753662,7.646666198883056Q12.08568378753662,7.793116198883057,12.08568378753662,8.000216198883056Q12.08568378753662,8.207326198883056,11.93928378753662,8.353776198883057ZM8.536083787536622,5.314096198883057L6.536073787536621,10.314246198883056L7.464543787536621,10.685626198883057L9.46456378753662,5.685476198883056L8.536083787536622,5.314096198883057Z"
        fill-rule="evenodd" fill="black" fill-opacity="1" />
    </g>
  </g>
</svg>