<svg xmlns="http://www.w3.org/2000/svg" xmlns:xlink="http://www.w3.org/1999/xlink" fill="none" version="1.1" width="16"
  height="16" viewBox="0 0 16 16">
  <defs>
    <clipPath id="master_svg0_615_013870">
      <rect x="0" y="0" width="16" height="16" rx="0" />
    </clipPath>
  </defs>
  <g clip-path="url(#master_svg0_615_013870)">
    <g>
      <path
        d="M0.9999785423278809,4.500012159347534L0.9999785423278809,11.500012159347534C0.9999785423278809,12.604612159347534,1.8954095423278807,13.500012159347534,2.999978542327881,13.500012159347534L12.99997854232788,13.500012159347534C14.10457854232788,13.500012159347534,14.99997854232788,12.604612159347534,14.99997854232788,11.500012159347534L14.99997854232788,4.500012159347534C14.99997854232788,3.395443159347534,14.10457854232788,2.500012159347534,12.99997854232788,2.500012159347534L2.999978542327881,2.500012159347534C1.8954095423278807,2.500012159347534,0.9999785423278809,3.395443159347534,0.9999785423278809,4.500012159347534ZM2.2928685423278807,12.207122159347534Q1.9999785423278809,11.914222159347535,1.9999785423278809,11.500012159347534L1.9999785423278809,4.500012159347534Q1.9999785423278809,4.085802159347534,2.2928685423278807,3.792902159347534Q2.585768542327881,3.500012159347534,2.999978542327881,3.500012159347534L12.99997854232788,3.500012159347534Q13.41417854232788,3.500012159347534,13.707078542327881,3.792902159347534Q13.99997854232788,4.085802159347534,13.99997854232788,4.500012159347534L13.99997854232788,11.500012159347534Q13.99997854232788,11.914222159347535,13.707078542327881,12.207122159347534Q13.41417854232788,12.500012159347534,12.99997854232788,12.500012159347534L2.999978542327881,12.500012159347534Q2.585768542327881,12.500012159347534,2.2928685423278807,12.207122159347534ZM8.85388854232788,9.273372159347534L12.436478542327881,5.813282159347534L11.74177854232788,5.093982159347535L8.15918854232788,8.554072159347534Q8.038528542327882,8.670602159347535,7.8707885423278805,8.669142159347533Q7.703058542327881,8.667682159347535,7.5844485423278805,8.549072159347535L4.135448542327881,5.100072159347534L3.428338542327881,5.807182159347534L6.877338542327881,9.256182159347535Q7.2852485423278805,9.664092159347534,7.862098542327881,9.669102159347535Q8.43893854232788,9.674122159347533,8.85388854232788,9.273372159347534Z"
        fill-rule="evenodd" fill="black" fill-opacity="1" />
    </g>
  </g>
</svg>