<svg xmlns="http://www.w3.org/2000/svg" xmlns:xlink="http://www.w3.org/1999/xlink" fill="none" version="1.1" width="16"
  height="16" viewBox="0 0 16 16">
  <defs>
    <clipPath id="master_svg0_105_22877">
      <rect x="0" y="0" width="16" height="16" rx="0" />
    </clipPath>
  </defs>
  <g clip-path="url(#master_svg0_105_22877)">
    <g>
      <path
        d="M13,1.5L3,1.5C2.171573,1.499999847412,1.5,2.171573,1.5,3L1.5,13C1.5,13.8284,2.171573,14.5,3,14.5L13,14.5C13.8284,14.5,14.5,13.8284,14.5,13L14.5,3C14.5,2.171573,13.8284,1.5,13,1.5ZM3,2.5L13,2.5C13.2761,2.5,13.5,2.72386,13.5,3L13.5,13C13.5,13.2761,13.2761,13.5,13,13.5L3,13.5C2.72386,13.5,2.5,13.2761,2.5,13L2.5,3C2.5,2.72386,2.72386,2.5,3,2.5Z"
        fill="black" fill-opacity="1" />
    </g>
    <g>
      <path
        d="M4.901828125,7.129C5.081408124999999,6.96679,5.351388125,6.9564699999999995,5.542828125,7.1045L5.588328125,7.1445L8.750328125,10.2695L10.320328125,8.977C10.483598125,8.842459999999999,10.713868125,8.82524,10.895328125,8.934000000000001L10.947828125,8.969999999999999L14.456828125,11.73L13.838828125,12.516L10.645828125,10.004999999999999L9.037828125,11.329C8.858388125000001,11.47664,8.600878125000001,11.481200000000001,8.416328125,11.34L8.368328125,11.2985L5.221328124999999,8.1875L2.218828125,10.8975L1.548828125,10.155000000000001L4.901828125,7.129ZM9.749828125,4C8.783328125,3.999999694824,7.999828125,4.783502,7.999828125,5.75C7.999828125,6.7165,8.783328125,7.5,9.749828125,7.5C10.716328125,7.5,11.499828125,6.7165,11.499828125,5.75C11.499828125,4.783502,10.716328125,3.999999694824,9.749828125,4ZM9.749828125,5C10.164038125,5,10.499828125,5.33579,10.499828125,5.75C10.499828125,6.164210000000001,10.164038125,6.5,9.749828125,6.5C9.335608125,6.5,8.999828125,6.164210000000001,8.999828125,5.75C8.999828125,5.33579,9.335608125,5,9.749828125,5Z"
        fill="black" fill-opacity="1" />
    </g>
  </g>
</svg>