<svg xmlns="http://www.w3.org/2000/svg" xmlns:xlink="http://www.w3.org/1999/xlink" fill="none" version="1.1" width="16"
  height="16" viewBox="0 0 16 16">
  <g>
    <g>
      <path
        d="M10,2.5L6,2.5L6,1.5L5,1.5L5,2.5L3,2.5C2.171573,2.5,1.5,3.17157,1.5,4L1.5,13C1.5,13.8284,2.171573,14.5,3,14.5L13,14.5C13.8284,14.5,14.5,13.8284,14.5,13L14.5,4C14.5,3.17157,13.8284,2.5,13,2.5L11,2.5L11,1.5L10,1.5L10,2.5ZM6,5L6,3.5L10,3.5L10,5L11,5L11,3.5L13,3.5C13.2761,3.5,13.5,3.72386,13.5,4L13.5,6L2.5,6L2.5,4C2.5,3.72386,2.72386,3.5,3,3.5L5,3.5L5,5L6,5ZM2.5,7L13.5,7L13.5,13C13.5,13.2761,13.2761,13.5,13,13.5L3,13.5C2.72386,13.5,2.5,13.2761,2.5,13L2.5,7ZM6,9C6,9.27614,5.77614,9.5,5.5,9.5C5.22386,9.5,5,9.27614,5,9C5,8.72386,5.22386,8.5,5.5,8.5C5.77614,8.5,6,8.72386,6,9ZM8,9.5C8.27614,9.5,8.5,9.27614,8.5,9C8.5,8.72386,8.27614,8.5,8,8.5C7.72386,8.5,7.5,8.72386,7.5,9C7.5,9.27614,7.72386,9.5,8,9.5ZM10.5,9.5C10.77614,9.5,11,9.27614,11,9C11,8.72386,10.77614,8.5,10.5,8.5C10.22386,8.5,10,8.72386,10,9C10,9.27614,10.22386,9.5,10.5,9.5ZM6,11C6,11.27614,5.77614,11.5,5.5,11.5C5.22386,11.5,5,11.27614,5,11C5,10.72386,5.22386,10.5,5.5,10.5C5.77614,10.5,6,10.72386,6,11ZM8,11.5C8.27614,11.5,8.5,11.27614,8.5,11C8.5,10.72386,8.27614,10.5,8,10.5C7.72386,10.5,7.5,10.72386,7.5,11C7.5,11.27614,7.72386,11.5,8,11.5ZM10.5,11.5C10.77614,11.5,11,11.27614,11,11C11,10.72386,10.77614,10.5,10.5,10.5C10.22386,10.5,10,10.72386,10,11C10,11.27614,10.22386,11.5,10.5,11.5Z"
        fill-rule="evenodd" fill="black" fill-opacity="1" />
    </g>
  </g>
</svg>