<svg xmlns="http://www.w3.org/2000/svg" xmlns:xlink="http://www.w3.org/1999/xlink" fill="none" version="1.1" width="16"
  height="16" viewBox="0 0 16 16">
  <defs>
    <mask id="master_svg0_975_98117" style="mask-type:alpha" maskUnits="objectBoundingBox">
      <g>
        <g>
          <path d="M0,0L16,0L16,16L0,16L0,0Z" fill="black" fill-opacity="1" />
        </g>
      </g>
    </mask>
    <mask id="master_svg1_975_98114" style="mask-type:alpha" maskUnits="objectBoundingBox">
      <g>
        <g>
          <path d="M0,0L16,0L16,16L0,16L0,0Z" fill="black" fill-opacity="1" />
        </g>
      </g>
    </mask>
    <mask id="master_svg2_975_98109" style="mask-type:alpha" maskUnits="objectBoundingBox">
      <g>
        <g>
          <path d="M0,0L16,0L16,16L0,16L0,0Z" fill="black" fill-opacity="1" />
        </g>
      </g>
    </mask>
  </defs>
  <g>
    <g style="opacity:0;">
      <path d="M0,0L16,0L16,16L0,16L0,0Z" fill="black" fill-opacity="1" />
    </g>
    <g mask="url(#master_svg0_975_98117)">
      <g>
        <path
          d="M8.06245,1C9.95957,1,11.7391,1.74551,13.0547,3.04857C13.7103,3.698,14.2325,4.46934,14.5882,5.3189C14.6948,5.57362,14.5748,5.86656,14.3201,5.9732C14.0653,6.07984,13.7724,5.95979,13.6658,5.70507C13.3612,4.97752,12.9135,4.31625,12.3509,3.75905C11.221,2.63986,9.69367,2,8.06245,2C4.71319,2,2,4.68737,2,8C2,11.3126,4.71319,14,8.06245,14C9.69367,14,11.221,13.3601,12.3509,12.241C12.9135,11.6837,13.3612,11.0225,13.6658,10.29493C13.8172,9.93324,13.9325,9.557,14.0097,9.17058C14.0638,8.89979,14.3271,8.72411,14.5979,8.77819C14.8687,8.83228,15.0444,9.09564,14.9903,9.36644C14.9001,9.81827,14.7652,10.25825,14.5882,10.6811C14.2325,11.5307,13.7103,12.302,13.0547,12.9514C11.7391,14.2545,9.95957,15,8.06245,15C4.16303,15,1,11.8671,1,8C1,4.13293,4.16303,1,8.06245,1Z"
          fill="black" fill-opacity="1" />
      </g>
    </g>
    <g mask="url(#master_svg1_975_98114)">
      <g
        transform="matrix(-0.8191520571708679,0.5735764503479004,0.5735764503479004,0.8191520571708679,24.84981197843433,-7.8351158053608145)">
        <path
          d="M16.429095625,2.397435426712036L14.749348625,2.397435426712036C14.565253625,2.397435426712036,14.416015625,2.546673426712036,14.416015625,2.7307684267120362C14.416015625,2.798548426712036,14.436678625,2.8647184267120362,14.475249325,2.9204544267120363L16.008345625,5.1358154267120355C16.113105625,5.287195426712036,16.320745625,5.324985426712036,16.472125625,5.220225426712036C16.569245625,5.153015426712036,16.623545625,5.039445426712036,16.614875625,4.921655426712036L16.429095625,2.397435426712036Z"
          fill-rule="evenodd" fill="black" fill-opacity="1" />
      </g>
    </g>
    <g mask="url(#master_svg2_975_98109)">
      <g>
        <path
          d="M8.496640156249999,4.941689C8.46775015625,4.69302,8.25642015625,4.5,8.00000015625,4.5C7.72386015625,4.5,7.50000015625,4.723858,7.50000015625,5L7.50000015625,7.72018L6.03392715625,8.62003L5.98599115625,8.653400000000001C5.78916692625,8.8081,5.73521335625,9.089179999999999,5.86934745625,9.30772C6.01379915625,9.54306,6.32168715625,9.61675,6.55703415625,9.4723L8.25233015625,8.431750000000001C8.27231015625,8.42005,8.29142015625,8.40699,8.30951015625,8.39272C8.36054015625,8.352599999999999,8.40197015625,8.30399,8.433010156249999,8.25017C8.46781015625,8.19007,8.49045015625,8.12206,8.49758015625,8.049479999999999C8.49955015625,8.02984,8.50037015625,8.01006,8.50000015625,7.99023L8.50000015625,5L8.496640156249999,4.941689Z"
          fill-rule="evenodd" fill="black" fill-opacity="1" />
      </g>
    </g>
  </g>
</svg>