<svg xmlns="http://www.w3.org/2000/svg" xmlns:xlink="http://www.w3.org/1999/xlink" fill="none" version="1.1" width="16"
  height="16" viewBox="0 0 16 16">
  <defs>
    <clipPath id="master_svg0_931_93211">
      <rect x="0" y="0" width="16" height="16" rx="0" />
    </clipPath>
  </defs>
  <g clip-path="url(#master_svg0_931_93211)">
    <g>
      <path
        d="M8,1C4.134,1,1,4.134,1,8C1,11.866,4.134,15,8,15C11.866,15,15,11.866,15,8C15,4.134,11.866,1,8,1ZM8,2C11.3135,2,14,4.6865000000000006,14,8C14,11.3135,11.3135,14,8,14C4.6865000000000006,14,2,11.3135,2,8C2,4.6865000000000006,4.6865000000000006,2,8,2Z"
        fill="black" fill-opacity="1" />
    </g>
    <g>
      <path
        d="M8.701229999999999,4.941689C8.67234,4.69302,8.46101,4.5,8.20459,4.5C7.92845,4.5,7.70459,4.723858,7.70459,5L7.70459,7.72018L6.238517,8.62003L6.190581,8.653400000000001C5.99375677,8.8081,5.9398032,9.089179999999999,6.0739373,9.30772C6.218389,9.54306,6.526277,9.61675,6.761624,9.4723L8.45692,8.431750000000001C8.4769,8.42005,8.49601,8.40699,8.5141,8.39272C8.56513,8.352599999999999,8.60656,8.30399,8.637599999999999,8.25017C8.6724,8.19007,8.69504,8.12206,8.70217,8.049479999999999C8.70414,8.02984,8.70496,8.01006,8.70459,7.99023L8.70459,5L8.701229999999999,4.941689Z"
        fill-rule="evenodd" fill="black" fill-opacity="1" />
    </g>
  </g>
</svg>