<svg xmlns="http://www.w3.org/2000/svg" xmlns:xlink="http://www.w3.org/1999/xlink" fill="none" version="1.1" width="16"
  height="16" viewBox="0 0 16 16">
  <defs>
    <clipPath id="master_svg0_105_23027">
      <rect x="0" y="0" width="16" height="16" rx="0" />
    </clipPath>
  </defs>
  <g clip-path="url(#master_svg0_105_23027)">
    <g>
      <path
        d="M8,1C4.134,1,1,4.134,1,8C1,11.866,4.134,15,8,15C11.866,15,15,11.866,15,8C15,4.134,11.866,1,8,1ZM8,2C11.3135,2,14,4.6865000000000006,14,8C14,11.3135,11.3135,14,8,14C4.6865000000000006,14,2,11.3135,2,8C2,4.6865000000000006,4.6865000000000006,2,8,2Z"
        fill="black" fill-opacity="1" />
    </g>
    <g>
      <path
        d="M7.9774765625,9.8125C8.4304865625,9.8125,8.7977265625,10.179739999999999,8.7977265625,10.63275C8.7977265625,11.08576,8.4304865625,11.453,7.9774765625,11.453C7.5244655625,11.453,7.1572265625,11.08576,7.1572265625,10.63275C7.1572265625,10.179739999999999,7.5244655625,9.8125,7.9774765625,9.8125ZM7.9864765625,4.250000305176C8.4223865625,4.249709778,8.7599865625,4.631391,8.7064765625,5.064L8.3064765625,8.304C8.2875365625,8.4631,8.1526765625,8.58295,7.9924485625,8.583079999999999C7.8322215625,8.583210000000001,7.6971745625,8.46357,7.6779775625,8.3045L7.2689765625,5.064001C7.2145184625,4.632056,7.5511125625,4.250191345,7.9864765625,4.250000305176Z"
        fill="black" fill-opacity="1" />
    </g>
  </g>
</svg>