<svg xmlns="http://www.w3.org/2000/svg" xmlns:xlink="http://www.w3.org/1999/xlink" fill="none" version="1.1" width="16"
  height="16" viewBox="0 0 16 16">
  <defs>
    <clipPath id="master_svg0_993_099907">
      <rect x="0" y="0" width="16" height="16" rx="0" />
    </clipPath>
  </defs>
  <g clip-path="url(#master_svg0_993_099907)">
    <g>
      <g>
        <path
          d="M12.419006675720215,3.0000228881835938L5.000006675720215,3.0000228881835938C3.895436675720215,3.0000228881835938,3.000006675720215,3.895452888183594,3.000006675720215,5.000022888183594L3.000006675720215,12.419022888183594Q2.6900466757202146,12.311422888183595,2.439346675720215,12.060722888183594Q2.000006675720215,11.621322888183593,2.000006675720215,11.000022888183594L2.000006675720215,3.5000228881835938Q2.000006675720215,2.878702888183594,2.439346675720215,2.439362888183594Q2.878686675720215,2.0000228881835938,3.500006675720215,2.0000228881835938L11.000006675720215,2.0000228881835938Q11.621306675720215,2.0000228881835938,12.060706675720215,2.439362888183594Q12.311406675720216,2.6900628881835935,12.419006675720215,3.0000228881835938ZM13.463706675720214,3.0540528881835938Q13.337006675720215,2.3015028881835935,12.767806675720214,1.7322568881835938Q12.035506675720216,1.0000228881835938,11.000006675720215,1.0000228881835938L3.500006675720215,1.0000228881835938Q2.464476675720215,1.0000228881835938,1.7322396757202148,1.7322558881835937Q1.0000066757202148,2.4644928881835937,1.0000066757202148,3.5000228881835938L1.0000066757202148,11.000022888183594Q1.0000066757202148,12.035522888183595,1.7322396757202148,12.767822888183593Q2.3014866757202146,13.337022888183593,3.054036675720215,13.463722888183593C3.263186675720215,14.344722888183593,4.055066675720215,15.000022888183594,5.000006675720215,15.000022888183594L13.000006675720215,15.000022888183594C14.104606675720214,15.000022888183594,15.000006675720215,14.104622888183593,15.000006675720215,13.000022888183594L15.000006675720215,5.000022888183594C15.000006675720215,4.055082888183594,14.344706675720214,3.263202888183594,13.463706675720214,3.0540528881835938ZM13.000006675720215,4.000022888183594L5.000006675720215,4.000022888183594Q4.585796675720214,4.000022888183594,4.292896675720215,4.292912888183594Q4.000006675720215,4.585812888183593,4.000006675720215,5.000022888183594L4.000006675720215,13.000022888183594Q4.000006675720215,13.414222888183593,4.292896675720215,13.707122888183594Q4.585796675720214,14.000022888183594,5.000006675720215,14.000022888183594L13.000006675720215,14.000022888183594Q13.414206675720214,14.000022888183594,13.707106675720215,13.707122888183594Q14.000006675720215,13.414222888183593,14.000006675720215,13.000022888183594L14.000006675720215,5.000022888183594Q14.000006675720215,4.585812888183593,13.707106675720215,4.292912888183594Q13.414206675720214,4.000022888183594,13.000006675720215,4.000022888183594ZM7.2103666757202145,10.789322888183595L5.774796675720215,9.353752888183594Q5.6283466757202145,9.207312888183594,5.6283466757202145,9.000202888183594Q5.6283466757202145,8.793092888183594,5.774796675720215,8.646652888183594L7.210956675720215,7.210482888183594L6.503856675720215,6.503382888183594L5.067686675720215,7.939542888183594Q4.6283466757202145,8.378882888183593,4.6283466757202145,9.000202888183594Q4.6283466757202145,9.621522888183593,5.067686675720215,10.060862888183594L6.503256675720215,11.496422888183593L7.2103666757202145,10.789322888183595ZM10.789526675720214,10.788972888183594L12.224806675720215,9.353702888183594Q12.371206675720215,9.207252888183593,12.371206675720215,9.000152888183594Q12.371206675720215,8.793042888183594,12.224806675720215,8.646592888183594L10.789056675720214,7.210852888183593L11.496206675720215,6.503742888183594L12.931906675720215,7.939492888183594Q13.371206675720215,8.378832888183593,13.371206675720215,9.000152888183594Q13.371206675720215,9.621472888183593,12.931906675720215,10.060812888183595L11.496606675720216,11.496122888183594L10.789526675720214,10.788972888183594ZM7.678766675720214,10.957142888183593L9.393056675720215,6.671302888183594L10.321536675720214,7.0426828881835934L8.607236675720216,11.328522888183594L7.678766675720214,10.957142888183593Z"
          fill-rule="evenodd" fill="black" fill-opacity="1" />
      </g>
    </g>
  </g>
</svg>