<svg xmlns="http://www.w3.org/2000/svg" xmlns:xlink="http://www.w3.org/1999/xlink" fill="none" version="1.1" width="16"
  height="16" viewBox="0 0 16 16">
  <g>
    <g style="opacity:0;">
      <path d="M0,0L16,0L16,16L0,16L0,0Z" fill="black" fill-opacity="1" />
    </g>
    <g>
      <g>
        <path
          d="M8.49882,12.4796C11.57915,12.226,14,9.64573,14,6.5L14,2.66811C13.9997,2.51989,13.9669,2.37454,13.9039,2.24144C13.6676,1.74195,13.071,1.52874,12.5718,1.76594L12.4148,1.84386C11.84568,2.14011,11.34998,2.55201,10.9291,3.07576L10.823,3.213L10.75078,3.06645C9.90075,1.373827,9.00939,0.5,8,0.5L7.90856,0.50240612C6.93663,0.5537119,6.07349,1.4251179999999999,5.24922,3.06645L5.1850000000000005,3.1975L5.1274999999999995,3.12046C4.66478,2.51964,4.09304,2.06174,3.4151499999999997,1.75255C3.2860300000000002,1.6933,3.14454,1.66236,3.00134,1.66216C2.4490600000000002,1.66142,2.000743866,2.10853,2,2.66082L2,6.5C2,9.64547,4.420450000000001,12.2256,7.50042,12.4795C7.50014,12.4863,7.5,12.4931,7.5,12.5L7.5,15L7.50336,15.0583C7.53225,15.307,7.74358,15.5,8,15.5C8.27614,15.5,8.5,15.2761,8.5,15L8.5,12.5L8.49882,12.4796ZM3,6.5C3,9.26142,5.23858,11.5,8,11.5C10.76142,11.5,13,9.26142,13,6.5L13,2.66909L12.8612,2.73853C12.1758,3.10037,11.62107,3.68203,11.19259,4.49727C10.99607,4.87118,10.45316,4.84801,10.2892,4.45873C9.44568,2.4559699999999998,8.640419999999999,1.5,8,1.5C7.35958,1.5,6.55432,2.4559699999999998,5.7108,4.45873C5.54457,4.8534,4.99147,4.87009,4.80175,4.4861699999999995C4.37257,3.6177,3.77501,3.01579,2.999131,2.66191L3,6.5ZM3.01966,12.5888C3.29017,12.53,3.5710100000000002,12.5,3.8565199999999997,12.5C5.56706,12.5,7,13.5841,7,15C7,15.2761,6.77614,15.5,6.5,15.5C6.22386,15.5,6,15.2761,6,15L5.99711,14.9235C5.93945,14.1619,5.026870000000001,13.5,3.8565199999999997,13.5C3.64224,13.5,3.43254,13.5224,3.2318800000000003,13.566C2.9620290000000002,13.6246,2.695764,13.4534,2.637162,13.1835C2.5785590000000003,12.9137,2.749812,12.6474,3.01966,12.5888ZM12.9803,12.5888C12.7098,12.53,12.429,12.5,12.1435,12.5C10.43294,12.5,9,13.5841,9,15C9,15.2761,9.22386,15.5,9.5,15.5C9.77614,15.5,10,15.2761,10,15C10,14.2067,10.93412,13.5,12.1435,13.5C12.3578,13.5,12.5675,13.5224,12.7681,13.566C13.038,13.6246,13.3042,13.4534,13.3628,13.1835C13.4214,12.9137,13.2502,12.6474,12.9803,12.5888Z"
          fill-rule="evenodd" fill="black" fill-opacity="1" />
      </g>
    </g>
  </g>
</svg>