<svg xmlns="http://www.w3.org/2000/svg" xmlns:xlink="http://www.w3.org/1999/xlink" fill="none" version="1.1" width="16"
  height="16" viewBox="0 0 16 16">
  <defs>
    <clipPath id="master_svg0_105_22840">
      <rect x="0" y="0" width="16" height="16" rx="0" />
    </clipPath>
  </defs>
  <g clip-path="url(#master_svg0_105_22840)">
    <g>
      <path
        d="M4.806875,4.2024353125000005L7.766875,1.6649393125L7.766875,1.6649393125C7.993815,1.4711018125,8.312355,1.4267688125,8.583124999999999,1.5514073125C8.853895,1.6760463125,9.027365,1.9468633125,9.027375,2.2449393125L9.027375,13.7544453125C9.027375,14.0525453125,8.853905000000001,14.3233453125,8.583124999999999,14.4479453125C8.312365,14.5726453125,7.993815,14.5282453125,7.767375,14.3344453125L4.807375,11.7974453125C4.7063749999999995,11.7114453125,4.578374999999999,11.6644453125,4.446375,11.6644453125L2.7268749999999997,11.6644453125C1.868072,11.6644453125,1.171875,10.9682453125,1.171875,10.1094353125L1.171875,5.8909353125C1.171875,5.0321353124999995,1.868072,4.3359353125,2.7268749999999997,4.3359353125L4.446375,4.3359353125C4.578605,4.3358053125,4.706445,4.2884653125,4.806875,4.2024353125000005ZM8.027375,13.2404453125L8.027375,2.7589353125000002L5.457875,4.9614453125C5.176115,5.2027753125,4.817365000000001,5.3354253125,4.446375,5.3354453125L2.7268749999999997,5.3354453125C2.420375,5.3354453125,2.171875,5.5844453125,2.171875,5.8904453125L2.171875,10.1089353125C2.171875,10.4154553125,2.420355,10.6639453125,2.7268749999999997,10.6639453125L4.446375,10.6639453125C4.817425,10.6640953125,5.176185,10.7969253125,5.457875,11.0384353125L8.027375,13.2404453125ZM10.806395,5.6049353125C10.607355,5.4505353125,10.324525,5.4683153125,10.146395,5.6464353125C9.951205,5.8416853125,9.951205,6.1581853125,10.146395,6.3534353125L11.793175,8.0001753125L10.146875,9.6464453125L10.105375,9.6934353125C9.944105,9.9020053125,9.972495,10.1999453125,10.170235,10.3743153125C10.367985,10.5486753125,10.667135,10.5395453125,10.853875,10.3534353125L12.500175,8.7071753125L14.146375,10.3534353125L14.193375,10.3949353125C14.401975,10.5562053125,14.699875,10.5278153125,14.874275,10.3300753125C15.048675,10.1323253125,15.039475,9.8331753125,14.853375,9.6464353125L13.207175,8.0001753125L14.853875,6.3534353125L14.895375,6.3064353125C15.056675,6.0978753125,15.028275,5.7999253125,14.830475,5.6255653125C14.632775,5.4512053125,14.333575,5.4603353125,14.146875,5.6464353125L12.500175,7.2931753125L10.853395,5.6464353125L10.806395,5.6049353125Z"
        fill-rule="evenodd" fill="black" fill-opacity="1" />
    </g>
  </g>
</svg>