<svg xmlns="http://www.w3.org/2000/svg" xmlns:xlink="http://www.w3.org/1999/xlink" fill="none" version="1.1" width="16"
  height="16" viewBox="0 0 16 16">
  <defs>
    <clipPath id="master_svg0_1098_031772">
      <rect x="0" y="0" width="16" height="16" rx="0" />
    </clipPath>
  </defs>
  <g clip-path="url(#master_svg0_1098_031772)">
    <g>
      <path
        d="M2,13.000012397766113L2,3.0000123977661133C2,1.8954433977661131,2.895431,1.0000123977661133,4,1.0000123977661133L12,1.0000123977661133C13.1046,1.0000123977661133,14,1.8954433977661131,14,3.0000123977661133L14,13.000012397766113C14,14.104612397766113,13.1046,15.000012397766113,12,15.000012397766113L4,15.000012397766113C2.895431,15.000012397766113,2,14.104612397766113,2,13.000012397766113ZM3,13.000012397766113Q3,13.414212397766113,3.29289,13.707112397766114Q3.5857900000000003,14.000012397766113,4,14.000012397766113L12,14.000012397766113Q12.4142,14.000012397766113,12.7071,13.707112397766114Q13,13.414212397766113,13,13.000012397766113L13,3.0000123977661133Q13,2.5858023977661135,12.7071,2.292902397766113Q12.4142,2.0000123977661133,12,2.0000123977661133L4,2.0000123977661133Q3.5857900000000003,2.0000123977661133,3.29289,2.292902397766113Q3,2.5858023977661135,3,3.0000123977661133L3,13.000012397766113ZM9.5,9.500012397766113L9.5,8.504412397766114Q9.5,7.622242397766113,10.61843,6.739922397766113Q11,6.438902397766113,11,6.000012397766113Q11,5.5858023977661135,10.70711,5.292902397766113Q10.41422,5.000012397766113,10,5.000012397766113Q9.58579,5.000012397766113,9.2929,5.292902397766113Q9,5.5858023977661135,9,6.000012397766113L9,6.500012397766113L8,6.500012397766113L8,6.000012397766113Q8,5.171582397766113,8.58579,4.585802397766113Q9.171579999999999,4.000012397766113,10,4.000012397766113Q10.82843,4.000012397766113,11.41422,4.585802397766113Q12,5.171582397766113,12,6.000012397766113Q12,6.923722397766113,11.23779,7.525022397766113Q10.5,8.107062397766114,10.5,8.504412397766114L10.5,9.500012397766113L10.5,10.000012397766113L9.5,10.000012397766113L9.5,9.500012397766113ZM4,5.000012397766113L7,5.000012397766113L7,6.000012397766113L4,6.000012397766113L4,5.000012397766113ZM4,8.000012397766113L7,8.000012397766113L7,9.000012397766113L4,9.000012397766113L4,8.000012397766113ZM10,12.300012397766114C10.41421,12.300012397766114,10.75,11.964212397766113,10.75,11.550012397766114C10.75,11.135812397766113,10.41421,10.800002397766113,10,10.800002397766113C9.58579,10.800002397766113,9.25,11.135812397766113,9.25,11.550012397766114C9.25,11.964212397766113,9.58579,12.300012397766114,10,12.300012397766114Z"
        fill-rule="evenodd" fill="black" fill-opacity="1" />
    </g>
  </g>
</svg>