<svg xmlns="http://www.w3.org/2000/svg" xmlns:xlink="http://www.w3.org/1999/xlink" fill="none" version="1.1" width="16"
  height="16" viewBox="0 0 16 16">
  <defs>
    <clipPath id="master_svg0_1034_060873">
      <rect x="0" y="0" width="16" height="16" rx="0" />
    </clipPath>
  </defs>
  <g clip-path="url(#master_svg0_1034_060873)">
    <g style="opacity:0.8999999761581421;">
      <path
        d="M3.5,1L12.5,1C13.3284,1,14,1.671573,14,2.5L14,8L13,8L13,2.5C13,2.22386,12.7761,2,12.5,2L3.5,2C3.22386,2,3,2.22386,3,2.5L3,12.5C3,12.7761,3.22386,13,3.5,13L5.94444,13L6.72222,14L3.5,14C2.671573,14,2,13.3284,2,12.5L2,2.5C2,1.671573,2.671573,1,3.5,1ZM11.25,5L11.25,4L4.75,4L4.75,5L11.25,5ZM8.75,7.5L8.75,6.5L4.75,6.5L4.75,7.5L8.75,7.5ZM14.2,10L10.22151,14.1462C9.97437,14.4037,9.55837,14.3899,9.32894,14.1164L7,11.3406L8.24845,11.3406L9.91845,12.7447L13.0319,10L14.2,10Z"
        fill-rule="evenodd" fill="black" fill-opacity="1" />
    </g>
  </g>
</svg>