<svg xmlns="http://www.w3.org/2000/svg" xmlns:xlink="http://www.w3.org/1999/xlink" fill="none" version="1.1" width="16"
  height="16" viewBox="0 0 16 16">
  <defs>
    <clipPath id="master_svg0_615_018096">
      <rect x="0" y="0" width="16" height="16" rx="0" />
    </clipPath>
  </defs>
  <g clip-path="url(#master_svg0_615_018096)">
    <g>
      <path
        d="M2,9.5Q2,13,8,15.5Q14,13,14,9.5L14,3.71573C14,3.2853,13.7197,2.90777,13.3138,2.76471Q10.65687,1.82844,8,0.5Q5.34313,1.82844,2.6862500000000002,2.76471C2.280289,2.90777,2,3.2853,2,3.71573L2,9.5ZM3,9.5Q3,12.2303,8,14.4129Q13,12.2303,13,9.5L13,3.71573Q13,3.71442,12.9814,3.70786Q10.48942,2.8297,8,1.61531Q5.5105900000000005,2.8297,3.01861,3.70786Q3,3.71442,3,3.71573L3,9.5ZM11.3855,6L10.434,6L7.4755,8.644L5.9615,7.6115L5,7.6115L7.4755,10.192L11.3855,6Z"
        fill-rule="evenodd" fill="black" fill-opacity="1" />
    </g>
  </g>
</svg>