<svg xmlns="http://www.w3.org/2000/svg" xmlns:xlink="http://www.w3.org/1999/xlink" fill="none" version="1.1"
  width="53.83349609375" height="53.833251953125" viewBox="0 0 53.83349609375 53.833251953125">
  <defs>
    <filter id="master_svg0_105_97480/105_33971" filterUnits="objectBoundingBox" color-interpolation-filters="sRGB"
      x="-1.1277778625488282" y="-0.8777778625488282" width="2.5000000953674317" height="2.5000000953674317">
      <feFlood flood-opacity="0" result="BackgroundImageFix" />
      <feColorMatrix in="SourceAlpha" type="matrix" values="0 0 0 0 0 0 0 0 0 0 0 0 0 0 0 0 0 0 127 0" />
      <feOffset dy="5" dx="0" />
      <feGaussianBlur stdDeviation="3.750000238418579" />
      <feColorMatrix type="matrix"
        values="0 0 0 0 0.06026127189397812 0 0 0 0 0.44254371523857117 0 0 0 0 0.851190447807312 0 0 0 0.47999998927116394 0" />
      <feBlend mode="normal" in2="BackgroundImageFix" result="effect1_dropShadow" />
      <feBlend mode="normal" in="SourceGraphic" in2="effect1_dropShadow" result="shape" />
      <feColorMatrix in="SourceAlpha" type="matrix" result="hardAlpha"
        values="0 0 0 0 0 0 0 0 0 0 0 0 0 0 0 0 0 0 127 0" />
      <feOffset dy="3.125000238418579" dx="0" />
      <feGaussianBlur stdDeviation="1.5625001192092896" />
      <feComposite in2="hardAlpha" operator="arithmetic" k2="-1" k3="1" />
      <feColorMatrix type="matrix" values="0 0 0 0 1 0 0 0 0 1 0 0 0 0 1 0 0 0 0.638427734375 0" />
      <feBlend mode="normal" in2="shape" result="effect2_innerShadow" />
      <feGaussianBlur stdDeviation="1.8888890743255615" result="effect3_foregroundBlur" />
    </filter>
    <linearGradient x1="0.19109895825386047" y1="0.9432678818702698" x2="0.6680520176887512" y2="0"
      id="master_svg1_105_33393">
      <stop offset="0%" stop-color="#FFFFFF" stop-opacity="0.6270914077758789" />
      <stop offset="48.08903634548187%" stop-color="#6CBDFF" stop-opacity="0.8600886464118958" />
      <stop offset="100%" stop-color="#55B3FF" stop-opacity="1" />
    </linearGradient>
    <linearGradient x1="0.8458201289176941" y1="-0.07086315006017685" x2="0.015172592664294821" y2="1.0235472391836002"
      id="master_svg2_105_35144">
      <stop offset="0%" stop-color="#1DD4FF" stop-opacity="1" />
      <stop offset="43.90795826911926%" stop-color="#0280FF" stop-opacity="1" />
      <stop offset="100%" stop-color="#0280FF" stop-opacity="1" />
    </linearGradient>
    <filter id="master_svg3_105_97480/105_33979" filterUnits="objectBoundingBox" color-interpolation-filters="sRGB"
      x="0" y="0" width="1" height="1">
      <feFlood flood-opacity="0" result="BackgroundImageFix" />
      <feBlend mode="normal" in="SourceGraphic" in2="BackgroundImageFix" result="shape" />
      <feColorMatrix in="SourceAlpha" type="matrix" result="hardAlpha"
        values="0 0 0 0 0 0 0 0 0 0 0 0 0 0 0 0 0 0 127 0" />
      <feOffset dy="-0.625" dx="0" />
      <feGaussianBlur stdDeviation="2.5" />
      <feComposite in2="hardAlpha" operator="arithmetic" k2="-1" k3="1" />
      <feColorMatrix type="matrix"
        values="0 0 0 0 0.10594630986452103 0 0 0 0 0.6988450884819031 0 0 0 0 1 0 0 0 0.42004650831222534 0" />
      <feBlend mode="normal" in2="shape" result="effect1_innerShadow" />
      <feColorMatrix in="SourceAlpha" type="matrix" result="hardAlpha"
        values="0 0 0 0 0 0 0 0 0 0 0 0 0 0 0 0 0 0 127 0" />
      <feOffset dy="1.25" dx="0" />
      <feGaussianBlur stdDeviation="2.5" />
      <feComposite in2="hardAlpha" operator="arithmetic" k2="-1" k3="1" />
      <feColorMatrix type="matrix" values="0 0 0 0 1 0 0 0 0 1 0 0 0 0 1 0 0 0 0.5 0" />
      <feBlend mode="normal" in2="effect1_innerShadow" result="effect2_innerShadow" />
      <feGaussianBlur in="BackgroundImageFix" stdDeviation="2.222222328186035" />
      <feComposite in2="SourceAlpha" operator="in" result="effect3_foregroundBlur" />
      <feBlend mode="normal" in="SourceGraphic" in2="effect3_foregroundBlur" result="shape" />
    </filter>
    <radialGradient cx="0" cy="0" r="1" gradientUnits="userSpaceOnUse" id="master_svg4_139_44044"
      gradientTransform="translate(22.10205537831922 17.226298093795776) rotate(149.70095436767835) scale(12.107577157925999 26.90572830057837)">
      <stop offset="0%" stop-color="#86DEFF" stop-opacity="0.49000000953674316" />
      <stop offset="41.42921268939972%" stop-color="#A9F5FF" stop-opacity="0.41999998688697815" />
      <stop offset="100%" stop-color="#C9FCFF" stop-opacity="0.33000001311302185" />
    </radialGradient>
    <linearGradient x1="0.41974887251853943" y1="1" x2="0.130939781665802" y2="-0.19338415563106537"
      id="master_svg5_105_36728">
      <stop offset="2.142857201397419%" stop-color="#EBF9FF" stop-opacity="1" />
      <stop offset="45.31651437282562%" stop-color="#81D7FF" stop-opacity="0.8886361718177795" />
      <stop offset="100%" stop-color="#BFEBFF" stop-opacity="0.7874696254730225" />
    </linearGradient>
    <filter id="master_svg6_105_97480/105_33980" filterUnits="objectBoundingBox" color-interpolation-filters="sRGB"
      x="0" y="0" width="1" height="1">
      <feFlood flood-opacity="0" result="BackgroundImageFix" />
      <feBlend mode="normal" in="SourceGraphic" in2="BackgroundImageFix" result="shape" />
      <feColorMatrix in="SourceAlpha" type="matrix" result="hardAlpha"
        values="0 0 0 0 0 0 0 0 0 0 0 0 0 0 0 0 0 0 127 0" />
      <feOffset dy="-0.625" dx="0" />
      <feGaussianBlur stdDeviation="2.5" />
      <feComposite in2="hardAlpha" operator="arithmetic" k2="-1" k3="1" />
      <feColorMatrix type="matrix"
        values="0 0 0 0 0.10594630986452103 0 0 0 0 0.6988450884819031 0 0 0 0 1 0 0 0 0.42004650831222534 0" />
      <feBlend mode="normal" in2="shape" result="effect1_innerShadow" />
      <feColorMatrix in="SourceAlpha" type="matrix" result="hardAlpha"
        values="0 0 0 0 0 0 0 0 0 0 0 0 0 0 0 0 0 0 127 0" />
      <feOffset dy="1.25" dx="0" />
      <feGaussianBlur stdDeviation="2.5" />
      <feComposite in2="hardAlpha" operator="arithmetic" k2="-1" k3="1" />
      <feColorMatrix type="matrix" values="0 0 0 0 1 0 0 0 0 1 0 0 0 0 1 0 0 0 0.5 0" />
      <feBlend mode="normal" in2="effect1_innerShadow" result="effect2_innerShadow" />
      <feGaussianBlur in="BackgroundImageFix" stdDeviation="2.222222328186035" />
      <feComposite in2="SourceAlpha" operator="in" result="effect3_foregroundBlur" />
      <feBlend mode="normal" in="SourceGraphic" in2="effect3_foregroundBlur" result="shape" />
    </filter>
    <radialGradient cx="0" cy="0" r="1" gradientUnits="userSpaceOnUse" id="master_svg7_139_44044"
      gradientTransform="translate(22.10205537831922 30.226298093795776) rotate(149.70095436767835) scale(12.107577157925999 26.90572830057837)">
      <stop offset="0%" stop-color="#86DEFF" stop-opacity="0.49000000953674316" />
      <stop offset="41.42921268939972%" stop-color="#A9F5FF" stop-opacity="0.41999998688697815" />
      <stop offset="100%" stop-color="#C9FCFF" stop-opacity="0.33000001311302185" />
    </radialGradient>
    <linearGradient x1="0.41974887251853943" y1="1" x2="0.130939781665802" y2="-0.19338415563106537"
      id="master_svg8_105_36728">
      <stop offset="2.142857201397419%" stop-color="#EBF9FF" stop-opacity="1" />
      <stop offset="45.31651437282562%" stop-color="#81D7FF" stop-opacity="0.8886361718177795" />
      <stop offset="100%" stop-color="#BFEBFF" stop-opacity="0.7874696254730225" />
    </linearGradient>
  </defs>
  <g>
    <g>
      <g style="opacity:0;">
        <rect x="5.916748046875" y="4.2359619140625" width="40" height="40" rx="0" fill="#D8D8D8" fill-opacity="1" />
      </g>
      <g filter="url(#master_svg0_105_97480/105_33971)">
        <path
          d="M36.916748046875,21.9166259765625Q36.916748046875,22.1621259765625,36.904748046875,22.4073259765625Q36.892648046874996,22.6525259765625,36.868548046875,22.8968259765625Q36.844548046875005,23.1411259765625,36.808548046875,23.3839259765625Q36.772448046875,23.6267259765625,36.724548046875,23.8675259765625Q36.676748046875005,24.1083259765625,36.617048046875,24.3464259765625Q36.557448046874995,24.5845259765625,36.486148046875,24.8194259765625Q36.414848046875,25.0544259765625,36.332148046875005,25.2855259765625Q36.249448046875,25.5166259765625,36.155548046875,25.7434259765625Q36.061548046875004,25.9702259765625,35.956648046875,26.1921259765625Q35.851648046875,26.414125976562502,35.735948046874995,26.6306259765625Q35.620248046875,26.847125976562502,35.494048046875,27.0576259765625Q35.367848046875,27.268225976562498,35.231448046875,27.4723259765625Q35.095048046875,27.6764259765625,34.948848046875,27.8736259765625Q34.802548046875,28.0708259765625,34.646848046875,28.2605259765625Q34.491148046875,28.4503259765625,34.326248046875,28.6322259765625Q34.161348046875,28.8141259765625,33.987848046875,28.9877259765625Q33.814248046875,29.1612259765625,33.632348046874995,29.3261259765625Q33.450448046874996,29.4910259765625,33.260648046875005,29.6467259765625Q33.070948046875,29.8024259765625,32.873748046875,29.9487259765625Q32.676548046875,30.0949259765625,32.472448046875,30.2313259765625Q32.268348046875,30.3677259765625,32.057748046875,30.4939259765625Q31.847248046875002,30.6201259765625,31.630748046875,30.7358259765625Q31.414248046875002,30.8515259765625,31.192248046875,30.9565259765625Q30.970348046875,31.0614259765625,30.743548046875,31.1554259765625Q30.516748046875,31.2493259765625,30.285648046875,31.3320259765625Q30.054548046875,31.4147259765625,29.819548046875,31.4860259765625Q29.584648046875,31.5573259765625,29.346548046875,31.6169259765625Q29.108448046875,31.6766259765625,28.867648046875,31.7244259765625Q28.626848046875,31.7723259765625,28.384048046875,31.8084259765625Q28.141248046875,31.8444259765625,27.896948046875,31.8684259765625Q27.652648046875,31.8925259765625,27.407448046875,31.9046259765625Q27.162248046875,31.9166259765625,26.916748046875,31.9166259765625Q26.671258046875,31.9166259765625,26.426068046875002,31.9046259765625Q26.180878046875,31.8925259765625,25.936578046875,31.8684259765625Q25.692268046875,31.8444259765625,25.449438046875002,31.8084259765625Q25.206618046875,31.7723259765625,24.965848046875,31.7244259765625Q24.725078046874998,31.6766259765625,24.486948046875,31.6169259765625Q24.248818046875,31.5573259765625,24.013898046875,31.4860259765625Q23.778988046875,31.4147259765625,23.547848046875,31.3320259765625Q23.316708046875,31.2493259765625,23.089908046875,31.1554259765625Q22.863108046875,31.0614259765625,22.641198046875,30.9565259765625Q22.419278046875,30.8515259765625,22.202778046875,30.7358259765625Q21.986278046875,30.6201259765625,21.775718046875,30.4939259765625Q21.565158046875,30.3677259765625,21.361048046875,30.2313259765625Q21.156928046875,30.0949259765625,20.959758046875,29.9487259765625Q20.762578046875,29.8024259765625,20.572818046875,29.6467259765625Q20.383048046875,29.4910259765625,20.201158046875,29.3261259765625Q20.019268046875,29.1612259765625,19.845678046875,28.9877259765625Q19.672098046875,28.8141259765625,19.507238046875,28.6322259765625Q19.342378046874998,28.4503259765625,19.186648046875,28.2605259765625Q19.030908046875,28.0708259765625,18.884668046875,27.8736259765625Q18.738438046875,27.6764259765625,18.602048046875,27.4723259765625Q18.465668046875,27.268225976562498,18.339458046875,27.0576259765625Q18.213258046875,26.847125976562502,18.097538046875002,26.6306259765625Q17.981818046875,26.414125976562502,17.876855046875,26.1921259765625Q17.771896046875,25.9702259765625,17.677953046875,25.7434259765625Q17.584009046875,25.5166259765625,17.501307046875,25.2855259765625Q17.418605046875,25.0544259765625,17.347345046875,24.8194259765625Q17.276084046875,24.5845259765625,17.216435046875,24.3464259765625Q17.156787046875,24.1083259765625,17.108895046875,23.8675259765625Q17.061003046875,23.6267259765625,17.024983046875,23.3839259765625Q16.988962646875,23.1411259765625,16.964900746875,22.8968259765625Q16.940838946875,22.6525259765625,16.928793446875,22.4073259765625Q16.916748046875,22.1621259765625,16.916748046875,21.9166259765625Q16.916748046875,21.6711359765625,16.928793446875,21.425945976562502Q16.940838946875,21.1807559765625,16.964900746875,20.9364559765625Q16.988962646875,20.6921459765625,17.024983046875,20.449315976562502Q17.061003046875,20.2064959765625,17.108895046875,19.9657259765625Q17.156787046875,19.724955976562498,17.216435046875,19.4868259765625Q17.276084046875,19.2486959765625,17.347345046875,19.0137759765625Q17.418605046875,18.7788659765625,17.501307046875,18.5477259765625Q17.584009046875,18.3165859765625,17.677953046875,18.0897859765625Q17.771896046875,17.8629859765625,17.876855046875,17.6410759765625Q17.981818046875,17.4191559765625,18.097538046875002,17.2026559765625Q18.213258046875,16.9861559765625,18.339458046875,16.7755959765625Q18.465668046875,16.5650359765625,18.602048046875,16.3609259765625Q18.738438046875,16.1568059765625,18.884668046875,15.959635976562499Q19.030908046875,15.7624559765625,19.186648046875,15.5726959765625Q19.342378046874998,15.3829259765625,19.507238046875,15.2010359765625Q19.672098046875,15.0191459765625,19.845678046875,14.8455559765625Q20.019268046875,14.6719759765625,20.201158046875,14.507115976562499Q20.383048046875,14.3422559765625,20.572818046875,14.1865259765625Q20.762578046875,14.0307859765625,20.959758046875,13.8845459765625Q21.156928046875,13.7383159765625,21.361048046875,13.6019259765625Q21.565158046875,13.4655459765625,21.775718046875,13.3393359765625Q21.986278046875,13.2131359765625,22.202778046875,13.0974159765625Q22.419278046875,12.9816959765625,22.641198046875,12.8767329765625Q22.863108046875,12.7717739765625,23.089908046875,12.6778309765625Q23.316708046875,12.5838869765625,23.547848046875,12.5011849765625Q23.778988046875,12.4184829765625,24.013898046875,12.3472229765625Q24.248818046875,12.2759619765625,24.486948046875,12.2163129765625Q24.725078046874998,12.1566649765625,24.965848046875,12.1087729765625Q25.206618046875,12.0608809765625,25.449438046875002,12.0248609765625Q25.692268046875,11.9888405765625,25.936578046875,11.9647786765625Q26.180878046875,11.9407168765625,26.426068046875002,11.9286713765625Q26.671258046875,11.9166259765625,26.916748046875,11.9166259765625Q27.162248046875,11.9166259765625,27.407448046875,11.9286713765625Q27.652648046875,11.9407168765625,27.896948046875,11.9647786765625Q28.141248046875,11.9888405765625,28.384048046875,12.0248609765625Q28.626848046875,12.0608809765625,28.867648046875,12.1087729765625Q29.108448046875,12.1566649765625,29.346548046875,12.2163129765625Q29.584648046875,12.2759619765625,29.819548046875,12.3472229765625Q30.054548046875,12.4184829765625,30.285648046875,12.5011849765625Q30.516748046875,12.5838869765625,30.743548046875,12.6778309765625Q30.970348046875,12.7717739765625,31.192248046875,12.8767329765625Q31.414248046875002,12.9816959765625,31.630748046875,13.0974159765625Q31.847248046875002,13.2131359765625,32.057748046875,13.3393359765625Q32.268348046875,13.4655459765625,32.472448046875,13.6019259765625Q32.676548046875,13.7383159765625,32.873748046875,13.8845459765625Q33.070948046875,14.0307859765625,33.260648046875005,14.1865259765625Q33.450448046874996,14.3422559765625,33.632348046874995,14.507115976562499Q33.814248046875,14.6719759765625,33.987848046875,14.8455559765625Q34.161348046875,15.0191459765625,34.326248046875,15.2010359765625Q34.491148046875,15.3829259765625,34.646848046875,15.5726959765625Q34.802548046875,15.7624559765625,34.948848046875,15.959635976562499Q35.095048046875,16.1568059765625,35.231448046875,16.3609259765625Q35.367848046875,16.5650359765625,35.494048046875,16.7755959765625Q35.620248046875,16.9861559765625,35.735948046874995,17.2026559765625Q35.851648046875,17.4191559765625,35.956648046875,17.6410759765625Q36.061548046875004,17.8629859765625,36.155548046875,18.0897859765625Q36.249448046875,18.3165859765625,36.332148046875005,18.5477259765625Q36.414848046875,18.7788659765625,36.486148046875,19.0137759765625Q36.557448046874995,19.2486959765625,36.617048046875,19.4868259765625Q36.676748046875005,19.724955976562498,36.724548046875,19.9657259765625Q36.772448046875,20.2064959765625,36.808548046875,20.449315976562502Q36.844548046875005,20.6921459765625,36.868548046875,20.9364559765625Q36.892648046874996,21.1807559765625,36.904748046875,21.425945976562502Q36.916748046875,21.6711359765625,36.916748046875,21.9166259765625Z"
          fill="url(#master_svg1_105_33393)" fill-opacity="1" />
      </g>
      <g>
        <g>
          <g style="opacity:0;">
            <rect x="10.916748046875" y="5.0416259765625" width="30.000001907348633" height="30.000001907348633" rx="0"
              fill="#D8D8D8" fill-opacity="1" />
          </g>
          <g>
            <path
              d="M18.028076171875,15.7916259765625L18.028076171875,26.7916259765625C18.028076171875,29.0007259765625,19.818936171875,30.7916259765625,22.028066171875,30.7916259765625L34.916976171875,30.7916259765625C37.126076171875,30.7916259765625,38.916976171875,29.0007259765625,38.916976171875,26.7916259765625L38.916976171875,15.7916259765625C38.916976171875,13.5824859765625,37.126076171875,11.7916259765625,34.916976171875,11.7916259765625L22.028076171875,11.7916259765625C19.818936171875,11.7916259765625,18.028076171875,13.5824859765625,18.028076171875,15.7916259765625Z"
              fill="url(#master_svg2_105_35144)" fill-opacity="1" />
          </g>
          <g filter="url(#master_svg3_105_97480/105_33979)">
            <rect x="12.916748046875" y="9.7916259765625" width="22.22222328186035" height="10" rx="4"
              fill="url(#master_svg4_139_44044)" fill-opacity="1" />
            <rect x="12.916748046875" y="9.7916259765625" width="22.22222328186035" height="10" rx="4"
              stroke="url(#master_svg5_105_36728)" fill-opacity="0" fill="none" stroke-width="0.444444477558136" />
          </g>
          <g filter="url(#master_svg6_105_97480/105_33980)">
            <rect x="12.916748046875" y="22.7916259765625" width="22.22222328186035" height="10" rx="4"
              fill="url(#master_svg7_139_44044)" fill-opacity="1" />
            <rect x="12.916748046875" y="22.7916259765625" width="22.22222328186035" height="10" rx="4"
              stroke="url(#master_svg8_105_36728)" fill-opacity="0" fill="none" stroke-width="0.444444477558136" />
          </g>
          <g>
            <path
              d="M27.166748046875,14.7291259765625C27.166748046875,15.2468959765625,26.747018046875,15.6666259765625,26.229248046875,15.6666259765625L21.854248046875,15.6666259765625C21.336481046875,15.6666259765625,20.916748046875,15.2468959765625,20.916748046875,14.7291259765625C20.916748046875,14.2113589765625,21.336481046875,13.7916259765625,21.854248046875,13.7916259765625L26.229248046875,13.7916259765625C26.747018046875,13.7916259765625,27.166748046875,14.2113589765625,27.166748046875,14.7291259765625"
              fill="#FFFFFF" fill-opacity="1" />
          </g>
          <g>
            <path
              d="M27.166748046875,27.7291259765625C27.166748046875,28.2468959765625,26.747018046875,28.6666259765625,26.229248046875,28.6666259765625L21.854248046875,28.6666259765625C21.336481046875,28.6666259765625,20.916748046875,28.2468959765625,20.916748046875,27.7291259765625C20.916748046875,27.2113589765625,21.336481046875,26.7916259765625,21.854248046875,26.7916259765625L26.229248046875,26.7916259765625C26.747018046875,26.7916259765625,27.166748046875,27.2113589765625,27.166748046875,27.7291259765625"
              fill="#FFFFFF" fill-opacity="1" />
          </g>
        </g>
      </g>
    </g>
  </g>
</svg>