<svg xmlns="http://www.w3.org/2000/svg" xmlns:xlink="http://www.w3.org/1999/xlink" fill="none" version="1.1" width="41"
  height="41" viewBox="0 0 41 41">
  <defs>
    <linearGradient x1="0.7909027338027954" y1="0.02545776031911373" x2="0.21368568345270741" y2="1.0000000482738727"
      id="master_svg0_105_28348">
      <stop offset="0%" stop-color="#007FFF" stop-opacity="1" />
      <stop offset="100%" stop-color="#0280FF" stop-opacity="0.38999998569488525" />
    </linearGradient>
    <mask id="master_svg1_484_67008/105_50004" style="mask-type:alpha" maskUnits="objectBoundingBox">
      <g>
        <ellipse cx="20.5" cy="20.500001907348633" rx="20" ry="20.000001907348633" fill="#FFFFFF" fill-opacity="1" />
      </g>
    </mask>
    <clipPath id="master_svg2_484_67008/105_50006">
      <rect x="6.5" y="6.5" width="28" height="28" rx="14" />
    </clipPath>
  </defs>
  <g>
    <g mask="url(#master_svg1_484_67008/105_50004)">
      <g>
        <ellipse cx="20.5" cy="20.500001907348633" rx="20" ry="20.000001907348633" fill="url(#master_svg0_105_28348)"
          fill-opacity="1" />
        <ellipse cx="20.5" cy="20.500001907348633" rx="20" ry="20.000001907348633" fill-opacity="0" stroke-opacity="1"
          stroke="#FFFFFF" fill="none" stroke-width="1" />
      </g>
    </g>
    <g>
      <g clip-path="url(#master_svg2_484_67008/105_50006)">
        <g>
          <path
            d="M26.755465937805177,15.947410234374999C26.755465937805177,18.487650234375,25.246165937805173,20.672390234375,23.080465937805176,21.656790234375002C27.152265937805176,22.601090234375,29.249665937805176,25.882190234375,29.753365937805174,28.522090234375C29.901965937805176,29.301190234375,29.659065937805178,30.101790234375,29.135665937805175,30.697690234375Q26.234665937805175,33.999990234375005,20.507475937805175,33.999990234375005Q14.780245937805176,33.999990234375005,11.879273937805175,30.697690234375C11.355806937805175,30.101790234375,11.112910937805175,29.301190234375,11.261702037805176,28.522090234375C11.765867937805176,25.882190234375,13.864995937805176,22.601490234375,17.934405937805174,21.659490234375C15.768775937805176,20.675190234375002,14.259405937805177,18.490380234375,14.259405937805177,15.950150234375C14.259405937805177,12.485690234375,17.056665937805175,9.677490234375,20.507455937805176,9.677490234375C23.958265937805177,9.677490234375,26.755465937805177,12.485690234375,26.755465937805177,15.947410234374999ZM20.621345937805174,19.878690234375Q22.071065937805177,19.878690234375,23.09626593780518,18.853550234375C23.189965937805177,18.759790234375,23.242665937805178,18.632610234375,23.242665937805178,18.500000234375L23.241965937805176,18.474130234375C23.235565937805177,18.350630234375,23.183665937805173,18.233890234375,23.09626593780518,18.146450234375C23.002465937805177,18.052680234375,22.875265937805175,18.000000234375,22.742665937805178,18.000000234375C22.610065937805174,18.000000234375,22.482865937805176,18.052680234375,22.389065937805178,18.146450234375Q21.656865937805176,18.878680234375,20.621345937805174,18.878680234375Q19.585815937805176,18.878680234375,18.853585937805175,18.146450234375C18.759815937805175,18.052680234375,18.632635937805176,18.000000234375,18.500025937805177,18.000000234375C18.367415937805177,18.000000234375,18.240245937805177,18.052680234375,18.146475937805175,18.146450234375C18.052705937805175,18.240220234375002,18.000025937805177,18.367390234375,18.000025937805177,18.500000234375C18.000025937805177,18.632610234375,18.052705937805175,18.759790234375,18.146475937805175,18.853550234375Q19.171595937805176,19.878690234375,20.621345937805174,19.878690234375Z"
            fill-rule="evenodd" fill="#FFFFFF" fill-opacity="1" />
        </g>
      </g>
    </g>
  </g>
</svg>