<svg xmlns="http://www.w3.org/2000/svg" xmlns:xlink="http://www.w3.org/1999/xlink" fill="none" version="1.1"
  width="24.0703125" height="24.0703125" viewBox="0 0 24.0703125 24.0703125">
  <defs>
    <linearGradient x1="0.8458201289176941" y1="-0.07086315006017685" x2="0.11230913549661635" y2="1.0972729921340942"
      id="master_svg0_105_35144">
      <stop offset="0%" stop-color="#1DD4FF" stop-opacity="1" />
      <stop offset="43.90795826911926%" stop-color="#0280FF" stop-opacity="1" />
      <stop offset="100%" stop-color="#0280FF" stop-opacity="1" />
    </linearGradient>
    <filter id="master_svg1_164_064218/406_69339" filterUnits="objectBoundingBox" color-interpolation-filters="sRGB"
      x="0" y="0" width="1" height="1">
      <feFlood flood-opacity="0" result="BackgroundImageFix" />
      <feBlend mode="normal" in="SourceGraphic" in2="BackgroundImageFix" result="shape" />
      <feGaussianBlur in="BackgroundImageFix" stdDeviation="2.0459940433502197" />
      <feComposite in2="SourceAlpha" operator="in" result="effect1_foregroundBlur" />
      <feBlend mode="normal" in="SourceGraphic" in2="effect1_foregroundBlur" result="shape" />
    </filter>
    <filter id="master_svg2_164_064218/406_69343" filterUnits="objectBoundingBox" color-interpolation-filters="sRGB"
      x="-0.258064508213275" y="-0.19354838115995623" width="1.51612901642655" height="1.51612901642655">
      <feFlood flood-opacity="0" result="BackgroundImageFix" />
      <feColorMatrix in="SourceAlpha" type="matrix" values="0 0 0 0 0 0 0 0 0 0 0 0 0 0 0 0 0 0 127 0" />
      <feOffset dy="1.0029382705688477" dx="0" />
      <feGaussianBlur stdDeviation="1.0029382705688477" />
      <feColorMatrix type="matrix"
        values="0 0 0 0 0.04019173979759216 0 0 0 0 0.3445005416870117 0 0 0 0 0.648809552192688 0 0 0 0.23999999463558197 0" />
      <feBlend mode="normal" in2="BackgroundImageFix" result="effect1_dropShadow" />
      <feBlend mode="normal" in="SourceGraphic" in2="effect1_dropShadow" result="shape" />
    </filter>
  </defs>
  <g>
    <g>
      <g style="opacity:0;">
        <rect x="0" y="0" width="24.070518493652344" height="24.070518493652344" rx="0" fill="#D8D8D8"
          fill-opacity="1" />
      </g>
      <g>
        <path
          d="M22.00501875,10.5308396875Q22.00501875,10.7647396875,21.99361875,10.9983596875Q21.98211875,11.2319296875,21.95911875,11.4647296875Q21.93621875,11.6975296875,21.90191875,11.9288296875Q21.86761875,12.1602296875,21.82191875,12.3896296875Q21.77631875,12.6190296875,21.71951875,12.8459296875Q21.66271875,13.0728296875,21.59481875,13.2966296875Q21.52691875,13.5204296875,21.44811875,13.7407296875Q21.36931875,13.9609296875,21.27981875,14.1770296875Q21.19021875,14.3931296875,21.09021875,14.6045296875Q20.99021875,14.8160296875,20.88001875,15.0222296875Q20.76971875,15.2285296875,20.64951875,15.4291296875Q20.52921875,15.6298296875,20.39931875,15.8242296875Q20.26931875,16.0187296875,20.13001875,16.206629687499998Q19.99071875,16.3945296875,19.84231875,16.575329687500002Q19.69391875,16.7561296875,19.53681875,16.9294296875Q19.37981875,17.1027296875,19.21441875,17.2681296875Q19.04901875,17.4335296875,18.87571875,17.5905296875Q18.70241875,17.7476296875,18.521618750000002,17.8960296875Q18.34081875,18.0444296875,18.152918749999998,18.1837296875Q17.96501875,18.3230296875,17.77051875,18.4530296875Q17.57611875,18.5829296875,17.37541875,18.7032296875Q17.17481875,18.8234296875,16.96851875,18.9337296875Q16.76231875,19.0439296875,16.550818749999998,19.1439296875Q16.33941875,19.2439296875,16.12331875,19.3335296875Q15.90721875,19.4230296875,15.68701875,19.5018296875Q15.46671875,19.5806296875,15.24291875,19.6485296875Q15.01911875,19.7164296875,14.79221875,19.7732296875Q14.56531875,19.8300296875,14.33591875,19.8756296875Q14.10651875,19.9213296875,13.87511875,19.9556296875Q13.64381875,19.9899296875,13.41101875,20.0128296875Q13.17821875,20.0358296875,12.94464875,20.0473296875Q12.71102875,20.0587296875,12.47712875,20.0587296875Q12.24323875,20.0587296875,12.00961875,20.0473296875Q11.77600875,20.0358296875,11.54323875,20.0128296875Q11.31045875,19.9899296875,11.07909875,19.9556296875Q10.84772875,19.9213296875,10.61832875,19.8756296875Q10.38892875,19.8300296875,10.16203875,19.7732296875Q9.93514875,19.7164296875,9.71132875,19.6485296875Q9.48749875,19.5806296875,9.26727875,19.5018296875Q9.04704875,19.4230296875,8.83095875,19.3335296875Q8.61486875,19.2439296875,8.40342875,19.1439296875Q8.19198875,19.0439296875,7.98570875,18.9337296875Q7.77942875,18.8234296875,7.57880875,18.7032296875Q7.37818875,18.5829296875,7.18370875,18.4530296875Q6.98922875,18.3230296875,6.80135875,18.1837296875Q6.61348875,18.0444296875,6.4326887500000005,17.8960296875Q6.2518787499999995,17.7476296875,6.07857875,17.5905296875Q5.905268749999999,17.4335296875,5.73987875,17.2681296875Q5.57448875,17.1027296875,5.4174187499999995,16.9294296875Q5.26033875,16.7561296875,5.111958749999999,16.575329687500002Q4.96356875,16.3945296875,4.82423875,16.206629687499998Q4.68490875,16.0187296875,4.55495875,15.8242296875Q4.42501875,15.6298296875,4.30476875,15.4291296875Q4.1845187500000005,15.2285296875,4.07425875,15.0222296875Q3.96400875,14.8160296875,3.8640007499999998,14.6045296875Q3.76399675,14.3931296875,3.67448775,14.1770296875Q3.58497975,13.9609296875,3.50618175,13.7407296875Q3.42738375,13.5204296875,3.35948775,13.2966296875Q3.29159075,13.0728296875,3.23475875,12.8459296875Q3.17792575,12.6190296875,3.13229475,12.3896296875Q3.08666375,12.1602296875,3.05234375,11.9288296875Q3.01802415,11.6975296875,2.99509825,11.4647296875Q2.97217235,11.2319296875,2.96069555,10.9983596875Q2.94921875,10.7647396875,2.94921875,10.5308396875Q2.94921875,10.2969496875,2.96069555,10.0633296875Q2.97217235,9.8297196875,2.99509825,9.5969496875Q3.01802415,9.3641696875,3.05234375,9.1328096875Q3.08666375,8.9014396875,3.13229475,8.6720396875Q3.17792575,8.4426396875,3.23475875,8.2157496875Q3.29159075,7.9888596875,3.35948775,7.7650396875Q3.42738375,7.5412096875,3.50618175,7.3209896875Q3.58497975,7.1007596875,3.67448775,6.8846696875Q3.76399675,6.6685796875,3.8640007499999998,6.4571396875Q3.96400875,6.2456996875,4.07425875,6.0394196875Q4.1845187500000005,5.8331396875,4.30476875,5.6325196875Q4.42501875,5.4318996875,4.55495875,5.2374196875Q4.68490875,5.0429396875,4.82423875,4.8550696875Q4.96356875,4.6671996875,5.111958749999999,4.4863996875000005Q5.26033875,4.3055896874999995,5.4174187499999995,4.1322896875Q5.57448875,3.9589796875,5.73987875,3.7935896875Q5.905268749999999,3.6281996875,6.07857875,3.4711296875Q6.2518787499999995,3.3140496875,6.4326887500000005,3.1656696875Q6.61348875,3.0172796875,6.80135875,2.8779496875Q6.98922875,2.7386196875,7.18370875,2.6086696875Q7.37818875,2.4787296875,7.57880875,2.3584796875Q7.77942875,2.2382296875,7.98570875,2.1279696875000003Q8.19198875,2.0177196875,8.40342875,1.9177116875Q8.61486875,1.8177076875,8.83095875,1.7281986875Q9.04704875,1.6386906875,9.26727875,1.5598926875Q9.48749875,1.4810946875,9.71132875,1.4131986875Q9.93514875,1.3453016875000001,10.16203875,1.2884696875000001Q10.38892875,1.2316366875,10.61832875,1.1860056875Q10.84772875,1.1403746875,11.07909875,1.1060546875Q11.31045875,1.0717350875,11.54323875,1.0488091875Q11.77600875,1.0258832875,12.00961875,1.0144064875Q12.24323875,1.0029296875,12.47712875,1.0029296875Q12.71102875,1.0029296875,12.94464875,1.0144064875Q13.17821875,1.0258832875,13.41101875,1.0488091875Q13.64381875,1.0717350875,13.87511875,1.1060546875Q14.10651875,1.1403746875,14.33591875,1.1860056875Q14.56531875,1.2316366875,14.79221875,1.2884696875000001Q15.01911875,1.3453016875000001,15.24291875,1.4131986875Q15.46671875,1.4810946875,15.68701875,1.5598926875Q15.90721875,1.6386906875,16.12331875,1.7281986875Q16.33941875,1.8177076875,16.550818749999998,1.9177116875Q16.76231875,2.0177196875,16.96851875,2.1279696875000003Q17.17481875,2.2382296875,17.37541875,2.3584796875Q17.57611875,2.4787296875,17.77051875,2.6086696875Q17.96501875,2.7386196875,18.152918749999998,2.8779496875Q18.34081875,3.0172796875,18.521618750000002,3.1656696875Q18.70241875,3.3140496875,18.87571875,3.4711296875Q19.04901875,3.6281996875,19.21441875,3.7935896875Q19.37981875,3.9589796875,19.53681875,4.1322896875Q19.69391875,4.3055896874999995,19.84231875,4.4863996875000005Q19.99071875,4.6671996875,20.13001875,4.8550696875Q20.26931875,5.0429396875,20.39931875,5.2374196875Q20.52921875,5.4318996875,20.64951875,5.6325196875Q20.76971875,5.8331396875,20.88001875,6.0394196875Q20.99021875,6.2456996875,21.09021875,6.4571396875Q21.19021875,6.6685796875,21.27981875,6.8846696875Q21.36931875,7.1007596875,21.44811875,7.3209896875Q21.52691875,7.5412096875,21.59481875,7.7650396875Q21.66271875,7.9888596875,21.71951875,8.2157496875Q21.77631875,8.4426396875,21.82191875,8.6720396875Q21.86761875,8.9014396875,21.90191875,9.1328096875Q21.93621875,9.3641696875,21.95911875,9.5969496875Q21.98211875,9.8297196875,21.99361875,10.0633296875Q22.00501875,10.2969496875,22.00501875,10.5308396875Z"
          fill="url(#master_svg0_105_35144)" fill-opacity="1" />
      </g>
      <g style="opacity:0.9599999785423279;" filter="url(#master_svg1_164_064218/406_69339)">
        <path
          d="M23.007959375,12.0352296875Q23.007959375,12.3060296875,22.994759375,12.5766296875Q22.981459375,12.8471296875,22.954859375,13.1166296875Q22.928359375,13.3861296875,22.888559375,13.6540296875Q22.848859375,13.9219296875,22.796059375,14.1875296875Q22.743159375,14.4531296875,22.677359375,14.7159296875Q22.611559375,14.9786296875,22.532959375,15.2377296875Q22.454359375,15.4969296875,22.363059375,15.7519296875Q22.271859375,16.006929687499998,22.168259375,16.2571296875Q22.064559375,16.5073296875,21.948759375,16.752129687500002Q21.832959375,16.9970296875,21.705359375,17.2358296875Q21.577659375,17.4747296875,21.438459375,17.7070296875Q21.299159375,17.9393296875,21.148759375,18.1644296875Q20.998259375,18.3896296875,20.836959375,18.6072296875Q20.675559375,18.8247296875,20.503759375,19.0341296875Q20.331959375,19.2434296875,20.150059375,19.4441296875Q19.968259375,19.6447296875,19.776659375,19.8362296875Q19.585159375,20.0278296875,19.384559375,20.2096296875Q19.183859375,20.3915296875,18.974459375,20.5633296875Q18.765159375,20.7351296875,18.547659375,20.8965296875Q18.330059375,21.0578296875,18.104859375,21.2083296875Q17.879759375,21.3587296875,17.647459375,21.4980296875Q17.415159375,21.6372296875,17.176259375,21.7649296875Q16.937459375,21.8925296875,16.692559375000002,22.0083296875Q16.447759375,22.1241296875,16.197559375,22.2278296875Q15.947359375,22.3314296875,15.692359375,22.4226296875Q15.437359375,22.5139296875,15.178159375,22.5925296875Q14.919059375,22.6711296875,14.656359375,22.7369296875Q14.393559375,22.8027296875,14.127959375,22.8556296875Q13.862359375,22.9084296875,13.594459375,22.9481296875Q13.326559375,22.9879296875,13.057059375,23.0144296875Q12.787559375,23.0410296875,12.517059375,23.0543296875Q12.246459375,23.0675296875,11.975659375,23.0675296875Q11.704859375,23.0675296875,11.434359375,23.0543296875Q11.163859375,23.0410296875,10.894319375,23.0144296875Q10.624799375,22.9879296875,10.356899375,22.9481296875Q10.089009375,22.9084296875,9.823379375,22.8556296875Q9.557759375,22.8027296875,9.295039375,22.7369296875Q9.032329375,22.6711296875,8.773169375,22.5925296875Q8.513999375000001,22.5139296875,8.258999375,22.4226296875Q8.004009374999999,22.3314296875,7.753789375,22.2278296875Q7.503579375,22.1241296875,7.258759375,22.0083296875Q7.013929375,21.8925296875,6.775079375,21.7649296875Q6.536229375,21.6372296875,6.303929375,21.4980296875Q6.071639375,21.3587296875,5.846449375,21.2083296875Q5.621269375,21.0578296875,5.403729375,20.8965296875Q5.186199375,20.7351296875,4.976849375,20.5633296875Q4.767499375,20.3915296875,4.566829375,20.2096296875Q4.3661593750000005,20.0278296875,4.1746493749999996,19.8362296875Q3.983149375,19.6447296875,3.801269375,19.4441296875Q3.619389375,19.2434296875,3.447579375,19.0340296875Q3.275769375,18.8247296875,3.114439375,18.6072296875Q2.953109375,18.3896296875,2.802639375,18.1644296875Q2.6521793750000002,17.9393296875,2.512939375,17.7070296875Q2.373709375,17.4747296875,2.246039375,17.2358296875Q2.1183693750000003,16.9970296875,2.002579375,16.752129687500002Q1.886786375,16.5073296875,1.783144375,16.2571296875Q1.679503375,16.006929687499998,1.588264375,15.7519296875Q1.497024375,15.4969296875,1.4184073750000001,15.2377296875Q1.339790375,14.9786296875,1.273984375,14.7159296875Q1.2081783750000001,14.4531296875,1.155342375,14.1875296875Q1.102506375,13.9219296875,1.062767375,13.6540296875Q1.023028775,13.3861296875,0.996482975,13.1166296875Q0.969937175,12.8471296875,0.956648275,12.5766296875Q0.943359375,12.3060296875,0.943359375,12.0352296875Q0.943359375,11.7644296875,0.956648275,11.4939296875Q0.969937175,11.2234296875,0.996482975,10.9538896875Q1.023028775,10.6843696875,1.062767375,10.4164696875Q1.102506375,10.1485796875,1.155342375,9.8829496875Q1.2081783750000001,9.6173296875,1.273984375,9.3546096875Q1.339790375,9.0918996875,1.4184073750000001,8.8327396875Q1.497024375,8.573569687500001,1.588263375,8.3185696875Q1.679503375,8.063579687499999,1.783144375,7.8133596875Q1.886786375,7.5631496875,2.002579375,7.3183296875Q2.1183693750000003,7.0734996875,2.246039375,6.8346496875Q2.373709375,6.5957996875,2.512939375,6.3634996875Q2.6521793750000002,6.1312096875,2.802639375,5.9060196875Q2.953109375,5.6808396875,3.114439375,5.4632996875Q3.275769375,5.2457696875,3.447579375,5.0364196875Q3.619389375,4.8270696875,3.801269375,4.6263996875Q3.983149375,4.4257296875000005,4.1746493749999996,4.2342196874999996Q4.3661593750000005,4.0427196875,4.566829375,3.8608396875Q4.767499375,3.6789596875,4.976849375,3.5071496875Q5.186199375,3.3353396875,5.403729375,3.1740096875Q5.621269375,3.0126796875,5.846449375,2.8622096875Q6.071639375,2.7117496875000002,6.303929375,2.5725096875Q6.536229375,2.4332796875,6.775079375,2.3056096875Q7.013929375,2.1779396875000003,7.258759375,2.0621496875Q7.503579375,1.9463566875,7.753789375,1.8427146875Q8.004009374999999,1.7390736875,8.258999375,1.6478346875Q8.513999375000001,1.5565946875,8.773169375,1.4779776875000001Q9.032329375,1.3993606875,9.295039375,1.3335546875Q9.557759375,1.2677486875000001,9.823379375,1.2149126875Q10.089009375,1.1620766875,10.356899375,1.1223376875Q10.624799375,1.0825990875,10.894319375,1.0560532875Q11.163859375,1.0295074875,11.434359375,1.0162185875Q11.704859375,1.0029296875,11.975659375,1.0029296875Q12.246459375,1.0029296875,12.517059375,1.0162185875Q12.787559375,1.0295074875,13.057059375,1.0560532875Q13.326559375,1.0825990875,13.594459375,1.1223376875Q13.862359375,1.1620766875,14.127959375,1.2149126875Q14.393559375,1.2677486875000001,14.656359375,1.3335546875Q14.919059375,1.3993606875,15.178159375,1.4779776875000001Q15.437359375,1.5565946875,15.692359375,1.6478336875Q15.947359375,1.7390736875,16.197559375,1.8427146875Q16.447759375,1.9463566875,16.692559375000002,2.0621496875Q16.937459375,2.1779396875000003,17.176259375,2.3056096875Q17.415159375,2.4332796875,17.647459375,2.5725096875Q17.879759375,2.7117496875000002,18.104859375,2.8622096875Q18.330059375,3.0126796875,18.547659375,3.1740096875Q18.765159375,3.3353396875,18.974559375,3.5071496875Q19.183859375,3.6789596875,19.384559375,3.8608396875Q19.585159375,4.0427196875,19.776659375,4.2342196874999996Q19.968259375,4.4257296875000005,20.150059375,4.6263996875Q20.331959375,4.8270696875,20.503759375,5.0364196875Q20.675559375,5.2457696875,20.836959375,5.4632996875Q20.998259375,5.6808396875,21.148759375,5.9060196875Q21.299159375,6.1312096875,21.438459375,6.3634996875Q21.577659375,6.5957996875,21.705359375,6.8346496875Q21.832959375,7.0734996875,21.948759375,7.3183296875Q22.064559375,7.5631496875,22.168259375,7.8133596875Q22.271859375,8.063579687499999,22.363059375,8.3185696875Q22.454359375,8.573569687500001,22.532959375,8.8327396875Q22.611559375,9.0918996875,22.677359375,9.3546096875Q22.743159375,9.6173296875,22.796059375,9.8829496875Q22.848859375,10.1485796875,22.888559375,10.4164696875Q22.928359375,10.6843696875,22.954859375,10.9538896875Q22.981459375,11.2234296875,22.994759375,11.4939296875Q23.007959375,11.7644296875,23.007959375,12.0352296875Z"
          fill="#AED6FF" fill-opacity="1" />
      </g>
      <g style="opacity:0.9599999785423279;">
        <path
          d="M4.9680022785,11.60247135125C4.9674694875,11.61122803125,4.9679981875,11.60691357125,4.9682668535,11.59814453125L4.9680022785,11.60247135125Z"
          fill="#AED6FF" fill-opacity="1" />
      </g>
    </g>
    <g filter="url(#master_svg2_164_064218/406_69343)">
      <path
        d="M14.794447344970703,17.2960953125Q15.658547344970703,15.2798953125,15.730047344970703,12.5366253125L18.226047344970702,12.5366253125Q18.063947344970703,14.8116953125,16.4077473449707,16.467895312499998Q15.572547344970703,17.302995312500002,14.580047344970703,17.7582953125Q14.690347344970704,17.5388953125,14.794447344970703,17.2960953125ZM11.975487344970702,19.8081953125L11.975317344970703,19.8081953125Q8.755737344970704,19.8081953125,6.479147344970704,17.5316953125Q5.949447344970703,17.0019953125,5.5306273449707035,16.3820953125C5.448617344970703,16.260695312499998,5.403847344970703,16.118295312500003,5.401637344970704,15.9720953125L5.401557344970703,15.9606953125C5.401557344970703,15.7108953125,5.525627344970703,15.4772953125,5.732667344970703,15.3373953125C5.856347344970703,15.2538953125,6.002097344970704,15.2089953125,6.1513573449707035,15.2084953125L6.153757344970703,15.2084953125C6.201747344970704,15.2084953125,6.249627344970703,15.2130953125,6.296737344970703,15.2221953125C6.492597344970703,15.2601953125,6.665377344970703,15.3742953125,6.777047344970703,15.5395953125L6.7780273449707025,15.5410953125Q7.115777344970703,16.0406953125,7.542917344970704,16.467895312499998Q8.378257344970702,17.3031953125,9.371017344970703,17.7584953125Q9.260667344970702,17.5389953125,9.156547344970704,17.2960953125Q8.292457344970703,15.2798953125,8.220927344970704,12.5366253125L4.954817344970703,12.5366253125C4.539387344970703,12.5366253125,4.202613830970703,12.199845312499999,4.202613830970703,11.7844153125C4.202613830970703,11.7355553125,4.2072723049707035,11.6877853125,4.216169344970703,11.6415253125Q4.214921944970703,11.6128353125,4.215815744970703,11.5836953125Q4.216201144970703,11.571125312500001,4.217087844970703,11.556555312499999L4.217352544970703,11.5522253125Q4.405431344970703,8.4919753125,6.6411773449707034,6.3818653125Q8.886527344970702,4.2626953125,11.975327344970703,4.2626953125L11.975487344970702,4.2626953125L11.978887344970703,4.26269770829Q15.196147344970703,4.2639554525,17.471547344970702,6.539285312500001Q18.000947344970704,7.0686853124999995,18.4201473449707,7.6891153125C18.503747344970705,7.8127953125000005,18.548647344970703,7.9585353125000005,18.549047344970703,8.1077953125L18.549047344970703,8.1102053125C18.549047344970703,8.1581953125,18.544547344970702,8.2060653125,18.535347344970702,8.2531853125C18.497447344970702,8.449045312500001,18.383247344970705,8.6218153125,18.217947344970703,8.7334953125C18.096847344970705,8.8153453125,17.954447344970703,8.8601053125,17.808247344970702,8.8623153125L17.7968473449707,8.8624053125C17.547047344970704,8.8624053125,17.313447344970704,8.7383353125,17.173547344970704,8.5312853125L17.172647344970706,8.5298453125Q16.834847344970704,8.030215312500001,16.4077473449707,7.6030653125Q15.572547344970703,6.7679053125,14.580047344970703,6.3126553125000004Q14.690347344970704,6.5320253125,14.794447344970703,6.774865312499999Q15.578447344970703,8.6042653125,15.709947344970702,11.0322153125L18.995947344970702,11.0322153125C19.411347344970704,11.0322153125,19.748147344970704,11.368985312500001,19.748147344970704,11.7844153125C19.748147344970704,11.8272553125,19.744547344970705,11.8692553125,19.737747344970703,11.9101353125C19.744547344970705,11.9508953125,19.7480473449707,11.992765312500001,19.7480473449707,12.035465312500001Q19.7480473449707,15.2550953125,17.471547344970702,17.5316953125Q15.194947344970704,19.8081953125,11.975487344970702,19.8081953125ZM11.975547344970703,5.7671053125L11.975327344970703,5.7671053125Q11.695737344970702,5.7671853125000005,11.378357344970702,6.0603653125Q10.916767344970703,6.4867553125,10.539317344970703,7.3674853124999995Q9.872727344970702,8.9228453125,9.747727344970702,11.0322153125L14.203247344970704,11.0322153125Q14.078237344970702,8.9228453125,13.411657344970703,7.3674853124999995Q13.034197344970703,6.4867553125,12.572607344970702,6.0603653125Q12.255177344970702,5.7671353125,11.975547344970703,5.7671053125ZM9.368907344970703,6.3166553125Q8.457587344970703,6.7361753125,7.673767344970703,7.4759453125Q6.098687344970703,8.962515312499999,5.783747344970703,11.0322153125L8.240987344970703,11.0322153125Q8.372517344970703,8.6042653125,9.156547344970704,6.774865312499999Q9.259677344970704,6.5342353125,9.368907344970703,6.3166553125ZM11.975317344970703,18.3037953125L11.975487344970702,18.3037953125Q12.255137344970704,18.3037953125,12.572607344970702,18.0105953125Q13.034197344970703,17.5841953125,13.411657344970703,16.7034953125Q14.156367344970704,14.9657953125,14.225147344970702,12.5366253125L9.725867344970702,12.5366253125Q9.794597344970704,14.9657953125,10.539317344970703,16.7034953125Q10.916767344970703,17.5841953125,11.378357344970702,18.0105953125Q11.695737344970702,18.3037953125,11.975317344970703,18.3037953125ZM4.518390344970703,10.995215312500001C4.5906423449707034,10.9413253125,4.671993344970703,10.9008553125,4.758564344970703,10.8757353125Q4.627006344970703,10.9098053125,4.518390344970703,10.995215312500001Z"
        fill-rule="evenodd" fill="#FFFFFF" fill-opacity="1" />
    </g>
  </g>
</svg>