<svg xmlns="http://www.w3.org/2000/svg" xmlns:xlink="http://www.w3.org/1999/xlink" fill="none" version="1.1" width="24"
  height="24" viewBox="0 0 24 24">
  <defs>
    <filter id="master_svg0_261_001566" filterUnits="objectBoundingBox" color-interpolation-filters="sRGB" x="0" y="0"
      width="1" height="1">
      <feFlood flood-opacity="0" result="BackgroundImageFix" />
      <feBlend mode="normal" in="SourceGraphic" in2="BackgroundImageFix" result="shape" />
      <feGaussianBlur in="BackgroundImageFix" stdDeviation="2.0399999618530273" />
      <feComposite in2="SourceAlpha" operator="in" result="effect1_foregroundBlur" />
      <feBlend mode="normal" in="SourceGraphic" in2="effect1_foregroundBlur" result="shape" />
    </filter>
    <linearGradient x1="0.6672566533088684" y1="-0.5060058832168579" x2="0.44230379201007924" y2="1.080600563132411"
      id="master_svg1_261_001404">
      <stop offset="0%" stop-color="#1DD4FF" stop-opacity="1" />
      <stop offset="94.81717348098755%" stop-color="#0280FF" stop-opacity="1" />
    </linearGradient>
  </defs>
  <g>
    <g style="opacity:0;">
      <rect x="0" y="0" width="23.9296875" height="23.9296875" rx="0" fill="#D8D8D8" fill-opacity="1" />
    </g>
    <g style="opacity:0.9599999785423279;" filter="url(#master_svg0_261_001566)">
      <path
        d="M4,6.70931L4,13.6666Q4,16.2078,10.43508,20.0896C11.3921,20.6669,12.6079,20.6669,13.56492,20.0896Q20,16.2078,20,13.6666L20,6.70931C20,5.3754100000000005,19.1726,4.18971,17.9236,3.72135L13.1236,1.921348C12.39916,1.649686,11.60084,1.649686,10.8764,1.921348L6.07641,3.72135C4.827433,4.18971,4,5.3754100000000005,4,6.70931Z"
        fill="#AED6FF" fill-opacity="1" />
    </g>
    <g>
      <path
        d="M4,8.20747L4,15.2307Q4,17.7235,11.267579999999999,21.614C11.726759999999999,21.8598,12.27324,21.8598,12.73242,21.614Q20,17.7235,20,15.2307L20,8.20747C20,7.35506,19.459699999999998,6.5822199999999995,18.6542,6.303380000000001L12.65422,4.226461C12.23041,4.0797573,11.76959,4.0797573,11.345780000000001,4.226461L5.3457799999999995,6.303380000000001C4.540266,6.5822199999999995,4,7.35506,4,8.20747Z"
        fill="url(#master_svg1_261_001404)" fill-opacity="1" />
    </g>
    <g>
      <path
        d="M16.1032,10.6109619140625L11.90192,14.9893319140625C11.64093,15.2613219140625,11.20164,15.2466719140625,10.95936,14.9579019140625L8.5,12.0266319140625L9.81837,12.0266319140625L11.58188,13.5093919140625L14.869720000000001,10.6109619140625L16.1032,10.6109619140625Z"
        fill-rule="evenodd" fill="#FFFFFF" fill-opacity="1" />
    </g>
  </g>
</svg>