<svg xmlns="http://www.w3.org/2000/svg" xmlns:xlink="http://www.w3.org/1999/xlink" fill="none" version="1.1"
  width="44.4375" height="45.444091796875" viewBox="0 0 44.4375 45.444091796875">
  <defs>
    <filter id="master_svg0_484_67034" filterUnits="objectBoundingBox" color-interpolation-filters="sRGB"
      x="-1.032258064516129" y="-0.7319444300815514" width="3.064516129032258" height="2.9518518135508036">
      <feFlood flood-opacity="0" result="BackgroundImageFix" />
      <feColorMatrix in="SourceAlpha" type="matrix" values="0 0 0 0 0 0 0 0 0 0 0 0 0 0 0 0 0 0 127 0" />
      <feOffset dy="4.5" dx="0" />
      <feGaussianBlur stdDeviation="4.5" />
      <feColorMatrix type="matrix"
        values="0 0 0 0 0.5676189661026001 0 0 0 0 0.206237331032753 0 0 0 0 0.08133564889431 0 0 0 0.34613507986068726 0" />
      <feBlend mode="normal" in2="BackgroundImageFix" result="effect1_dropShadow" />
      <feBlend mode="normal" in="SourceGraphic" in2="effect1_dropShadow" result="shape" />
      <feColorMatrix in="SourceAlpha" type="matrix" result="hardAlpha"
        values="0 0 0 0 0 0 0 0 0 0 0 0 0 0 0 0 0 0 127 0" />
      <feOffset dy="2.8125" dx="0" />
      <feGaussianBlur stdDeviation="1.40625" />
      <feComposite in2="hardAlpha" operator="arithmetic" k2="-1" k3="1" />
      <feColorMatrix type="matrix" values="0 0 0 0 1 0 0 0 0 1 0 0 0 0 1 0 0 0 0.638427734375 0" />
      <feBlend mode="normal" in2="shape" result="effect2_innerShadow" />
      <feGaussianBlur in="BackgroundImageFix" stdDeviation="1.1606895923614502" />
      <feComposite in2="SourceAlpha" operator="in" result="effect3_foregroundBlur" />
      <feBlend mode="normal" in="SourceGraphic" in2="effect3_foregroundBlur" result="shape" />
    </filter>
    <linearGradient x1="0.13866344094276428" y1="0.9282519221305847" x2="0.9411487737091627" y2="-0.15008090426876497"
      id="master_svg1_105_32858">
      <stop offset="0%" stop-color="#FFD2C6" stop-opacity="0.24733835458755493" />
      <stop offset="48.08903634548187%" stop-color="#FFFFFF" stop-opacity="0.009999999776482582" />
      <stop offset="100%" stop-color="#FFE7B2" stop-opacity="0.009999999776482582" />
    </linearGradient>
    <linearGradient x1="0.8150909543037415" y1="-0.035498254001140594" x2="0.6383760448820298" y2="0.8257157430082586"
      id="master_svg2_105_32854">
      <stop offset="0%" stop-color="#FFBE5C" stop-opacity="1" />
      <stop offset="36.67292296886444%" stop-color="#FF7A48" stop-opacity="1" />
      <stop offset="100%" stop-color="#FF4D0F" stop-opacity="1" />
    </linearGradient>
    <filter id="master_svg3_484_67039" filterUnits="objectBoundingBox" color-interpolation-filters="sRGB" x="0" y="0"
      width="1" height="1">
      <feFlood flood-opacity="0" result="BackgroundImageFix" />
      <feBlend mode="normal" in="SourceGraphic" in2="BackgroundImageFix" result="shape" />
      <feColorMatrix in="SourceAlpha" type="matrix" result="hardAlpha"
        values="0 0 0 0 0 0 0 0 0 0 0 0 0 0 0 0 0 0 127 0" />
      <feOffset dy="0.5625" dx="0" />
      <feGaussianBlur stdDeviation="3.09375" />
      <feComposite in2="hardAlpha" operator="arithmetic" k2="-1" k3="1" />
      <feColorMatrix type="matrix"
        values="0 0 0 0 1 0 0 0 0 0.5369652509689331 0 0 0 0 0.25797685980796814 0 0 0 0.4291360378265381 0" />
      <feBlend mode="normal" in2="shape" result="effect1_innerShadow" />
      <feGaussianBlur in="BackgroundImageFix" stdDeviation="2.2950000762939453" />
      <feComposite in2="SourceAlpha" operator="in" result="effect2_foregroundBlur" />
      <feBlend mode="normal" in="SourceGraphic" in2="effect2_foregroundBlur" result="shape" />
    </filter>
    <linearGradient x1="0.5" y1="0.8307752013206482" x2="0.6910132332308441" y2="0.12435761914228771"
      id="master_svg4_105_32845">
      <stop offset="0%" stop-color="#FFDDD0" stop-opacity="0.4726272225379944" />
      <stop offset="47.21796214580536%" stop-color="#FFE5B1" stop-opacity="0.12198324501514435" />
      <stop offset="100%" stop-color="#FFCCA0" stop-opacity="0.5230908989906311" />
    </linearGradient>
    <linearGradient x1="0.36701688170433044" y1="1" x2="0.8940028571306323" y2="0.08866759283766223"
      id="master_svg5_105_32847">
      <stop offset="0%" stop-color="#FFFFFF" stop-opacity="1" />
      <stop offset="48.064637184143066%" stop-color="#FFECE5" stop-opacity="0.49436938762664795" />
      <stop offset="100%" stop-color="#FFECE7" stop-opacity="0.37835991382598877" />
    </linearGradient>
  </defs>
  <g>
    <g style="opacity:0;">
      <rect x="3.9375" y="1.6875" width="36" height="36" rx="0" fill="#D8D8D8" fill-opacity="1" />
    </g>
    <g filter="url(#master_svg0_484_67034)">
      <path
        d="M22.21875,9C17.40352,9,13.5,12.7776,13.5,17.4375C13.5,18.85417,13.860778,20.1893,14.498271,21.3615C15.20969,22.6697,13.609959,26.4684,14.89377,27.2578C16.24362,28.0877,20.50106,25.875,22.21875,25.875C24.3899,25.875,27.3829,28.1363,28.909100000000002,26.8656C30.0739,25.8959,29.9638,21.604100000000003,30.4713,20.166800000000002C30.7735,19.3107,30.9375,18.39264,30.9375,17.4375C30.9375,12.7776,27.034,9,22.21875,9Z"
        fill-rule="evenodd" fill="url(#master_svg1_105_32858)" fill-opacity="1" />
    </g>
    <g>
      <g>
        <g style="opacity:0;">
          <rect x="8.4375" y="2.8125" width="27" height="27" rx="0" fill="#D8D8D8" fill-opacity="1" />
        </g>
        <g>
          <path
            d="M22.084577839355468,26.02748177032471Q20.46594783935547,25.083181770324707,18.85417783935547,22.113581770324707Q17.90672783935547,20.367981770324707,16.55979883935547,11.447571770324707C16.431199839355468,10.595891770324707,17.26337383935547,9.910554770324707,18.06135783935547,10.234779770324707Q27.159747839355468,13.931501770324708,28.74994783935547,16.312501770324708Q30.454247839355467,18.864501770324708,30.48944783935547,20.401681770324707C30.49044783935547,20.444681770324706,30.49264783935547,20.487381770324706,30.49754783935547,20.530081770324706L30.94854783935547,24.44538177032471C31.248947839355466,27.053281770324705,28.58784783935547,28.990581770324706,26.198357839355467,27.903781770324706L22.173077839355468,26.072881770324706C22.142797839355467,26.059081770324706,22.113317839355467,26.044181770324705,22.084577839355468,26.02748177032471"
            fill-rule="evenodd" fill="url(#master_svg2_105_32854)" fill-opacity="1" />
        </g>
        <g filter="url(#master_svg3_484_67039)">
          <path
            d="M21.1633,26.4908L18.0569,27.9038C15.66739,28.9906,13.006350000000001,27.0533,13.30673,24.4454L13.708829999999999,20.9545C13.744710000000001,20.6431,13.64897,20.3307,13.44468,20.0929L10.416319999999999,16.5666C8.75599,14.6333,9.755230000000001,11.6278,12.242619999999999,11.07352L16.23332,10.18423C16.532690000000002,10.11752,16.791800000000002,9.93146,16.9508,9.66914L19.2411,5.88904C20.5548,3.72093,23.7005,3.72093,25.0141,5.88904L27.3045,9.66914C27.4634,9.93146,27.7226,10.11752,28.022,10.18423L32.012699999999995,11.07352C34.5,11.6278,35.499300000000005,14.6333,33.839,16.5666L33.057,17.4771C31.3479,19.4672,29.5333,21.3932,27.3894,22.905Q26.9764,23.1962,26.5507,23.4805Q24.8613,24.6091,23.0671,25.5663C22.444000000000003,25.8987,21.8061,26.1984,21.1633,26.4908"
            fill-rule="evenodd" fill="url(#master_svg4_105_32845)" fill-opacity="1" />
          <path
            d="M23.1613,25.7428Q24.9641,24.7809,26.6618,23.6468Q27.0896,23.3611,27.5046,23.0684Q30.0756,21.2556,33.2088,17.6074L33.990700000000004,16.6969Q35.3097,15.161,34.671,13.2398Q34.0322,11.3187,32.056200000000004,10.87831L28.0655,9.98902Q27.6801,9.90315,27.4755,9.5655L25.1852,5.7854Q24.1416,4.06296,22.1276,4.06296Q20.1137,4.06296,19.0701,5.7854L16.7797,9.5655Q16.57516,9.90315,16.189819999999997,9.98902L12.19912,10.87831Q10.22302,11.3187,9.58429,13.2398Q8.94555,15.161,10.26459,16.6969L13.29296,20.2232Q13.55642,20.5299,13.51015,20.9317L13.10805,24.4225Q12.99236,25.4269,13.40452,26.3224Q13.79317,27.1668,14.55539,27.7218Q15.31761,28.2767,16.2406,28.3872Q17.2194,28.5044,18.139699999999998,28.0858L21.2461,26.6729Q22.4112,26.1429,23.1613,25.7428ZM27.2741,22.7415Q26.8632,23.0313,26.4396,23.3142Q24.7584,24.4373,22.973,25.3899Q22.234099999999998,25.784,21.0805,26.3088L17.9741,27.7217Q16.28817,28.4885,14.79083,27.3984Q13.293479999999999,26.3083,13.50542,24.4683L13.90752,20.9774Q13.9738,20.402,13.596409999999999,19.9625L10.56804,16.4363Q9.39659,15.0722,9.96386,13.366Q10.531130000000001,11.6598,12.28612,11.2687L16.27682,10.37944Q16.8288,10.25644,17.1218,9.77278L19.4122,5.99268Q20.339,4.46296,22.1276,4.46296Q23.9162,4.46296,24.8431,5.99268L27.1334,9.77278Q27.4265,10.25644,27.9785,10.37944L31.9692,11.2687Q33.724199999999996,11.6598,34.291399999999996,13.366Q34.8587,15.0723,33.687200000000004,16.4363L32.9053,17.3468Q29.8044,20.9574,27.2741,22.7415Z"
            fill-rule="evenodd" fill="url(#master_svg5_105_32847)" fill-opacity="1" />
        </g>
        <g>
          <path
            d="M20.309590332336427,18.252349130249023Q20.601112332336427,18.452825130249025,20.927125332336427,18.588009130249024Q21.543865332336427,18.843750830249025,22.218755332336425,18.843750830249025Q22.893635332336427,18.843750830249025,23.510375332336427,18.588009130249024Q23.836395332336426,18.452824130249024,24.127915332336425,18.252346130249023Q24.239335332336424,18.165305130249024,24.373025332336425,18.119277130249024Q24.506715332336427,18.073249130249025,24.648105332336428,18.073249130249025Q24.731335332336425,18.073249130249025,24.812955332336426,18.089485130249024Q24.894585332336426,18.105722130249024,24.971475332336425,18.13757113024902Q25.048365332336424,18.169420130249023,25.117565332336426,18.215657130249024Q25.186765332336424,18.261895130249023,25.245615332336428,18.320744130249025Q25.304455332336424,18.379593130249024,25.350695332336425,18.448792130249025Q25.396935332336426,18.517991130249023,25.428785332336425,18.594882130249022Q25.460635332336427,18.671772130249025,25.476865332336427,18.753398130249025Q25.493105332336427,18.835023930249022,25.493105332336427,18.918249130249023Q25.493105332336427,19.026130130249022,25.466005332336426,19.130551130249025Q25.438895332336426,19.234972130249023,25.386425332336426,19.329233130249023Q25.333955332336426,19.423495130249023,25.259485332336425,19.501550130249022Q25.185015332336427,19.579605130249025,25.093325332336427,19.636446130249023Q24.651785332336427,19.941539130249023,24.156755332336424,20.146809130249025Q23.229635332336425,20.531249130249023,22.218755332336425,20.531249130249023Q21.207865332336425,20.531249130249023,20.280747332336425,20.146809130249025Q19.785718322336425,19.941539130249023,19.344179332336427,19.636446130249023Q19.252486332336424,19.579605130249025,19.178016332336426,19.501550130249022Q19.103546332336425,19.423495130249023,19.051075332336424,19.329234130249024Q18.998604332336427,19.234972130249023,18.971500332336426,19.130551130249025Q18.944395332336427,19.026130130249022,18.944395332336427,18.918249130249023Q18.944395332336427,18.835023930249022,18.960631332336426,18.753398130249025Q18.976868332336426,18.671772130249025,19.008717332336424,18.594882130249022Q19.040566332336425,18.517991130249023,19.086803332336427,18.448792130249025Q19.133041332336425,18.379593130249024,19.191890332336428,18.320744130249025Q19.250739332336426,18.261895130249023,19.319938332336427,18.215657130249024Q19.389137332336425,18.169420130249023,19.466028332336425,18.13757113024902Q19.542918332336427,18.105722130249024,19.624544332336427,18.089485130249024Q19.706170132336425,18.073249130249025,19.789395332336426,18.073249130249025Q19.930787332336426,18.073249130249025,20.064477332336427,18.119278130249022Q20.198167332336425,18.165306130249025,20.309590332336427,18.252349130249023Z"
            fill-rule="evenodd" fill="#FFFFFF" fill-opacity="1" />
        </g>
      </g>
    </g>
  </g>
</svg>