<svg xmlns="http://www.w3.org/2000/svg" xmlns:xlink="http://www.w3.org/1999/xlink" fill="none" version="1.1" width="16"
  height="16" viewBox="0 0 16 16">
  <g>
    <g style="opacity:0;">
      <path d="M0,0L16,0L16,16L0,16L0,0Z" fill="black" fill-opacity="1" />
    </g>
    <g>
      <path
        d="M11.80101875,1.5640118359375L5.440098750000001,0.8934378659375L5.35212875,0.8867745359375C4.56384875,0.8500046359375,3.87463875,1.4345668359375,3.79199875,2.2292718359375L3.58142875,4.2373318359375L2.49616675,4.690561835937499L2.40493775,4.7322718359375C1.89852175,4.9845818359375,1.57421875,5.5032118359375,1.57421875,6.0747018359375L1.57421875,13.3179318359375L1.57676509,13.4060318359375C1.62238835,14.1935318359375,2.27537875,14.8179318359375,3.07421875,14.8179318359375L12.92611875,14.8179318359375L13.01421875,14.8154318359375C13.80161875,14.7697318359375,14.42611875,14.1168318359375,14.42611875,13.3179318359375L14.42611875,6.0747018359375L14.42271875,5.9744418359375C14.38511875,5.4099118359375,14.03151875,4.9107918359375,13.50411875,4.690561835937499L13.00261875,4.4811318359375L13.13561875,3.2126718359375L13.14221875,3.1247618359375C13.17841875,2.3370318359375,12.59481875,1.6483278359375,11.80101875,1.5640118359375ZM11.69481875,7.3732018359375L11.71161875,7.2041718359375L12.14111875,3.1088118359375C12.16761875,2.8535418359375,11.99751875,2.6229418359375,11.75331875,2.5679618359375L11.69571875,2.5584618359375L5.33552875,1.8879518359375C5.08054875,1.8612168359374999,4.850418749999999,2.0310518359375003,4.79596875,2.2754618359375L4.78658875,2.3331318359375L4.26694875,7.2872318359375L4.2576487499999995,7.3598418359375L7.33645875,8.2188318359375C7.72239875,8.3265018359375,8.12799875,8.3384718359375,8.51830875,8.254721835937499L8.66388875,8.2188318359375L11.69481875,7.3732018359375ZM6.15429875,4.1411118359375L6.65150875,4.1938418359375L7.54985875,4.2891018359375L8.047068750000001,4.3418318359375L8.152518749999999,3.3474018359375L7.65530875,3.2946818359375L6.75696875,3.1994118359375L6.25974875,3.1466818359375L6.15429875,4.1411118359375ZM6.05368875,4.9485018359375L5.94433875,5.9425118359375L8.74181875,6.2502518359375L8.85116875,5.2562518359375L6.05368875,4.9485018359375ZM2.88153875,5.6133218359375L3.46257875,5.3706618359375L3.28251875,7.0877818359375L2.57421875,6.8901718359375L2.57421875,6.0747018359375L2.57779875,6.0148718359375C2.59910875,5.8376518359375,2.71401875,5.6832818359375,2.88153875,5.6133218359375ZM13.42611875,6.0747018359375L13.42611875,6.8901818359375L12.72961875,7.0844918359375L12.89381875,5.5193618359375L13.11871875,5.6133218359375L13.17261875,5.6396818359375C13.32791875,5.7276418359375,13.42611875,5.8931718359375,13.42611875,6.0747018359375ZM2.57421875,13.3179318359375L2.57421875,7.9283618359375L7.06771875,9.1820418359375L7.22090875,9.2210418359375C7.78495875,9.3510418359375,8.37346875,9.3380418359375,8.93262875,9.1820418359375L12.09811875,8.298861835937501C12.10051875,8.299141835937501,12.10291875,8.299391835937499,12.10531875,8.2996318359375C12.23751875,8.312751835937501,12.36281875,8.273111835937499,12.46031875,8.1978218359375L13.42611875,7.9283718359375L13.42611875,13.3179318359375L13.42271875,13.3762318359375C13.39381875,13.6249318359375,13.18251875,13.8179318359375,12.92611875,13.8179318359375L3.07421875,13.8179318359375L3.01590875,13.8146318359375C2.7672387499999997,13.7857318359375,2.57421875,13.5743318359375,2.57421875,13.3179318359375Z"
        fill-rule="evenodd" fill="black" fill-opacity="1" />
    </g>
  </g>
</svg>