<svg xmlns="http://www.w3.org/2000/svg" xmlns:xlink="http://www.w3.org/1999/xlink" fill="none" version="1.1" width="16"
  height="16" viewBox="0 0 16 16">
  <defs>
    <clipPath id="master_svg0_787_012450">
      <rect x="0" y="0" width="16" height="16" rx="0" />
    </clipPath>
  </defs>
  <g clip-path="url(#master_svg0_787_012450)">
    <g>
      <g>
        <path
          d="M8,9C9.38071,9,10.5,7.8807100000000005,10.5,6.5C10.5,5.1192899999999995,9.38071,4,8,4C6.6192899999999995,4,5.5,5.1192899999999995,5.5,6.5C5.5,7.8807100000000005,6.6192899999999995,9,8,9ZM8,5C8.82843,5,9.5,5.67157,9.5,6.5C9.5,7.32843,8.82843,8,8,8C7.17157,8,6.5,7.32843,6.5,6.5C6.5,5.67157,7.17157,5,8,5Z"
          fill-rule="evenodd" fill="black" fill-opacity="1" />
      </g>
      <g>
        <path
          d="M7.99990234375,15Q13.59990234375,9.6928,13.59990234375,6.6C13.59990234375,3.50721,11.09270234375,1,7.99990234375,1C4.907112343750001,1,2.39990234375,3.50721,2.39990234375,6.6Q2.39990234375,9.6928,7.99990234375,15ZM7.99990234375,13.6102Q3.39990134375,9.08355,3.39990234375,6.6Q3.39990234375,4.6946200000000005,4.74721234375,3.34731Q6.0945223437500005,2,7.99990234375,1.9999989999999999Q9.905282343749999,2,11.25259234375,3.34731Q12.59990234375,4.6946200000000005,12.59990234375,6.6Q12.59990234375,9.08355,7.99990234375,13.6102Z"
          fill-rule="evenodd" fill="black" fill-opacity="1" />
      </g>
    </g>
  </g>
</svg>