<svg xmlns="http://www.w3.org/2000/svg" xmlns:xlink="http://www.w3.org/1999/xlink" fill="none" version="1.1" width="16"
  height="16" viewBox="0 0 16 16">
  <defs>
    <mask id="master_svg0_975_97936" style="mask-type:alpha" maskUnits="objectBoundingBox">
      <g>
        <g>
          <path d="M0,0L16,0L16,16L0,16L0,0Z" fill="black" fill-opacity="1" />
        </g>
      </g>
    </mask>
  </defs>
  <g>
    <g style="opacity:0;">
      <path d="M0,0L16,0L16,16L0,16L0,0Z" fill="black" fill-opacity="1" />
    </g>
    <g mask="url(#master_svg0_975_97936)">
      <g>
        <path
          d="M12.28467734375,4.560042578125L12.62927734375,5.445752578125C12.72457734375,5.682082578125,12.81087734375,5.875102578125,12.90617734375,6.059432578125L13.74297734375,7.627772578125L14.01447734375,8.149862578125L14.12377734375,8.366622578125L14.21107734375,8.545332578124999L14.29587734375,8.728642578125L14.26967734375,8.750882578125C14.21427734375,8.794622578125,14.14627734375,8.843122578125,14.06807734375,8.893902578125C13.77917734375,9.081532578125,13.39687734375,9.272882578125,13.02557734375,9.411842578125L12.70087734375,9.533382578125L12.70127734375,9.986492578125L12.70787734375,10.473872578125L12.70797734375,10.780242578125L12.70377734375,10.952842578125C12.68047734375,11.624442578125,12.56287734375,12.046442578125,12.34347734375,12.236142578125C11.95837734375,12.582842578125,11.33047734375,12.752542578125,10.43297734375,12.723642578125L9.91687734375,12.707042578125L9.91687734375,15.337642578125L10.91687734375,15.337642578125L10.91637734375,13.719642578125L11.08187734375,13.709642578125C11.88987734375,13.646742578125,12.53417734375,13.410142578125,13.00527734375,12.985842578125C13.48957734375,12.566942578125,13.67087734375,11.916242578125,13.70317734375,10.987642578125C13.70657734375,10.890542578125,13.70837734375,10.800742578125,13.70877734375,10.699842578125L13.70847734375,10.537752578125L13.70437734375,10.217142578125L13.83657734375,10.159362578125C14.69037734375,9.775552578125,15.35187734375,9.276332578125,15.35187734375,8.806412578125C15.35187734375,8.698352578125,15.31427734375,8.560432578124999,15.22167734375,8.344462578125L15.15147734375,8.188392578125L15.06387734375,8.006022578125L14.98437734375,7.846852578125L14.87957734375,7.642012578125L14.69267734375,7.284442578125L13.81317734375,5.635942578125L13.74717734375,5.505862578125C13.66887734375,5.345382578125,13.59227734375,5.164982578125,13.50247734375,4.934822578125L13.24507734375,4.267322578125L13.15837734375,4.057592578125C13.10277734375,3.928242578125,13.05037734375,3.817082578125,12.99317734375,3.707622578125L12.94347734375,3.612972578125L12.85907734375,3.456122578125L12.78307734375,3.323402578125C12.77027734375,3.302012578125,12.75737734375,3.280672578125,12.74387734375,3.258892578125L12.65457734375,3.119252578125C12.45627734375,2.817002578125,12.22437734375,2.529162578125,11.94727734375,2.2580825781250002C10.93147734375,1.264320578125,9.50448734375,0.674683098125,7.59343734375,0.671649456125C3.90794734375,0.626055278125,0.87689685375,3.660732578125,0.88429069515,6.647202578125L0.88685226375,6.803532578125C0.93260714375,8.274682578124999,1.6187213437499999,10.084862578125,2.93194734375,12.251642578125L2.99989734375,12.362642578125L3.00010734375,15.337642578125L4.00010734375,15.337642578125L4.00010734375,12.079542578125L3.79087734375,11.739442578125C2.51498734375,9.635422578125,1.88439734375,7.930692578125,1.88439734375,6.645942578125C1.87871734375,4.3842025781250005,4.107687343749999,1.993742578125,6.93749734375,1.701082578125L6.93749734375,5.520102578125C5.79877734375,5.833852578125,4.96239734375,6.876962578125,4.96239734375,8.115412578125C4.96239734375,9.602042578125,6.16754734375,10.807142578125,7.65417734375,10.807142578125C8.29560734375,10.807142578125,8.88463734375,10.582832578125,9.34707734375,10.208312578125L10.08228734375,10.868942578125C10.12618734375,11.215142578125,10.42173734375,11.482742578125,10.77978734375,11.482742578125C11.16807734375,11.482742578125,11.48287734375,11.167942578125,11.48287734375,10.779642578125C11.48287734375,10.391272578125,11.16807734375,10.076472578125,10.77978734375,10.076472578125C10.75325734375,10.076472578125,10.72707734375,10.077942578125,10.70131734375,10.080802578125L9.99470734375,9.445842578125C10.21824734375,9.053432578125,10.34594734375,8.599342578125,10.34594734375,8.115412578125C10.34594734375,6.724482578125,9.29094734375,5.579952578125,7.93749734375,5.438372578125L7.93749734375,1.679702578125C9.40886734375,1.746222578125,10.47760734375,2.2192925781249997,11.24797734375,2.972912578125C11.64067734375,3.357122578125,11.84187734375,3.663822578125,12.10687734375,4.170842578125C12.14187734375,4.237662578125001,12.17557734375,4.307692578125,12.21097734375,4.387052578125L12.28467734375,4.560042578125ZM9.34594734375,8.115412578125C9.34594734375,7.181072578125,8.58851734375,6.423642578125,7.65417734375,6.423642578125C6.71983734375,6.423642578125,5.96239734375,7.181072578125,5.96239734375,8.115412578125C5.96239734375,9.049752578125,6.71983734375,9.807192578125,7.65417734375,9.807192578125C8.58851734375,9.807192578125,9.34594734375,9.049752578125,9.34594734375,8.115412578125Z"
          fill-rule="evenodd" fill="black" fill-opacity="1" />
      </g>
    </g>
  </g>
</svg>