<svg xmlns="http://www.w3.org/2000/svg" xmlns:xlink="http://www.w3.org/1999/xlink" fill="none" version="1.1" width="16"
  height="16" viewBox="0 0 16 16">
  <defs>
    <clipPath id="master_svg0_898_012854">
      <rect x="0" y="0" width="16" height="16" rx="0" />
    </clipPath>
  </defs>
  <g clip-path="url(#master_svg0_898_012854)">
    <g>
      <g>
        <path
          d="M8,1C5.88282,1,4.1665,2.71632,4.1665,4.8335L4.1690000000000005,4.975C4.204000000000001,5.915,4.579000000000001,6.79,5.202500000000001,7.455L5.215,7.4675L4.959,7.6L4.611000000000001,7.785C3.3775,8.456,2.5975,9.0355,2.251,9.556C1.737,10.326,1.5,11.631,1.5,13.5C1.5,13.7761,1.723857,14,2,14L7.16891,14C6.98761,13.6866,6.83935,13.3517,6.7289,13L2.5065,13L2.509,12.9165C2.552,11.548,2.752,10.6065,3.0825,10.1105C3.2424999999999997,9.8705,3.5975,9.5705,4.140499999999999,9.2215L4.3675,9.079L4.615,8.9315L4.882,8.778500000000001C4.9745,8.727,5.07,8.6745,5.1690000000000005,8.621L5.476,8.4585L5.637,8.375499999999999L5.9735,8.206L6.329,8.032C6.67463,7.86552,6.71176,7.38789,6.396,7.17C5.37197,6.46746,4.92473,5.17997,5.29272,3.99388C5.6607,2.8078000000000003,6.75814,1.999545,8,2C9.24147,2.00008,10.33831,2.80831,10.7061,3.99405C11.00071,4.94384,10.77259,5.95864,10.14412,6.68602C10.56071,6.56893,10.99932,6.50445,11.45234,6.50022C11.9287,5.51323,11.9679,4.34892,11.5174,3.30935C10.90992,1.907357,9.5279,1,8,1ZM11.5,15C13.433,15,15,13.433,15,11.5C15,9.567,13.433,8,11.5,8C9.567,8,8,9.567,8,11.5C8,13.433,9.567,15,11.5,15ZM11.5,9C12.8807,9,14,10.11929,14,11.5C14,12.0094,13.8476,12.4832,13.586,12.8784L13.3537,12.6461L10.35404,9.6464L10.12163,9.41399C10.51678,9.15236,10.9906,9,11.5,9ZM12.6466,13.3532L12.879,13.5856C12.4837,13.8475,12.0097,14,11.5,14C10.11929,14,9,12.8807,9,11.5C9,10.99032,9.152519999999999,10.51627,9.41441,10.12099L9.64693,10.35351L12.6466,13.3532Z"
          fill-rule="evenodd" fill="black" fill-opacity="1" />
      </g>
    </g>
  </g>
</svg>