<svg xmlns="http://www.w3.org/2000/svg" xmlns:xlink="http://www.w3.org/1999/xlink" fill="none" version="1.1" width="16"
  height="16" viewBox="0 0 16 16">
  <defs>
    <clipPath id="master_svg0_105_22998">
      <rect x="0" y="0" width="16" height="16" rx="0" />
    </clipPath>
  </defs>
  <g clip-path="url(#master_svg0_105_22998)">
    <g>
      <path
        d="M8,1C5.88282,0.999999694824,4.1665,2.71632,4.1665,4.8335L4.1690000000000005,4.975C4.204000000000001,5.915,4.579000000000001,6.79,5.202500000000001,7.455L5.215,7.4675L4.959,7.6L4.611000000000001,7.785C3.3775,8.456,2.5975,9.0355,2.251,9.556C1.737,10.326,1.5,11.631,1.5,13.5C1.5,13.7761,1.723858,14,2,14L14,14C14.2761,14,14.5,13.7761,14.5,13.5C14.5,11.6315,14.2625,10.326,13.7495,9.556L13.7015,9.4875C13.3335,8.985,12.5685,8.427,11.389,7.7855L11.041,7.6L10.7845,7.4675L10.797,7.455C11.8419,6.34017,12.1249,4.711320000000001,11.5174,3.30935C10.90992,1.907357,9.5279,0.9999999237061,8,1ZM8,2C9.24147,2.00008,10.33831,2.80831,10.7061,3.99405C11.0739,5.17978,10.62699,6.46686,9.6035,7.1695C9.28707,7.38713,9.32395,7.86545,9.67,8.032L10.026,8.206L10.3625,8.375499999999999C10.4175,8.402999999999999,10.4705,8.4305,10.5235,8.4585L10.8305,8.621L11.1175,8.778500000000001L11.2535,8.8555L11.511,9.0055L11.632,9.079L11.8595,9.2215L12.0665,9.3585C12.4935,9.6495,12.7785,9.9025,12.9175,10.1105L12.9615,10.181C13.2655,10.693,13.45,11.61,13.4915,12.916L13.493,13L2.5065,13L2.509,12.9165C2.552,11.548,2.752,10.6065,3.0825,10.1105C3.2424999999999997,9.8705,3.5975,9.5705,4.140499999999999,9.2215L4.3675,9.079L4.615,8.9315L4.882,8.778500000000001C4.9745,8.727,5.07,8.6745,5.1690000000000005,8.621L5.476,8.4585L5.637,8.375499999999999L5.9735,8.206L6.329,8.032C6.67463,7.86552,6.71176,7.38789,6.396,7.17C5.37197,6.46746,4.92473,5.17997,5.29272,3.99388C5.6607,2.8078000000000003,6.75814,1.999545,8,2Z"
        fill="black" fill-opacity="1" />
    </g>
    <g>
      <path d="M10,10.25L10,11.25L6,11.25L6,10.25L10,10.25Z" fill="black" fill-opacity="1" />
    </g>
  </g>
</svg>