<svg xmlns="http://www.w3.org/2000/svg" xmlns:xlink="http://www.w3.org/1999/xlink" fill="none" version="1.1" width="16"
  height="16" viewBox="0 0 16 16">
  <defs>
    <clipPath id="master_svg0_975_029053">
      <rect x="0" y="0" width="16" height="16" rx="0" />
    </clipPath>
  </defs>
  <g clip-path="url(#master_svg0_975_029053)">
    <g>
      <g>
        <path
          d="M11.656846972732543,7.949043671875L10.499566972732543,7.370403671875C10.791966972732544,7.064683671875,11.025806972732545,6.707913671875,11.189476972732544,6.317823671875C11.367286972732543,5.894023671875,11.458876972732543,5.439043671875,11.458876972732543,4.979463671875C11.458876972732543,3.069003671875,9.910136972732545,1.520263671875,7.999676972732544,1.520263671875C6.089206972732544,1.520263671875,4.540476972732543,3.069003671875,4.540476972732543,4.979463671875C4.540476972732543,5.438993671875,4.632026972732544,5.893913671875,4.809796972732544,6.317653671875C4.973446972732544,6.707763671875,5.207276972732544,7.064533671875,5.499656972732543,7.370273671875L4.342386972732545,7.948903671875L4.293646972732544,7.973273671875C3.164286972732544,8.537953671875,2.403292972732544,9.642203671875,2.2776539727325438,10.898593671875L2.070054292732544,12.974563671875C2.042974772732544,13.245363671875,2.255624972732544,13.480363671875,2.527771972732544,13.480363671875L13.471216972732543,13.480363671875C13.743316972732543,13.480363671875,13.956016972732543,13.245363671875,13.928916972732544,12.974563671875L13.721316972732543,10.898593671875C13.595616972732543,9.642203671875,12.834616972732544,8.537953671875,11.705306972732544,7.973273671875L11.656846972732543,7.949043671875ZM10.208876972732543,4.979463671875Q10.208876972732543,5.865853671875,9.596216972732545,6.506423671875C9.509806972732544,6.596773671875,9.437436972732545,6.699573671875,9.381526972732544,6.811383671875C9.233266972732544,7.107913671875,9.208876972732543,7.451183671875,9.313706972732543,7.765693671875C9.418546972732544,8.080193671875,9.644026972732544,8.340173671875,9.940546972732545,8.488443671875L11.146296972732545,9.091313671875Q12.344216972732545,9.690283671875,12.477516972732545,11.022973671875L12.598216972732544,12.230363671875L3.400706972732544,12.230363671875L3.521446972732544,11.022973671875Q3.654716972732544,9.690283671875,4.852656972732544,9.091313671875L6.058666972732544,8.488303671875C6.170466972732544,8.432403671875,6.273246972732544,8.360053671875,6.363586972732544,8.273663671875C6.862516972732544,7.796533671875,6.8801869727325435,7.005273671875,6.403046972732544,6.506343671875Q5.790476972732543,5.865783671875,5.790476972732543,4.979463671875Q5.790476972732543,4.0643836718749995,6.437536972732544,3.4173236718749997Q7.084596972732544,2.770263671875,7.999676972732544,2.770263671875Q8.914756972732544,2.770263671875,9.561806972732544,3.4173236718749997Q10.208876972732543,4.0643836718749995,10.208876972732543,4.979463671875ZM9.999946972732545,10.000003671875L5.999946972732544,10.000003671875L5.999946972732544,11.250003671875L9.999946972732545,11.250003671875L9.999946972732545,10.000003671875Z"
          fill-rule="evenodd" fill="black" fill-opacity="1" />
      </g>
    </g>
  </g>
</svg>