<svg xmlns="http://www.w3.org/2000/svg" xmlns:xlink="http://www.w3.org/1999/xlink" fill="none" version="1.1" width="16"
  height="16" viewBox="0 0 16 16">
  <defs>
    <clipPath id="master_svg0_105_22886">
      <rect x="0" y="0" width="16" height="16" rx="0" />
    </clipPath>
  </defs>
  <g clip-path="url(#master_svg0_105_22886)">
    <g>
      <path
        d="M11.25,1.5C10.00736,1.500000152588,9,2.5073600000000003,9,3.75C9,4.99264,10.00736,6,11.25,6C12.49264,6,13.5,4.99264,13.5,3.75C13.5,2.5073600000000003,12.49264,1.500000152588,11.25,1.5ZM11.25,2.5C11.94036,2.5,12.5,3.05964,12.5,3.75C12.5,4.44036,11.94036,5,11.25,5C10.55964,5,10,4.44036,10,3.75C10,3.05964,10.55964,2.5,11.25,2.5Z"
        fill="black" fill-opacity="1" />
    </g>
    <g>
      <path
        d="M9.5068359375,4.31298828125L9.9928359375,5.18698828125L5.4928359375,7.6869882812500006L5.0068359375,6.81298828125L9.5068359375,4.31298828125ZM5.6893359375,8.438988281250001L10.1043359375,11.08598828125L9.5903359375,11.94348828125L5.1753359375,9.29648828125L5.6893359375,8.438988281250001Z"
        fill="black" fill-opacity="1" />
    </g>
    <g>
      <path
        d="M11.25,10C10.00736,10,9,11.00736,9,12.25C9,13.49264,10.00736,14.5,11.25,14.5C12.4926,14.5,13.5,13.49264,13.5,12.25C13.5,11.00736,12.4926,10,11.25,10ZM11.25,11C11.9404,11,12.5,11.55964,12.5,12.25C12.5,12.94036,11.9404,13.5,11.25,13.5C10.55964,13.5,10,12.94036,10,12.25C10,11.55964,10.55964,11,11.25,11ZM3.75,5.75C2.5073600000000003,5.750000610352,1.500000457764,6.75736,1.500000457764,8C1.500000457764,9.24264,2.5073600000000003,10.25,3.75,10.25C4.99264,10.25,6,9.24264,6,8C6,6.75736,4.99264,5.750000610352,3.75,5.75ZM3.75,6.75C4.44036,6.75,5,7.30964,5,8C5,8.69036,4.44036,9.25,3.75,9.25C3.05964,9.25,2.5,8.69036,2.5,8C2.5,7.30964,3.05964,6.75,3.75,6.75Z"
        fill="black" fill-opacity="1" />
    </g>
  </g>
</svg>