<svg xmlns="http://www.w3.org/2000/svg" xmlns:xlink="http://www.w3.org/1999/xlink" fill="none" version="1.1" width="16"
  height="16" viewBox="0 0 16 16">
  <defs>
    <clipPath id="master_svg0_105_22871">
      <rect x="0" y="0" width="16" height="16" rx="0" />
    </clipPath>
  </defs>
  <g clip-path="url(#master_svg0_105_22871)">
    <g>
      <path
        d="M7.999843125,2.00000167847C9.427343125,1.9988797,10.770453125,2.676095,11.618353125,3.8245C11.996253125,4.33465,12.261553125,4.9192,12.396853125,5.5395L12.399853125,5.5565L12.483853125,5.5715C14.192053125,5.91301,15.440353125,7.38545,15.497853125,9.1265L15.499853125,9.25C15.499653125,11.03205,14.245753125,12.568,12.499853125,12.925L12.499853125,11.8965C13.784753125,11.53023,14.620753125,10.29369,14.481753125,8.964839999999999C14.342853125,7.63599,13.269253125,6.59909,11.936353125,6.5065L11.523853125,6.479L11.473853125,6.0685C11.400553125,5.47107,11.173553125,4.90287,10.814853125,4.4195C10.155493125,3.52577,9.110463125,2.9988070000000002,7.999843125,3C6.889213125,2.998806,5.844193125,3.52577,5.184843125,4.4195C4.954943125,4.72985,4.778203125,5.07623,4.661843125,5.4445C4.597533125,5.64717,4.552333125,5.85541,4.526843125,6.0665L4.477843125,6.4785L4.063843125,6.506C2.728493125,6.59526,1.651303125,7.63289,1.512163125,8.96396C1.373014125,10.29504,2.212323125,11.53301,3.500343125,11.8965L3.500343125,12.925C1.752003125,12.5667,0.498078465,11.02638,0.50196216583,9.241710000000001C0.505846255,7.45704,1.766463125,5.92216,3.516343125,5.5715L3.599343125,5.5565L3.625343125,5.441L3.650343125,5.341L3.708343125,5.143C3.858343125,4.668,4.086343125,4.223,4.381343125,3.8245C5.229233125,2.676095,6.572343125,1.99887939,7.999843125,2.00000167847Z"
        fill="black" fill-opacity="1" />
    </g>
    <g>
      <path
        d="M8.350929687499999,14.753273437499999C8.1715296875,14.932513437499999,7.886359687500001,14.9490534375,7.6874296875,14.7917734375L7.6439296875,14.753273437499999L5.3154296875,12.4247724375L6.0224296875,11.7177734375L7.9979296875,13.6927734375L9.9724296875,11.7177734375L10.6794296875,12.4247724375L8.350929687499999,14.753273437499999Z"
        fill="black" fill-opacity="1" />
    </g>
    <g>
      <path
        d="M8.4970703125,9.19140625L8.4970703125,14.53140625L7.4970703125,14.53140625L7.4970703125,9.19140625L8.4970703125,9.19140625Z"
        fill="black" fill-opacity="1" />
    </g>
  </g>
</svg>