<svg xmlns="http://www.w3.org/2000/svg" xmlns:xlink="http://www.w3.org/1999/xlink" fill="none" version="1.1" width="16"
  height="16" viewBox="0 0 16 16">
  <defs>
    <clipPath id="master_svg0_484_67501">
      <rect x="0" y="0" width="16" height="16" rx="0" />
    </clipPath>
  </defs>
  <g clip-path="url(#master_svg0_484_67501)">
    <g>
      <g transform="matrix(0,1,-1,0,16,-12)">
        <path
          d="M18,3L16.5,3Q16,3,16,3.5L16,7.69653L15,9.089590000000001L15,13.5Q15,14,15.5,14L24.5,14Q25,14,25,13.5L25,5.5L26,5.5L26,13.5Q26,14.1213,25.5607,14.5607Q25.121299999999998,15,24.5,15L15.5,15Q14.87868,15,14.43934,14.5607Q14,14.1213,14,13.5L14,8.76783L15,7.37476L15,3.5Q15,2.87868,15.43934,2.43934Q15.87868,2,16.5,2L18,2L18,3Z"
          fill-rule="evenodd" fill="black" fill-opacity="1" />
      </g>
      <g transform="matrix(0,1,-1,0,20.76220703125,-10.76220703125)">
        <path
          d="M15.76220703125,16.7071L15.76220703125,6.50436Q15.76220703125,5.786172,16.32168003125,5.335854Q16.881157031249998,4.885536,17.58275703125,5.0390111L23.58275703125,6.35151Q24.099227031250003,6.46449,24.430717031249998,6.87633Q24.76220703125,7.2881800000000005,24.76220703125,7.81686L24.76220703125,18.0196Q24.76220703125,18.7378,24.202737031250003,19.1881Q23.643257031250002,19.6384,22.94165703125,19.4849L16.94165703125,18.1724Q16.42519203125,18.0594,16.09370003125,17.6476Q15.76220703125,17.235799999999998,15.76220703125,16.7071ZM16.76220703125,16.7071Q16.76220703125,17.1095,17.15535703125,17.1955L23.15535703125,18.508Q23.38922703125,18.5592,23.57571703125,18.409100000000002Q23.76220703125,18.259,23.76220703125,18.0196L23.76220703125,7.81686Q23.76220703125,7.41441,23.36905703125,7.32841L17.36905703125,6.01591Q17.13518703125,5.964753,16.94869703125,6.11486Q16.76220703125,6.26496,16.76220703125,6.50436L16.76220703125,16.7071Z"
          fill-rule="evenodd" fill="black" fill-opacity="1" />
      </g>
    </g>
  </g>
</svg>