<svg xmlns="http://www.w3.org/2000/svg" xmlns:xlink="http://www.w3.org/1999/xlink" fill="none" version="1.1" width="20"
  height="20" viewBox="0 0 20 20">
  <defs>
    <clipPath id="master_svg0_562_66856">
      <rect x="0" y="0" width="20" height="20" rx="0" />
    </clipPath>
  </defs>
  <g clip-path="url(#master_svg0_562_66856)">
    <g transform="matrix(-1,-5.2146120310681e-8,5.2146120310681e-8,-1,26.71285179363801,26.248907785719208)">
      <path
        d="M17.096426239013674,13.258867544616699C16.84761623901367,13.062430344616699,16.49113623901367,13.0833835446167,16.267056239013673,13.307617544616699L13.356426239013672,16.218243544616698L14.240176239013671,17.1019935446167L16.08591623901367,15.2562535446167L16.08591623901367,21.2492135446167L17.33591623901367,21.2492135446167L17.33591623901367,15.2602335446167L19.17767623901367,17.1019935446167L20.06142623901367,16.218243544616698L17.150806239013672,13.307617544616699L17.096426239013674,13.258867544616699Z"
        fill-rule="evenodd" fill="black" fill-opacity="1" />
    </g>
    <g>
      <path
        d="M1.875,6.76314L1.875,16.25C1.875,17.2855,2.714466,18.125,3.75,18.125L16.25,18.125C17.2855,18.125,18.125,17.2855,18.125,16.25L18.125,6.76314C18.125,6.42458,18.0562,6.08954,17.9229,5.77835L16.737000000000002,3.0114C16.4416,2.321994,15.7637,1.875,15.0136,1.875L4.98637,1.875C4.23632,1.875,3.55843,2.321994,3.26297,3.0114L2.077137,5.77835C1.9437693,6.08954,1.875,6.42458,1.875,6.76314ZM3.125,6.76314L3.125,16.25Q3.125,16.875,3.75,16.875L16.25,16.875Q16.875,16.875,16.875,16.25L16.875,6.76314Q16.875,6.50657,16.773899999999998,6.27074L15.5881,3.5038Q15.4258,3.125,15.0136,3.125L4.98637,3.125Q4.57425,3.125,4.4119,3.5038L3.22607,6.27075Q3.125,6.50657,3.125,6.76314Z"
        fill-rule="evenodd" fill="black" fill-opacity="1" />
    </g>
    <g>
      <path
        d="M3.125,6.875L7.5,6.875L7.5,5.625L3.125,5.625Q2.607233,5.625,2.241116,5.991117Q1.875,6.357233,1.875,6.875L1.875,11.875L3.125,11.875L3.125,6.875ZM16.875,5.625L12.5,5.625L12.5,6.875L16.875,6.875L16.875,11.875L18.125,11.875L18.125,6.875Q18.125,6.357233,17.7589,5.991116Q17.3928,5.625,16.875,5.625Z"
        fill-rule="evenodd" fill="black" fill-opacity="1" />
    </g>
  </g>
</svg>