<svg xmlns="http://www.w3.org/2000/svg" xmlns:xlink="http://www.w3.org/1999/xlink" fill="none" version="1.1" width="16"
  height="16" viewBox="0 0 16 16">
  <defs>
    <clipPath id="master_svg0_284_63874">
      <rect x="0" y="0" width="16" height="16" rx="0" />
    </clipPath>
    <clipPath id="master_svg1_284_63879">
      <rect x="2.85986328125" y="2.73583984375" width="11.279999732971191" height="10.527999877929688" rx="0" />
    </clipPath>
  </defs>
  <g clip-path="url(#master_svg0_284_63874)">
    <g clip-path="url(#master_svg1_284_63879)">
      <g>
        <path
          d="M8.82300328125,4.05183984375L8.82300328125,2.73583984375L5.51398328125,2.73583984375C4.04815328125,2.73583984375,2.85986328125,3.9142298437500003,2.85986328125,5.36783984375L2.85986328125,10.63183984375C2.85986328125,12.08544984375,4.04815328125,13.26383984375,5.51398328125,13.26383984375L10.82221328125,13.26383984375C12.28804328125,13.26383984375,13.47636328125,12.08544984375,13.47636328125,10.63183984375L13.47636328125,7.33591984375L12.14927328125,7.33591984375L12.14927328125,10.63183984375C12.14927328125,11.35864984375,11.55513328125,11.94783984375,10.82221328125,11.94783984375L5.51398328125,11.94783984375C4.78106328125,11.94783984375,4.1869232812499995,11.35864984375,4.1869232812499995,10.63183984375L4.1869232812499995,5.36783984375C4.1869232812499995,4.64102984375,4.78106328125,4.05183984375,5.51398328125,4.05183984375L8.82300328125,4.05183984375ZM7.14990328125,8.37865984375L8.05029328125,9.345949843749999L13.40036328125,3.9672898437499997L12.50000328125,2.99999984375L7.14990328125,8.37865984375Z"
          fill-rule="evenodd" fill="black" fill-opacity="1" />
      </g>
    </g>
  </g>
</svg>