<svg xmlns="http://www.w3.org/2000/svg" xmlns:xlink="http://www.w3.org/1999/xlink" fill="none" version="1.1" width="16"
  height="16" viewBox="0 0 16 16">
  <defs>
    <clipPath id="master_svg0_975_96442">
      <rect x="0" y="0" width="16" height="16" rx="0" />
    </clipPath>
  </defs>
  <g clip-path="url(#master_svg0_975_96442)">
    <g>
      <path
        d="M5.81836,8L4,8C2.895431,8,2.0000000596046,8.895430000000001,2.0000000298023,10L2,11L2,12L14,12L14,10C14,8.895430000000001,13.1046,8,12,8L10.18164,8L10.18164,7.8429C10.18164,7.6192,10.24712,7.40039,10.37,7.21347L10.51033,7L10.90899,6.39356C12.4307,4.07866,10.77029,1,8,1C5.22971,1,3.5692500000000003,4.07866,5.09101,6.39356L5.48967,7L5.63,7.21347C5.75288,7.40039,5.81836,7.6192,5.81836,7.8429L5.81836,8ZM13,11L13,10Q13,9.58579,12.7071,9.29289Q12.4142,9,12,9L10.18164,9C9.62936,9,9.18164,8.55228,9.18164,8L9.18164,7.8429Q9.18164,7.20075,9.534379999999999,6.66415L10.07337,5.84424Q10.88685,4.60679,10.18387,3.3034Q9.480879999999999,2,8,2Q6.51911,2,5.816129999999999,3.3034Q5.11315,4.60679,5.92662,5.84424L6.46562,6.66416Q6.81836,7.20075,6.81836,7.8429L6.81836,8C6.81836,8.55228,6.37064,9,5.81836,9L4,9Q3.5857900000000003,9,3.29289,9.29289Q3,9.58579,3,10L3,11L13,11Z"
        fill-rule="evenodd" fill="black" fill-opacity="1" />
    </g>
    <g>
      <path d="M2,13.5L14,13.5L14,14.5L2,14.5L2,13.5Z" fill-rule="evenodd" fill="black" fill-opacity="1" />
    </g>
  </g>
</svg>