<svg xmlns="http://www.w3.org/2000/svg" xmlns:xlink="http://www.w3.org/1999/xlink" fill="none" version="1.1" width="16"
  height="16" viewBox="0 0 16 16">
  <defs>
    <clipPath id="master_svg0_734_055665">
      <rect x="0" y="0" width="16" height="16" rx="0" />
    </clipPath>
  </defs>
  <g clip-path="url(#master_svg0_734_055665)">
    <g>
      <g>
        <path
          d="M10.93637713897705,6.296819523162842L10.44317713897705,7.210539523162842L10.44317713897705,7.269739523162841L11.49999713897705,7.269739523162841Q12.380197138977051,7.269739523162841,13.00259713897705,7.892139523162842Q13.62499713897705,8.514529523162842,13.62499713897705,9.394739523162842L13.62499713897705,10.499999523162842C13.62499713897705,10.845179523162841,13.345197138977051,11.124999523162842,12.99999713897705,11.124999523162842L2.999997138977051,11.124999523162842C2.654819138977051,11.124999523162842,2.374997138977051,10.845179523162841,2.374997138977051,10.499999523162842L2.374997258186051,9.394739523162842Q2.374997317791051,8.514529523162842,2.997395138977051,7.892139523162842Q3.6197971389770505,7.269739523162841,4.499997138977051,7.269739523162841L5.556817138977051,7.269739523162841L5.556817138977051,7.210539523162842L5.063617138977051,6.296819523162842Q4.1635971389770505,4.629419523162841,5.13439713897705,3.0022095231628416Q6.105197138977051,1.3749999403958417,7.999997138977051,1.3749995231628418Q9.89479713897705,1.3749997019768418,10.865597138977051,3.0022095231628416Q11.83639713897705,4.629419523162841,10.93637713897705,6.296819523162842ZM9.268187138977051,6.755759523162842L9.836397138977052,5.703079523162842Q10.39925713897705,4.660299523162841,9.792127138977051,3.642649523162842Q9.18499713897705,2.624999523162842,7.999997138977051,2.624999523162842Q6.814997138977051,2.624999523162842,6.207867138977051,3.642649523162842Q5.600737138977051,4.660299523162841,6.163597138977051,5.703079523162842L6.731807138977051,6.755759523162842C6.781037138977051,6.846969523162842,6.806817138977051,6.948989523162842,6.806817138977051,7.0526295231628415L6.806817138977051,7.894739523162841C6.806817138977051,8.239919523162841,6.526997138977051,8.51973952316284,6.181817138977051,8.51973952316284L4.499997138977051,8.51973952316284Q4.1375571389770505,8.51973952316284,3.881277138977051,8.77601952316284Q3.624997138977051,9.032299523162841,3.624997138977051,9.394739523162842L3.624997138977051,9.874999523162842L12.37499713897705,9.874999523162842L12.37499713897705,9.394739523162842Q12.37499713897705,9.032299523162841,12.11871713897705,8.77601952316284Q11.86243713897705,8.51973952316284,11.49999713897705,8.51973952316284L9.81817713897705,8.51973952316284C9.47299713897705,8.51973952316284,9.19317713897705,8.239919523162841,9.19317713897705,7.894739523162841L9.19317713897705,7.0526295231628415C9.19317713897705,6.948989523162842,9.21895713897705,6.846969523162842,9.268187138977051,6.755759523162842ZM3.0000001389770508,13.624999523162842L2.374997138977051,13.624999523162842L2.374997138977051,12.374999523162842L3.0000001389770508,12.374999523162842L12.99999713897705,12.374999523162842L13.62499713897705,12.374999523162842L13.62499713897705,13.624999523162842L12.99999713897705,13.624999523162842L3.0000001389770508,13.624999523162842Z"
          fill-rule="evenodd" fill="black" fill-opacity="1" />
      </g>
    </g>
  </g>
</svg>