<svg xmlns="http://www.w3.org/2000/svg" xmlns:xlink="http://www.w3.org/1999/xlink" fill="none" version="1.1" width="16"
  height="16" viewBox="0 0 16 16">
  <defs>
    <mask id="master_svg0_975_98079" style="mask-type:alpha" maskUnits="objectBoundingBox">
      <g>
        <g>
          <path d="M0,0C0,0,16,0,16,0C16,0,16,16,16,16C16,16,0,16,0,16C0,16,0,0,0,0Z" fill="black" fill-opacity="1" />
        </g>
      </g>
    </mask>
  </defs>
  <g>
    <g style="opacity:0;">
      <path d="M0,0C0,0,16,0,16,0C16,0,16,16,16,16C16,16,0,16,0,16C0,16,0,0,0,0Z" fill="#D8D8D8" fill-opacity="1" />
    </g>
    <g mask="url(#master_svg0_975_98079)">
      <g>
        <path
          d="M8,1C11.866,1,15,4.13401,15,8C15,11.866,11.866,15,8,15C4.13401,15,1,11.866,1,8C1,4.13401,4.13401,1,8,1ZM8,4.5C7.72386,4.5,7.5,4.72386,7.5,5C7.5,5,7.5,8,7.5,8C7.5,8,7.50336,8.058309999999999,7.50336,8.058309999999999C7.53225,8.30698,7.74358,8.5,8,8.5C8,8.5,10,8.5,10,8.5C10,8.5,10.05831,8.49664,10.05831,8.49664C10.30698,8.467749999999999,10.5,8.25642,10.5,8C10.5,7.72386,10.27614,7.5,10,7.5C10,7.5,8.5,7.5,8.5,7.5C8.5,7.5,8.5,5,8.5,5C8.5,5,8.49664,4.9416899999999995,8.49664,4.9416899999999995C8.467749999999999,4.693020000000001,8.25642,4.5,8,4.5Z"
          fill-rule="evenodd" fill="black" fill-opacity="1" />
      </g>
    </g>
  </g>
</svg>