<svg xmlns="http://www.w3.org/2000/svg" xmlns:xlink="http://www.w3.org/1999/xlink" fill="none" version="1.1" width="16"
  height="16" viewBox="0 0 16 16">
  <defs>
    <clipPath id="master_svg0_105_23204">
      <rect x="0" y="0" width="16" height="16" rx="0" />
    </clipPath>
  </defs>
  <g clip-path="url(#master_svg0_105_23204)">
    <g>
      <path
        d="M14.0004765625,2.75C14.2649765625,2.750443115,14.4834765625,3.05991,14.4989765625,3.456047C14.5144765625,3.8521799999999997,14.3216765625,4.19788,14.0589765625,4.24475L14.0004765625,4.25L2.0004355625,4.25C1.7358885625,4.24956,1.5173524624999999,3.94009,1.5018489075,3.5439540000000003C1.4863450625,3.147816,1.6792395625,2.8021182,1.9419355624999999,2.75525009L2.0004355625,2.75L14.0004765625,2.75Z"
        fill="#0D1118" fill-opacity="1" />
    </g>
    <g>
      <path
        d="M9,0.75L7,0.75C6.171573,0.7499999237061,5.500000610352,1.421573,5.5,2.25L5.5,3.25C5.5,3.52614,5.723857,3.75,6,3.75L10,3.75C10.27614,3.75,10.5,3.52614,10.5,3.25L10.5,2.25C10.5,1.421573,9.82843,0.75,9,0.75ZM9,1.75L9.0585,1.7535C9.31028,1.7832,9.5,1.99655,9.5,2.25L9.5,2.75L6.5,2.75L6.5,2.25C6.5,1.97386,6.72386,1.75,7,1.75L9,1.75Z"
        fill="#0D1118" fill-opacity="1" />
    </g>
    <g>
      <path
        d="M13.1184078125,2.750000305176C13.3856078125,2.7497052,13.6059078125,2.959576,13.6184078125,3.2265L13.6174078125,3.2835L13.5004078125,5.0265L13.0504078125,13.579C13.0102078125,14.3419,12.4031078125,14.9527,11.6404378125,14.9975L11.5519378125,15L4.449437812499999,15C3.6853378125000003,15.0001,3.0432508125,14.4259,2.9584358125,13.6665L2.9514358124999998,13.579L2.5014358125,5.029999999999999L2.3964353945,3.2800000000000002C2.3803709125,3.014628,2.5747858125,2.7830881,2.8389358125,2.75300018L2.8954358125,2.750000305176L13.1184078125,2.750000305176ZM7.0004378125,7L6.0004378124999995,7L6.0004378124999995,11L7.0004378125,11L7.0004378125,7ZM10.0004378125,7L9.0004378125,7L9.0004378125,11L10.0004378125,11L10.0004378125,7Z"
        fill="#0D1118" fill-opacity="1" />
    </g>
  </g>
</svg>