<svg xmlns="http://www.w3.org/2000/svg" xmlns:xlink="http://www.w3.org/1999/xlink" fill="none" version="1.1" width="16"
  height="16" viewBox="0 0 16 16">
  <defs>
    <clipPath id="master_svg0_341_70819">
      <rect x="0" y="0" width="16" height="16" rx="0" />
    </clipPath>
  </defs>
  <g clip-path="url(#master_svg0_341_70819)">
    <g>
      <path
        d="M5.36799453125,4.3963114843749995L2.79635453125,4.943571484375Q1.90142853125,5.134021484374999,1.66119803125,6.016881484375Q1.42096753125,6.899751484375,2.09600453125,7.517391484375L3.90730453125,9.174671484375L3.28247453125,12.036321484375Q3.07613453125,12.981421484375,3.85187453125,13.559221484375Q4.62760453125,14.137121484375,5.47404453125,13.668921484375L8.00016453125,12.271421484375L10.52652453125,13.669021484375Q11.37291453125,14.137221484375,12.14864453125,13.559421484375Q12.92434453125,12.981621484375,12.71814453125,12.036621484375L12.09354453125,9.174671484375L13.90454453125,7.517351484375Q14.57954453125,6.899691484375,14.33924453125,6.016871484375Q14.09904453125,5.134051484375,13.20414453125,4.943611484374999L10.63234453125,4.3963114843749995L9.32535453125,1.9317544843749999Q8.90256453125,1.134521484375,8.00016453125,1.134521484375Q7.09776453125,1.134521484375,6.67498453125,1.9317544843749999L5.36799453125,4.3963114843749995Z"
        fill-rule="evenodd" fill="#2F88FF" fill-opacity="1" />
    </g>
  </g>
</svg>