<svg xmlns="http://www.w3.org/2000/svg" xmlns:xlink="http://www.w3.org/1999/xlink" fill="none" version="1.1" width="16"
  height="16" viewBox="0 0 16 16">
  <g>
    <g style="opacity:0;">
      <path d="M0,0C0,0,16,0,16,0C16,0,16,16,16,16C16,16,0,16,0,16C0,16,0,0,0,0Z" fill="#D8D8D8" fill-opacity="1" />
    </g>
    <g>
      <g>
        <path
          d="M14.5,8Q14.5,8.15957,14.4922,8.31894Q14.4843,8.47831,14.4687,8.63711Q14.4531,8.79591,14.4296,8.95375Q14.4062,9.11159,14.3751,9.26809Q14.344,9.42459,14.3052,9.57937Q14.2664,9.73415,14.2201,9.88685Q14.1738,10.03954,14.12,10.18978Q14.0663,10.34002,14.0052,10.48744Q13.9442,10.63486,13.8759,10.77911Q13.8077,10.92335,13.7325,11.06408Q13.6573,11.2048,13.5752,11.34167Q13.4932,11.47853,13.4045,11.6112Q13.3159,11.7439,13.2208,11.872Q13.1258,12.0002,13.0246,12.1236Q12.9233,12.2469,12.8162,12.3651Q12.709,12.4834,12.5962,12.5962Q12.4834,12.709,12.3651,12.8162Q12.2469,12.9233,12.1236,13.0246Q12.0002,13.1258,11.872,13.2208Q11.7439,13.3159,11.6112,13.4046Q11.47853,13.4932,11.34167,13.5752Q11.2048,13.6573,11.06408,13.7325Q10.92335,13.8077,10.77911,13.8759Q10.63486,13.9442,10.48744,14.0052Q10.34002,14.0663,10.18978,14.12Q10.03954,14.1738,9.88685,14.2201Q9.73415,14.2664,9.57937,14.3052Q9.42459,14.344,9.26809,14.3751Q9.11159,14.4062,8.95375,14.4296Q8.79591,14.4531,8.63711,14.4687Q8.47831,14.4843,8.31894,14.4922Q8.15957,14.5,8,14.5Q7.84043,14.5,7.68106,14.4922Q7.52169,14.4843,7.36289,14.4687Q7.20409,14.4531,7.04625,14.4296Q6.88841,14.4062,6.73191,14.3751Q6.57541,14.344,6.42063,14.3052Q6.26584,14.2664,6.11315,14.2201Q5.96045,14.1738,5.81021,14.12Q5.65998,14.0663,5.51256,14.0052Q5.36514,13.9442,5.22089,13.8759Q5.07665,13.8077,4.935919999999999,13.7325Q4.7951999999999995,13.6573,4.658329999999999,13.5752Q4.52147,13.4932,4.38879,13.4045Q4.25612,13.3159,4.12795,13.2208Q3.99979,13.1258,3.87644,13.0246Q3.7531,12.9233,3.63487,12.8162Q3.51664,12.709,3.40381,12.5962Q3.2909800000000002,12.4834,3.18382,12.3651Q3.07666,12.2469,2.9754300000000002,12.1236Q2.8742,12.0002,2.77915,11.872Q2.6841,11.7439,2.59545,11.6112Q2.5068,11.47853,2.424764,11.34167Q2.342731,11.2048,2.267512,11.06408Q2.1922930000000003,10.92335,2.12407,10.77911Q2.055846,10.63486,1.994783,10.48744Q1.93372,10.34002,1.879964,10.18978Q1.8262070000000001,10.03954,1.7798880000000001,9.88685Q1.733568,9.73415,1.6947969999999999,9.57937Q1.656025,9.42459,1.624896,9.26809Q1.5937659,9.11159,1.5703527,8.95375Q1.5469395,8.79591,1.5312993,8.63711Q1.5156591,8.47831,1.50782953,8.31894Q1.5,8.15957,1.5,8Q1.5,7.84043,1.50782953,7.68106Q1.5156591,7.52169,1.5312993,7.36289Q1.5469395,7.20409,1.5703527,7.04625Q1.5937659,6.88841,1.624896,6.73191Q1.656025,6.57541,1.6947969999999999,6.42063Q1.733568,6.26584,1.7798880000000001,6.11315Q1.8262070000000001,5.96045,1.879964,5.81021Q1.93372,5.65998,1.994783,5.51256Q2.055846,5.36514,2.12407,5.22089Q2.1922930000000003,5.07665,2.267512,4.935919999999999Q2.342731,4.7951999999999995,2.424764,4.658329999999999Q2.5068,4.52147,2.59545,4.38879Q2.6841,4.25612,2.77915,4.12795Q2.8742,3.99979,2.9754300000000002,3.87644Q3.07666,3.7531,3.18382,3.63487Q3.2909800000000002,3.51664,3.40381,3.40381Q3.51664,3.2909800000000002,3.63487,3.18382Q3.7531,3.07666,3.87644,2.9754300000000002Q3.99979,2.8742,4.12795,2.77915Q4.25612,2.6841,4.38879,2.59545Q4.52147,2.5068,4.658329999999999,2.424764Q4.7951999999999995,2.342731,4.935919999999999,2.267512Q5.07665,2.1922930000000003,5.22089,2.12407Q5.36514,2.055846,5.51256,1.994783Q5.65998,1.93372,5.81022,1.879964Q5.96045,1.8262070000000001,6.11315,1.7798880000000001Q6.26584,1.733568,6.42063,1.6947969999999999Q6.57541,1.656025,6.73191,1.624896Q6.88841,1.5937659,7.04625,1.5703527Q7.20409,1.5469395,7.36289,1.5312993Q7.52169,1.5156591,7.68106,1.50782953Q7.84043,1.5,8,1.5Q8.15957,1.5,8.31894,1.50782953Q8.47831,1.5156591,8.63711,1.5312993Q8.79591,1.5469395,8.95375,1.5703527Q9.11159,1.5937659,9.26809,1.624896Q9.42459,1.656025,9.57937,1.6947969999999999Q9.73415,1.733568,9.88685,1.7798880000000001Q10.03954,1.8262070000000001,10.18978,1.879964Q10.34002,1.93372,10.48744,1.994783Q10.63486,2.055846,10.77911,2.12407Q10.92335,2.1922930000000003,11.06408,2.267512Q11.2048,2.342731,11.34167,2.424764Q11.47853,2.5068,11.6112,2.59545Q11.7439,2.6841,11.872,2.77915Q12.0002,2.8742,12.1236,2.9754300000000002Q12.2469,3.07666,12.3651,3.18382Q12.4834,3.2909800000000002,12.5962,3.40381Q12.709,3.51664,12.8162,3.63487Q12.9233,3.7531,13.0246,3.87644Q13.1258,3.99979,13.2208,4.12795Q13.3159,4.25612,13.4046,4.38879Q13.4932,4.52147,13.5752,4.658329999999999Q13.6573,4.7951999999999995,13.7325,4.935919999999999Q13.8077,5.07665,13.8759,5.22089Q13.9442,5.36514,14.0052,5.51256Q14.0663,5.65998,14.12,5.81022Q14.1738,5.96045,14.2201,6.11315Q14.2664,6.26584,14.3052,6.42063Q14.344,6.57541,14.3751,6.73191Q14.4062,6.88841,14.4296,7.04625Q14.4531,7.20409,14.4687,7.36289Q14.4843,7.52169,14.4922,7.68106Q14.5,7.84043,14.5,8ZM13.5,8Q13.5,7.86498,13.4934,7.73013Q13.4867,7.59527,13.4735,7.46091Q13.4603,7.32654,13.4405,7.19298Q13.4207,7.05943,13.3943,6.927Q13.368,6.79458,13.3352,6.66361Q13.3024,6.53264,13.2632,6.40343Q13.224,6.27423,13.1785,6.1471Q13.133,6.01998,13.0813,5.89524Q13.0297,5.7705,12.9719,5.64845Q12.9142,5.52639,12.8506,5.40732Q12.7869,5.28824,12.7175,5.17243Q12.6481,5.05663,12.5731,4.94436Q12.4981,4.8321000000000005,12.4176,4.72365Q12.3372,4.615209999999999,12.2516,4.51084Q12.1659,4.4064700000000006,12.0752,4.306430000000001Q11.9846,4.206379999999999,11.8891,4.1109100000000005Q11.7936,4.01544,11.6936,3.92477Q11.5935,3.8341,11.48916,3.74844Q11.38479,3.66279,11.27635,3.58236Q11.1679,3.50193,11.05564,3.42692Q10.94337,3.35191,10.82756,3.28249Q10.71175,3.2130799999999997,10.59268,3.1494299999999997Q10.47361,3.0857900000000003,10.35155,3.02806Q10.2295,2.9703299999999997,10.10476,2.91866Q9.98002,2.86699,9.85289,2.82151Q9.72577,2.77602,9.59657,2.7368300000000003Q9.46736,2.69763,9.33639,2.6648300000000003Q9.20542,2.63202,9.073,2.60568Q8.940570000000001,2.57934,8.80702,2.55953Q8.67346,2.53972,8.53909,2.5264800000000003Q8.40473,2.51325,8.269870000000001,2.50662Q8.13502,2.5,8,2.5Q7.86498,2.5,7.73013,2.50662Q7.59527,2.51325,7.46091,2.5264800000000003Q7.32654,2.53972,7.19298,2.55953Q7.05943,2.57934,6.927,2.60568Q6.79458,2.63202,6.66361,2.6648300000000003Q6.53264,2.69763,6.40343,2.7368300000000003Q6.27423,2.77602,6.1471,2.82151Q6.01998,2.86699,5.89524,2.91866Q5.7705,2.9703299999999997,5.64845,3.02806Q5.52639,3.0857900000000003,5.40732,3.1494299999999997Q5.28824,3.2130799999999997,5.17243,3.28249Q5.05663,3.35191,4.94436,3.42692Q4.8321000000000005,3.50193,4.72365,3.58236Q4.615209999999999,3.66279,4.51084,3.74844Q4.4064700000000006,3.8341,4.306430000000001,3.92477Q4.206379999999999,4.01544,4.1109100000000005,4.1109100000000005Q4.01544,4.206379999999999,3.92477,4.306430000000001Q3.8341,4.4064700000000006,3.74844,4.51084Q3.66279,4.615209999999999,3.58236,4.72365Q3.50193,4.8321000000000005,3.42692,4.94436Q3.35191,5.05663,3.28249,5.17243Q3.2130799999999997,5.28824,3.1494299999999997,5.40732Q3.0857900000000003,5.52639,3.02806,5.64845Q2.9703299999999997,5.7705,2.91866,5.89524Q2.86699,6.01998,2.82151,6.1471Q2.77602,6.27423,2.7368300000000003,6.40343Q2.69763,6.53264,2.6648300000000003,6.66361Q2.63202,6.79458,2.60568,6.927Q2.57934,7.05943,2.55953,7.19298Q2.53972,7.32654,2.5264800000000003,7.46091Q2.51325,7.59527,2.50662,7.73013Q2.5,7.86498,2.5,8Q2.5,8.13502,2.50662,8.269870000000001Q2.51325,8.40473,2.5264800000000003,8.53909Q2.53972,8.67346,2.55953,8.80702Q2.57934,8.940570000000001,2.60568,9.073Q2.63202,9.20542,2.6648300000000003,9.33639Q2.69763,9.46736,2.7368300000000003,9.59657Q2.77602,9.72577,2.82151,9.85289Q2.86699,9.98002,2.91866,10.10476Q2.9703299999999997,10.2295,3.02806,10.35155Q3.0857900000000003,10.47361,3.1494299999999997,10.59268Q3.2130799999999997,10.71175,3.28249,10.82756Q3.35191,10.94337,3.42692,11.05564Q3.50193,11.1679,3.58236,11.27635Q3.66279,11.38479,3.74844,11.48916Q3.8341,11.5935,3.92477,11.6936Q4.01544,11.7936,4.1109100000000005,11.8891Q4.206379999999999,11.9846,4.306430000000001,12.0752Q4.4064700000000006,12.1659,4.51084,12.2516Q4.615209999999999,12.3372,4.72365,12.4176Q4.8321000000000005,12.4981,4.94436,12.5731Q5.05663,12.6481,5.17243,12.7175Q5.28824,12.7869,5.40732,12.8506Q5.52639,12.9142,5.64845,12.9719Q5.7705,13.0297,5.89524,13.0813Q6.01998,13.133,6.1471,13.1785Q6.27423,13.224,6.40343,13.2632Q6.53264,13.3024,6.66361,13.3352Q6.79458,13.368,6.927,13.3943Q7.05943,13.4207,7.19298,13.4405Q7.32654,13.4603,7.46091,13.4735Q7.59527,13.4867,7.73013,13.4934Q7.86498,13.5,8,13.5Q8.13502,13.5,8.269870000000001,13.4934Q8.40473,13.4867,8.53909,13.4735Q8.67346,13.4603,8.80702,13.4405Q8.940570000000001,13.4207,9.073,13.3943Q9.20542,13.368,9.33639,13.3352Q9.46736,13.3024,9.59657,13.2632Q9.72577,13.224,9.85289,13.1785Q9.98002,13.133,10.10476,13.0813Q10.2295,13.0297,10.35155,12.9719Q10.47361,12.9142,10.59268,12.8506Q10.71175,12.7869,10.82756,12.7175Q10.94337,12.6481,11.05564,12.5731Q11.1679,12.4981,11.27635,12.4176Q11.38479,12.3372,11.48916,12.2516Q11.5935,12.1659,11.6936,12.0752Q11.7936,11.9846,11.8891,11.8891Q11.9846,11.7936,12.0752,11.6936Q12.1659,11.5935,12.2516,11.48916Q12.3372,11.38479,12.4176,11.27635Q12.4981,11.1679,12.5731,11.05564Q12.6481,10.94337,12.7175,10.82756Q12.7869,10.71175,12.8506,10.59268Q12.9142,10.47361,12.9719,10.35155Q13.0297,10.2295,13.0813,10.10476Q13.133,9.98002,13.1785,9.85289Q13.224,9.72577,13.2632,9.59657Q13.3024,9.46736,13.3352,9.33639Q13.368,9.20542,13.3943,9.073Q13.4207,8.940570000000001,13.4405,8.80702Q13.4603,8.67346,13.4735,8.53909Q13.4867,8.40473,13.4934,8.269870000000001Q13.5,8.13502,13.5,8Z"
          fill-rule="evenodd" fill="#0D1118" fill-opacity="1" />
      </g>
      <g>
        <path
          d="M12.5,7.99993896484375Q12.5,8.11040896484375,12.49458,8.22073896484375Q12.48916,8.331078964843751,12.47833,8.44101896484375Q12.4675,8.55094896484375,12.45129,8.66022896484375Q12.43508,8.76949896484375,12.41353,8.87784896484375Q12.39198,8.98618896484375,12.36514,9.09334896484375Q12.3383,9.200508964843749,12.30623,9.306218964843751Q12.27416,9.41192896484375,12.23695,9.51593896484375Q12.19973,9.61994896484375,12.15746,9.72200896484375Q12.11518,9.82406896484375,12.06795,9.92393896484375Q12.02072,10.023798964843749,11.96864,10.121218964843749Q11.91657,10.21864896484375,11.85978,10.31339896484375Q11.80299,10.40814896484375,11.74161,10.499998964843751Q11.68024,10.59185896484375,11.61443,10.68058896484375Q11.54863,10.76931896484375,11.47855,10.85470896484375Q11.408470000000001,10.940098964843749,11.33428,11.02194896484375Q11.26009,11.10380896484375,11.18198,11.18191896484375Q11.10387,11.26002896484375,11.02201,11.33421896484375Q10.940159999999999,11.408408964843751,10.85477,11.47848896484375Q10.76938,11.54856896484375,10.68065,11.61436896484375Q10.59192,11.68017896484375,10.500060000000001,11.74154896484375Q10.40821,11.80292896484375,10.31346,11.85971896484375Q10.21871,11.91650896484375,10.121279999999999,11.96858896484375Q10.023859999999999,12.02065896484375,9.924,12.06788896484375Q9.82413,12.11511896484375,9.72207,12.15739896484375Q9.62001,12.19966896484375,9.516,12.23688896484375Q9.41199,12.27409896484375,9.306280000000001,12.30616896484375Q9.200569999999999,12.33823896484375,9.09341,12.36507896484375Q8.98625,12.39191896484375,8.87791,12.41346896484375Q8.76956,12.43501896484375,8.66029,12.45122896484375Q8.55101,12.46743896484375,8.44108,12.47826896484375Q8.331140000000001,12.48909896484375,8.2208,12.49451896484375Q8.11047,12.49993896484375,8,12.49993896484375Q7.88953,12.49993896484375,7.7792,12.49451896484375Q7.66886,12.48909896484375,7.55892,12.47826896484375Q7.44899,12.46743896484375,7.33971,12.45122896484375Q7.23044,12.43501896484375,7.12209,12.41346896484375Q7.01375,12.39191896484375,6.90659,12.36507896484375Q6.79943,12.33823896484375,6.69372,12.30616896484375Q6.588010000000001,12.27409896484375,6.484,12.23688896484375Q6.37998,12.19966896484375,6.27792,12.15739896484375Q6.17586,12.11511896484375,6.0760000000000005,12.06788896484375Q5.97614,12.02065896484375,5.87871,11.96857896484375Q5.78129,11.91650896484375,5.68654,11.85971896484375Q5.59179,11.80292896484375,5.49993,11.74154896484375Q5.40808,11.68017896484375,5.31935,11.61436896484375Q5.23062,11.54856896484375,5.14523,11.47848896484375Q5.0598399999999994,11.408408964843751,4.9779800000000005,11.33421896484375Q4.89613,11.26002896484375,4.81802,11.18191896484375Q4.73991,11.10380896484375,4.66572,11.02194896484375Q4.59153,10.940098964843749,4.52145,10.85470896484375Q4.451372,10.76931896484375,4.385566,10.68058896484375Q4.3197600000000005,10.59185896484375,4.258387,10.499998964843751Q4.197013,10.40814896484375,4.140221,10.31339896484375Q4.083429,10.21864896484375,4.031354,10.121218964843749Q3.97928,10.023798964843749,3.932048,9.92393896484375Q3.884817,9.82406896484375,3.842542,9.72200896484375Q3.800267,9.61994896484375,3.763052,9.51593896484375Q3.725836,9.41192896484375,3.693768,9.306218964843751Q3.661701,9.200508964843749,3.634859,9.09334896484375Q3.608018,8.98618896484375,3.5864662,8.87784896484375Q3.5649148,8.76949896484375,3.5487057,8.66022896484375Q3.5324966,8.55094896484375,3.5216687,8.44101896484375Q3.5108409,8.331078964843751,3.50542045,8.22073896484375Q3.5,8.11040896484375,3.5,7.99993896484375Q3.5,7.88946896484375,3.50542045,7.77913896484375Q3.5108409,7.66879896484375,3.5216687,7.55885896484375Q3.5324966,7.44892896484375,3.5487057,7.33964896484375Q3.5649148,7.23037896484375,3.5864662,7.12202896484375Q3.608018,7.01368896484375,3.634859,6.90652896484375Q3.661701,6.79936896484375,3.693768,6.69365896484375Q3.725836,6.587948964843751,3.763052,6.48393896484375Q3.800267,6.37991896484375,3.842542,6.27785896484375Q3.884817,6.17579896484375,3.932048,6.0759389648437505Q3.97928,5.97607896484375,4.031354,5.87864896484375Q4.083429,5.78122896484375,4.140221,5.68647896484375Q4.197013,5.59172896484375,4.258387,5.49986896484375Q4.3197600000000005,5.40801896484375,4.385566,5.31928896484375Q4.451372,5.23055896484375,4.52145,5.14516896484375Q4.59153,5.0597789648437494,4.66572,4.9779189648437505Q4.73991,4.89606896484375,4.81802,4.81795896484375Q4.89613,4.73984896484375,4.9779800000000005,4.66565896484375Q5.0598399999999994,4.59146896484375,5.14523,4.52138896484375Q5.23062,4.45131096484375,5.31935,4.38550496484375Q5.40808,4.3196989648437505,5.49993,4.25832596484375Q5.59179,4.19695196484375,5.68654,4.14015996484375Q5.78129,4.08336796484375,5.87871,4.03129296484375Q5.97614,3.97921896484375,6.0760000000000005,3.93198696484375Q6.17586,3.88475596484375,6.27792,3.84248096484375Q6.37998,3.80020596484375,6.484,3.76299096484375Q6.588010000000001,3.72577496484375,6.69372,3.69370696484375Q6.79943,3.66163996484375,6.90659,3.63479796484375Q7.01375,3.60795696484375,7.12209,3.58640516484375Q7.23044,3.56485376484375,7.33971,3.54864466484375Q7.44899,3.53243556484375,7.55892,3.52160766484375Q7.66886,3.51077986484375,7.7792,3.50535941484375Q7.88953,3.49993896484375,8,3.49993896484375Q8.11047,3.49993896484375,8.2208,3.50535941484375Q8.331140000000001,3.51077986484375,8.44108,3.52160766484375Q8.55101,3.53243556484375,8.66029,3.54864466484375Q8.76956,3.56485376484375,8.87791,3.58640516484375Q8.98625,3.60795696484375,9.09341,3.63479796484375Q9.200569999999999,3.66163996484375,9.306280000000001,3.69370696484375Q9.41199,3.72577496484375,9.516,3.76299096484375Q9.62001,3.80020596484375,9.72207,3.84248096484375Q9.82413,3.88475596484375,9.924,3.93198696484375Q10.023859999999999,3.97921896484375,10.121279999999999,4.03129296484375Q10.21871,4.08336796484375,10.31346,4.14015996484375Q10.40821,4.19695196484375,10.500060000000001,4.25832596484375Q10.59192,4.3196989648437505,10.68065,4.38550496484375Q10.76938,4.45131096484375,10.85477,4.52138896484375Q10.940159999999999,4.59146896484375,11.02201,4.66565896484375Q11.10387,4.73984896484375,11.18198,4.81795896484375Q11.26009,4.89606896484375,11.33428,4.9779189648437505Q11.408470000000001,5.0597789648437494,11.47855,5.14516896484375Q11.54863,5.23055896484375,11.61443,5.31928896484375Q11.68024,5.40801896484375,11.74161,5.49986896484375Q11.80299,5.59172896484375,11.85978,5.68647896484375Q11.91657,5.78122896484375,11.96865,5.87864896484375Q12.02072,5.97607896484375,12.06795,6.0759389648437505Q12.11518,6.17579896484375,12.15746,6.27785896484375Q12.19973,6.37991896484375,12.23695,6.48393896484375Q12.27416,6.587948964843751,12.30623,6.69365896484375Q12.3383,6.79936896484375,12.36514,6.90652896484375Q12.39198,7.01368896484375,12.41353,7.12202896484375Q12.43508,7.23037896484375,12.45129,7.33964896484375Q12.4675,7.44892896484375,12.47833,7.55885896484375Q12.48916,7.66879896484375,12.49458,7.77913896484375Q12.5,7.88946896484375,12.5,7.99993896484375Z"
          fill="#0D1118" fill-opacity="1" />
      </g>
    </g>
  </g>
</svg>