<svg xmlns="http://www.w3.org/2000/svg" xmlns:xlink="http://www.w3.org/1999/xlink" fill="none" version="1.1" width="16"
  height="16" viewBox="0 0 16 16">
  <defs>
    <clipPath id="master_svg0_105_22946">
      <rect x="0" y="0" width="16" height="16" rx="0" />
    </clipPath>
  </defs>
  <g clip-path="url(#master_svg0_105_22946)">
    <g>
      <path
        d="M6.6086184375,2.05803225C7.4964084375,1.67336445,8.503828437500001,1.67336445,9.3916184375,2.05803225L13.5816484375,3.87353125C14.1303484375,4.11115125,14.4855484375,4.652021250000001,14.4855484375,5.25003125C14.4855484375,5.84804125,14.1303484375,6.38891125,13.5816484375,6.62653125L9.3916184375,8.44153125C8.503828437500001,8.82620125,7.4964084375,8.82620125,6.6086184375,8.44153125L2.4186214375,6.62653125C1.8698514375,6.38891125,1.5146484375,5.84804125,1.5146484375,5.25003125C1.5146484375,4.652021250000001,1.8698514375,4.11115125,2.4186214375,3.87353125L6.6086184375,2.05803225Z"
        fill="#0D1118" fill-opacity="1" />
    </g>
    <g>
      <path
        d="M1.5386813,8.80768871875C1.636207,8.57371341875,1.893393,8.44974001875,2.137181,8.51918881875L2.192181,8.53868891875L6.26918,10.23719171875C7.32481,10.67705171875,8.50831,10.69851171875,9.57918,10.29719171875L9.73118,10.23719171875L13.8077,8.53868961875C14.0523,8.43585331875,14.3346,8.54200621875,14.4509,8.78052471875C14.5672,9.01904371875,14.4769,9.30684571875,14.2452,9.43618971875L14.1927,9.46168971875L10.11568,11.16069171875C8.82021,11.70049171875,7.36738,11.72464171875,6.05468,11.22819171875L5.88468,11.16069171875L1.807681,9.46168871875C1.5527847,9.35538971875,1.4323427,9.06256771875,1.5386813,8.80768871875Z"
        fill="#0D1118" fill-opacity="1" />
    </g>
    <g>
      <path
        d="M1.5386813,11.307690718749999C1.636207,11.07371461875,1.893393,10.94974121875,2.137181,11.01919071875L2.192181,11.03869021875L6.26918,12.73719171875C7.32481,13.17705171875,8.50831,13.19851171875,9.57918,12.79719171875L9.73118,12.73719171875L13.8077,11.03869021875C14.0523,10.93585331875,14.3346,11.04200561875,14.4509,11.28052471875C14.5672,11.51904271875,14.4769,11.80684571875,14.2452,11.93618971875L14.1927,11.96169071875L10.11568,13.66069171875C8.82021,14.20049171875,7.36738,14.22464171875,6.05468,13.72819171875L5.88468,13.66069171875L1.807681,11.96169071875C1.5527847,11.855391718749999,1.4323427,11.56256971875,1.5386813,11.307690718749999Z"
        fill="#0D1118" fill-opacity="1" />
    </g>
  </g>
</svg>