<svg xmlns="http://www.w3.org/2000/svg" xmlns:xlink="http://www.w3.org/1999/xlink" fill="none" version="1.1" width="16"
  height="16" viewBox="0 0 16 16">
  <defs>
    <clipPath id="master_svg0_975_000910">
      <rect x="0" y="0" width="16" height="16" rx="0" />
    </clipPath>
  </defs>
  <g clip-path="url(#master_svg0_975_000910)">
    <g>
      <path
        d="M2.00000015625,12L14.00001015625,12L14.00001015625,10C14.00001015625,8.895430000000001,13.10461015625,8,12.00001015625,8L10.18164015625,8L10.18164015625,7.8429C10.18164015625,7.6192,10.24712015625,7.40039,10.37000015625,7.21347L10.90899015625,6.39356C12.43071015625,4.07866,10.77029015625,1,8.00000015625,1C5.22971015625,1,3.56925015625,4.07866,5.09101015625,6.39356L5.63000015625,7.21347C5.75288015625,7.40039,5.81836015625,7.6192,5.81836015625,7.8429L5.81836015625,8L4.00000015625,8C2.8954301562499998,8,2.00000015625,8.895430000000001,2.00000015625,10L2.00000015625,12Z"
        fill="#000000" fill-opacity="1" />
    </g>
    <g>
      <path d="M2,13.5L14,13.5L14,14.5L2,14.5L2,13.5Z" fill-rule="evenodd" fill="#0D1118" fill-opacity="1" />
    </g>
  </g>
</svg>