<svg xmlns="http://www.w3.org/2000/svg" xmlns:xlink="http://www.w3.org/1999/xlink" fill="none" version="1.1" width="16"
  height="16" viewBox="0 0 16 16">
  <defs>
    <clipPath id="master_svg0_1034_042185">
      <rect x="0" y="0" width="16" height="16" rx="0" />
    </clipPath>
  </defs>
  <g clip-path="url(#master_svg0_1034_042185)">
    <g>
      <g>
        <path
          d="M13.59990234375,6.6Q13.59990234375,9.6928,7.99990234375,15Q2.39990234375,9.6928,2.39990234375,6.6C2.39990234375,3.50721,4.907112343750001,1,7.99990234375,1C11.09270234375,1,13.59990234375,3.50721,13.59990234375,6.6ZM7.99991234375,8.5Q8.098162343750001,8.5,8.19594234375,8.49037Q8.29372234375,8.48074,8.39009234375,8.46157Q8.486452343749999,8.4424,8.580482343749999,8.413879999999999Q8.67450234375,8.38536,8.76527234375,8.347760000000001Q8.856052343750001,8.31016,8.94270234375,8.26384Q9.02935234375,8.21753,9.11105234375,8.162939999999999Q9.19274234375,8.10835,9.26869234375,8.04602Q9.34464234375,7.98369,9.41412234375,7.91421Q9.48360234375,7.84474,9.54593234375,7.76879Q9.608262343749999,7.69283,9.66285234375,7.61114Q9.71743234375,7.52945,9.76375234375,7.44279Q9.810062343750001,7.35614,9.847662343749999,7.26537Q9.88526234375,7.17459,9.91379234375,7.08057Q9.94231234375,6.98655,9.96148234375,6.89018Q9.98065234375,6.79382,9.99028234375,6.69603Q9.999912343750001,6.59825,9.999912343750001,6.5Q9.999912343750001,6.40175,9.99028234375,6.30397Q9.98065234375,6.20619,9.96148234375,6.10982Q9.94231234375,6.01345,9.91379234375,5.91943Q9.88526234375,5.82541,9.847662343749999,5.73463Q9.810062343750001,5.64386,9.76375234375,5.55721Q9.71743234375,5.47055,9.66284234375,5.38886Q9.608262343749999,5.30716,9.54593234375,5.23121Q9.48360234375,5.15526,9.41412234375,5.08579Q9.34464234375,5.01631,9.26869234375,4.95398Q9.19274234375,4.89165,9.11105234375,4.83706Q9.02935234375,4.78247,8.94270234375,4.73616Q8.856052343750001,4.68984,8.76527234375,4.65224Q8.67450234375,4.61464,8.580482343749999,4.58612Q8.486452343749999,4.5576,8.39009234375,4.53843Q8.29372234375,4.51926,8.19594234375,4.50963Q8.098162343750001,4.5,7.99991234375,4.5Q7.90165234375,4.5,7.80387234375,4.50963Q7.70609234375,4.51926,7.60973234375,4.53843Q7.51336234375,4.5576,7.41934234375,4.58612Q7.32531234375,4.61464,7.23454234375,4.65224Q7.14376234375,4.68984,7.05711234375,4.73616Q6.97046234375,4.78247,6.88876234375,4.83706Q6.80707234375,4.89165,6.73112234375,4.95398Q6.65517234375,5.01631,6.58569234375,5.08579Q6.51622234375,5.15526,6.45388234375,5.23121Q6.39155234375,5.30716,6.33697234375,5.38886Q6.28238234375,5.47055,6.23606234375,5.55721Q6.1897523437499995,5.64386,6.15215234375,5.73463Q6.11455234375,5.82541,6.08603234375,5.91943Q6.05750234375,6.01345,6.03834234375,6.10982Q6.01917234375,6.20619,6.009542343750001,6.30397Q5.99991234375,6.40175,5.99991234375,6.5Q5.99991234375,6.59825,6.009542343750001,6.69603Q6.01917234375,6.79382,6.03834234375,6.89018Q6.05750234375,6.98655,6.08603234375,7.08057Q6.11455234375,7.17459,6.15215234375,7.26537Q6.1897523437499995,7.35614,6.23606234375,7.44279Q6.28238234375,7.52945,6.33697234375,7.61114Q6.39155234375,7.69283,6.45388234375,7.76879Q6.51622234375,7.84474,6.58569234375,7.91421Q6.65517234375,7.98369,6.73112234375,8.04602Q6.80707234375,8.10835,6.88876234375,8.162939999999999Q6.97046234375,8.21753,7.05711234375,8.26384Q7.14376234375,8.31016,7.23454234375,8.347760000000001Q7.32531234375,8.38536,7.41934234375,8.413879999999999Q7.51336234375,8.4424,7.60973234375,8.46157Q7.70609234375,8.48074,7.80387234375,8.49037Q7.90165234375,8.5,7.99991234375,8.5Z"
          fill-rule="evenodd" fill="#0D1118" fill-opacity="1" />
      </g>
    </g>
  </g>
</svg>