<svg xmlns="http://www.w3.org/2000/svg" xmlns:xlink="http://www.w3.org/1999/xlink" fill="none" version="1.1" width="16"
  height="16" viewBox="0 0 16 16">
  <g>
    <g style="opacity:0;">
      <path d="M0,0C0,0,16,0,16,0C16,0,16,16,16,16C16,16,0,16,0,16C0,16,0,0,0,0Z" fill="#D8D8D8" fill-opacity="1" />
    </g>
    <g>
      <g>
        <path
          d="M8,2.5C11.5899,2.5,14.5,5.41015,14.5,9C14.5,12.5899,11.5899,15.5,8,15.5C4.41015,15.5,1.5,12.5899,1.5,9C1.5,5.41015,4.41015,2.5,8,2.5ZM8,5.5C7.72386,5.5,7.5,5.72386,7.5,6C7.5,6,7.5,9,7.5,9C7.5,9,7.50336,9.058309999999999,7.50336,9.058309999999999C7.53225,9.30698,7.74358,9.5,8,9.5C8.27614,9.5,8.5,9.27614,8.5,9C8.5,9,8.5,6,8.5,6C8.5,6,8.49664,5.9416899999999995,8.49664,5.9416899999999995C8.467749999999999,5.693020000000001,8.25642,5.5,8,5.5Z"
          fill-rule="evenodd" fill="#212020" fill-opacity="1" />
      </g>
      <g>
        <path
          d="M7.5,1Q7.5,0.9507543,7.509607,0.9024549Q7.519215,0.854155,7.53806,0.808658Q7.556906,0.763161,7.584265,0.722215Q7.611625,0.681269,7.646447,0.646447Q7.681269,0.611625,7.722215,0.584265Q7.763161,0.556906,7.808658,0.53806Q7.854155,0.519215,7.9024549,0.5096069999999999Q7.9507543,0.5,8,0.5Q8.0492457,0.5,8.0975451,0.5096069999999999Q8.145845,0.519215,8.191342,0.53806Q8.236839,0.556906,8.277785,0.584265Q8.318731,0.611625,8.353553,0.646447Q8.388375,0.681269,8.415735,0.722215Q8.443094,0.763161,8.46194,0.808658Q8.480785000000001,0.854155,8.490393,0.9024549Q8.5,0.9507543,8.5,1L8.5,2.5Q8.5,2.54925,8.490393,2.59754Q8.480785000000001,2.6458399999999997,8.46194,2.6913400000000003Q8.443094,2.73684,8.415735,2.77778Q8.388375,2.81873,8.353553,2.8535500000000003Q8.318731,2.8883799999999997,8.277785,2.91573Q8.236839,2.9430899999999998,8.191342,2.9619400000000002Q8.145845,2.98079,8.0975451,2.99039Q8.0492457,3,8,3Q7.9507543,3,7.9024549,2.99039Q7.854155,2.98079,7.808658,2.9619400000000002Q7.763161,2.9430899999999998,7.722215,2.91573Q7.681269,2.8883799999999997,7.646447,2.8535500000000003Q7.611625,2.81873,7.584265,2.77778Q7.556906,2.73684,7.53806,2.6913400000000003Q7.519215,2.6458399999999997,7.509607,2.59755Q7.5,2.54925,7.5,2.5L7.5,1Z"
          fill-rule="evenodd" fill="#212020" fill-opacity="1" />
      </g>
      <g>
        <path
          d="M6.5,0.5L9.5,0.5Q9.54925,0.5,9.59754,0.5096069999999999Q9.64584,0.519215,9.69134,0.53806Q9.73684,0.556906,9.77778,0.584265Q9.81873,0.611625,9.85355,0.646447Q9.88837,0.681269,9.91573,0.722215Q9.94309,0.763161,9.96194,0.808658Q9.98078,0.854155,9.99039,0.9024549Q10,0.9507543,10,1Q10,1.0492457,9.99039,1.0975451Q9.98078,1.145845,9.96194,1.1913420000000001Q9.94309,1.236839,9.91573,1.277785Q9.88837,1.318731,9.85355,1.353553Q9.81873,1.388375,9.77778,1.415735Q9.73684,1.4430939999999999,9.69134,1.46194Q9.64584,1.480785,9.59754,1.490393Q9.54925,1.5,9.5,1.5L6.5,1.5Q6.4507543,1.5,6.4024549,1.490393Q6.354155,1.480785,6.308658,1.46194Q6.263161,1.4430939999999999,6.222215,1.415735Q6.181269,1.388375,6.146447,1.353553Q6.111625,1.318731,6.084265,1.277785Q6.056906,1.236839,6.03806,1.1913420000000001Q6.019215,1.145845,6.009607,1.0975451Q6,1.0492457,6,1Q6,0.9507543,6.009607,0.9024549Q6.019215,0.854155,6.03806,0.808658Q6.056906,0.763161,6.084265,0.722215Q6.111625,0.681269,6.146447,0.646447Q6.181269,0.611625,6.222215,0.584265Q6.263161,0.556906,6.308658,0.53806Q6.354155,0.519215,6.4024549,0.5096069999999999Q6.4507543,0.5,6.5,0.5Z"
          fill-rule="evenodd" fill="#212020" fill-opacity="1" />
      </g>
      <g>
        <path
          d="M12.64836148223877,2.3087055003356936L13.52269648223877,3.0726105003356934Q13.60419648223877,3.1438215003356933,13.64895648223877,3.2423655003356933Q13.69371648223877,3.3409085003356935,13.69371648223877,3.449140500335693Q13.69371648223877,3.4983865003356933,13.68410648223877,3.5466855003356934Q13.674506482238769,3.594985500335693,13.65565648223877,3.6404825003356933Q13.63681648223877,3.6859755003356933,13.60945648223877,3.7269255003356934Q13.58209648223877,3.7678755003356934,13.54726648223877,3.8026955003356933Q13.512446482238769,3.8375155003356936,13.47150648223877,3.8648755003356934Q13.430556482238769,3.892235500335693,13.38505648223877,3.911075500335693Q13.33956648223877,3.9299255003356937,13.291263482238769,3.939535500335693Q13.24296348223877,3.9491455003356934,13.19371748223877,3.9491455003356934Q13.10297948223877,3.9491455003356934,13.018026482238769,3.9172555003356933Q12.93307448223877,3.8853755003356936,12.86474248223877,3.8256755003356933L11.99041148223877,3.061765500335693Q11.908905482238769,2.9905545003356933,11.86414648223877,2.8920115003356934Q11.81938648223877,2.7934675003356935,11.81938648223877,2.6852355003356934Q11.81938648223877,2.635989800335693,11.82899348223877,2.5876904003356933Q11.838601482238769,2.5393905003356934,11.85744648223877,2.4938935003356932Q11.87629248223877,2.4483965003356936,11.90365148223877,2.407450500335693Q11.93101148223877,2.3665045003356933,11.96583348223877,2.3316825003356936Q12.00065548223877,2.2968605003356934,12.04160148223877,2.269500500335693Q12.08254748223877,2.2421415003356935,12.128044482238769,2.223295500335693Q12.17354148223877,2.2044505003356933,12.22184138223877,2.1948425003356933Q12.27014078223877,2.1852355003356934,12.31938648223877,2.1852355003356934Q12.410125182238769,2.1852355003356934,12.49507748223877,2.217119500335693Q12.580030482238769,2.2490035003356934,12.64836148223877,2.3087055003356936Z"
          fill-rule="evenodd" fill="#212020" fill-opacity="1" />
      </g>
    </g>
  </g>
</svg>