<svg xmlns="http://www.w3.org/2000/svg" xmlns:xlink="http://www.w3.org/1999/xlink" fill="none" version="1.1" width="16"
  height="16" viewBox="0 0 16 16">
  <defs>
    <clipPath id="master_svg0_105_50496/105_27539">
      <rect x="0" y="0" width="16" height="16" rx="0" />
    </clipPath>
  </defs>
  <g clip-path="url(#master_svg0_105_50496/105_27539)">
    <g>
      <path
        d="M14.4698125,13.24998515625C14.7343125,13.25058515625,14.9525125,13.45698515625,14.9679125,13.72098515625C14.9833125,13.98498515625,14.7904125,14.21528515625,14.5278125,14.24648515625L14.4693125,14.24998515625L9.8738125,14.24998515625C9.6092625,14.24968515625,9.390722499999999,14.04338515625,9.3752225,13.77928515625C9.3597125,13.51518515625,9.5526125,13.28478515625,9.8153125,13.25348515625L9.8738125,13.24998515625L14.4693125,13.24998515625L14.4698125,13.24998515625ZM14.4698125,11.00001515625C14.7343125,11.00056515625,14.9525125,11.20695515625,14.9679125,11.47096515625C14.9833125,11.73496515625,14.7904125,11.96528515625,14.5278125,11.99651515625L14.4698125,12.00001515625L11.4998125,12.00001515625C11.2352725,11.99972515625,11.0167325,11.79341515625,11.0012225,11.52931515625C10.9857225,11.26522515625,11.1786125,11.03476515625,11.4413125,11.00351515625L11.4998125,11.00001515625L14.4698125,11.00001515625ZM8.2273125,2.74651415625C8.420752499999999,2.54445675625,8.7423325,2.54040055625,8.9408125,2.73751415625L12.6368125,6.40901515625C12.8302125,6.60103515625,12.8342125,6.91258515625,12.6458125,7.10951515625L6.4458125,13.58448515625C6.0684025,13.97848515625,5.5464025,14.20118515625,5.0008125,14.20098515625L2.4453125,14.20098515625C1.8930285,14.20098515625,1.445312805176,13.75328515625,1.445312957764,13.20098515625L1.445312957764,10.63201515625C1.444983063,10.116625156249999,1.6436245,9.62100515625,1.9998125,9.24851515625L8.2273125,2.74651415625Z"
        fill="black" fill-opacity="1" />
    </g>
    <g>
      <path
        d="M12.59671875,2.75677078125C11.172218749999999,1.33226978125,9.69121875,1.27876978125,8.24171875,2.72827078125L7.88671875,3.08327078125L12.293218750000001,7.46027078125L12.64571875,7.10777078125C14.12671875,5.62677078125,14.04671875,4.20727078125,12.59671875,2.75677078125ZM11.97221875,3.5482707812500003C12.83321875,4.44227078125,12.96021875,5.14327078125,12.30371875,5.99127078125L12.27221875,6.03027078125L9.32321875,3.10027078125L9.37471875,3.06127078125C10.23521875,2.41627078125,10.98971875,2.56427078125,11.88971875,3.46377078125L11.97221875,3.5482707812500003Z"
        fill="black" fill-opacity="1" />
    </g>
  </g>
</svg>